<?xml version="1.0" encoding="utf-8" standalone="no"?>
<!DOCTYPE svg PUBLIC "-//W3C//DTD SVG 1.1//EN"
  "http://www.w3.org/Graphics/SVG/1.1/DTD/svg11.dtd">
<svg xmlns:xlink="http://www.w3.org/1999/xlink" width="460.8pt" height="345.6pt" viewBox="0 0 460.8 345.6" xmlns="http://www.w3.org/2000/svg" version="1.1">
 <metadata>
  <rdf:RDF xmlns:dc="http://purl.org/dc/elements/1.1/" xmlns:cc="http://creativecommons.org/ns#" xmlns:rdf="http://www.w3.org/1999/02/22-rdf-syntax-ns#">
   <cc:Work>
    <dc:type rdf:resource="http://purl.org/dc/dcmitype/StillImage"/>
    <dc:date>2023-09-12T00:17:09.075218</dc:date>
    <dc:format>image/svg+xml</dc:format>
    <dc:creator>
     <cc:Agent>
      <dc:title>Matplotlib v3.5.3, https://matplotlib.org/</dc:title>
     </cc:Agent>
    </dc:creator>
   </cc:Work>
  </rdf:RDF>
 </metadata>
 <defs>
  <style type="text/css">*{stroke-linejoin: round; stroke-linecap: butt}</style>
 </defs>
 <g id="figure_1">
  <g id="patch_1">
   <path d="M 0 345.6 
L 460.8 345.6 
L 460.8 0 
L 0 0 
z
" style="fill: #ffffff"/>
  </g>
  <g id="axes_1">
   <g id="patch_2">
    <path d="M 57.6 307.584 
L 414.72 307.584 
L 414.72 41.472 
L 57.6 41.472 
z
" style="fill: #ffffff"/>
   </g>
   <g id="matplotlib.axis_1">
    <g id="xtick_1">
     <g id="line2d_1">
      <defs>
       <path id="me174450515" d="M 0 0 
L 0 3.5 
" style="stroke: #000000; stroke-width: 0.8"/>
      </defs>
      <g>
       <use xlink:href="#me174450515" x="94.123636" y="307.584" style="stroke: #000000; stroke-width: 0.8"/>
      </g>
     </g>
     <g id="text_1">
      <!-- 10 -->
      <g transform="translate(87.761136 322.182437)scale(0.1 -0.1)">
       <defs>
        <path id="DejaVuSans-31" d="M 794 531 
L 1825 531 
L 1825 4091 
L 703 3866 
L 703 4441 
L 1819 4666 
L 2450 4666 
L 2450 531 
L 3481 531 
L 3481 0 
L 794 0 
L 794 531 
z
" transform="scale(0.015625)"/>
        <path id="DejaVuSans-30" d="M 2034 4250 
Q 1547 4250 1301 3770 
Q 1056 3291 1056 2328 
Q 1056 1369 1301 889 
Q 1547 409 2034 409 
Q 2525 409 2770 889 
Q 3016 1369 3016 2328 
Q 3016 3291 2770 3770 
Q 2525 4250 2034 4250 
z
M 2034 4750 
Q 2819 4750 3233 4129 
Q 3647 3509 3647 2328 
Q 3647 1150 3233 529 
Q 2819 -91 2034 -91 
Q 1250 -91 836 529 
Q 422 1150 422 2328 
Q 422 3509 836 4129 
Q 1250 4750 2034 4750 
z
" transform="scale(0.015625)"/>
       </defs>
       <use xlink:href="#DejaVuSans-31"/>
       <use xlink:href="#DejaVuSans-30" x="63.623047"/>
      </g>
     </g>
    </g>
    <g id="xtick_2">
     <g id="line2d_2">
      <g>
       <use xlink:href="#me174450515" x="134.705455" y="307.584" style="stroke: #000000; stroke-width: 0.8"/>
      </g>
     </g>
     <g id="text_2">
      <!-- 20 -->
      <g transform="translate(128.342955 322.182437)scale(0.1 -0.1)">
       <defs>
        <path id="DejaVuSans-32" d="M 1228 531 
L 3431 531 
L 3431 0 
L 469 0 
L 469 531 
Q 828 903 1448 1529 
Q 2069 2156 2228 2338 
Q 2531 2678 2651 2914 
Q 2772 3150 2772 3378 
Q 2772 3750 2511 3984 
Q 2250 4219 1831 4219 
Q 1534 4219 1204 4116 
Q 875 4013 500 3803 
L 500 4441 
Q 881 4594 1212 4672 
Q 1544 4750 1819 4750 
Q 2544 4750 2975 4387 
Q 3406 4025 3406 3419 
Q 3406 3131 3298 2873 
Q 3191 2616 2906 2266 
Q 2828 2175 2409 1742 
Q 1991 1309 1228 531 
z
" transform="scale(0.015625)"/>
       </defs>
       <use xlink:href="#DejaVuSans-32"/>
       <use xlink:href="#DejaVuSans-30" x="63.623047"/>
      </g>
     </g>
    </g>
    <g id="xtick_3">
     <g id="line2d_3">
      <g>
       <use xlink:href="#me174450515" x="175.287273" y="307.584" style="stroke: #000000; stroke-width: 0.8"/>
      </g>
     </g>
     <g id="text_3">
      <!-- 30 -->
      <g transform="translate(168.924773 322.182437)scale(0.1 -0.1)">
       <defs>
        <path id="DejaVuSans-33" d="M 2597 2516 
Q 3050 2419 3304 2112 
Q 3559 1806 3559 1356 
Q 3559 666 3084 287 
Q 2609 -91 1734 -91 
Q 1441 -91 1130 -33 
Q 819 25 488 141 
L 488 750 
Q 750 597 1062 519 
Q 1375 441 1716 441 
Q 2309 441 2620 675 
Q 2931 909 2931 1356 
Q 2931 1769 2642 2001 
Q 2353 2234 1838 2234 
L 1294 2234 
L 1294 2753 
L 1863 2753 
Q 2328 2753 2575 2939 
Q 2822 3125 2822 3475 
Q 2822 3834 2567 4026 
Q 2313 4219 1838 4219 
Q 1578 4219 1281 4162 
Q 984 4106 628 3988 
L 628 4550 
Q 988 4650 1302 4700 
Q 1616 4750 1894 4750 
Q 2613 4750 3031 4423 
Q 3450 4097 3450 3541 
Q 3450 3153 3228 2886 
Q 3006 2619 2597 2516 
z
" transform="scale(0.015625)"/>
       </defs>
       <use xlink:href="#DejaVuSans-33"/>
       <use xlink:href="#DejaVuSans-30" x="63.623047"/>
      </g>
     </g>
    </g>
    <g id="xtick_4">
     <g id="line2d_4">
      <g>
       <use xlink:href="#me174450515" x="215.869091" y="307.584" style="stroke: #000000; stroke-width: 0.8"/>
      </g>
     </g>
     <g id="text_4">
      <!-- 40 -->
      <g transform="translate(209.506591 322.182437)scale(0.1 -0.1)">
       <defs>
        <path id="DejaVuSans-34" d="M 2419 4116 
L 825 1625 
L 2419 1625 
L 2419 4116 
z
M 2253 4666 
L 3047 4666 
L 3047 1625 
L 3713 1625 
L 3713 1100 
L 3047 1100 
L 3047 0 
L 2419 0 
L 2419 1100 
L 313 1100 
L 313 1709 
L 2253 4666 
z
" transform="scale(0.015625)"/>
       </defs>
       <use xlink:href="#DejaVuSans-34"/>
       <use xlink:href="#DejaVuSans-30" x="63.623047"/>
      </g>
     </g>
    </g>
    <g id="xtick_5">
     <g id="line2d_5">
      <g>
       <use xlink:href="#me174450515" x="256.450909" y="307.584" style="stroke: #000000; stroke-width: 0.8"/>
      </g>
     </g>
     <g id="text_5">
      <!-- 50 -->
      <g transform="translate(250.088409 322.182437)scale(0.1 -0.1)">
       <defs>
        <path id="DejaVuSans-35" d="M 691 4666 
L 3169 4666 
L 3169 4134 
L 1269 4134 
L 1269 2991 
Q 1406 3038 1543 3061 
Q 1681 3084 1819 3084 
Q 2600 3084 3056 2656 
Q 3513 2228 3513 1497 
Q 3513 744 3044 326 
Q 2575 -91 1722 -91 
Q 1428 -91 1123 -41 
Q 819 9 494 109 
L 494 744 
Q 775 591 1075 516 
Q 1375 441 1709 441 
Q 2250 441 2565 725 
Q 2881 1009 2881 1497 
Q 2881 1984 2565 2268 
Q 2250 2553 1709 2553 
Q 1456 2553 1204 2497 
Q 953 2441 691 2322 
L 691 4666 
z
" transform="scale(0.015625)"/>
       </defs>
       <use xlink:href="#DejaVuSans-35"/>
       <use xlink:href="#DejaVuSans-30" x="63.623047"/>
      </g>
     </g>
    </g>
    <g id="xtick_6">
     <g id="line2d_6">
      <g>
       <use xlink:href="#me174450515" x="297.032727" y="307.584" style="stroke: #000000; stroke-width: 0.8"/>
      </g>
     </g>
     <g id="text_6">
      <!-- 60 -->
      <g transform="translate(290.670227 322.182437)scale(0.1 -0.1)">
       <defs>
        <path id="DejaVuSans-36" d="M 2113 2584 
Q 1688 2584 1439 2293 
Q 1191 2003 1191 1497 
Q 1191 994 1439 701 
Q 1688 409 2113 409 
Q 2538 409 2786 701 
Q 3034 994 3034 1497 
Q 3034 2003 2786 2293 
Q 2538 2584 2113 2584 
z
M 3366 4563 
L 3366 3988 
Q 3128 4100 2886 4159 
Q 2644 4219 2406 4219 
Q 1781 4219 1451 3797 
Q 1122 3375 1075 2522 
Q 1259 2794 1537 2939 
Q 1816 3084 2150 3084 
Q 2853 3084 3261 2657 
Q 3669 2231 3669 1497 
Q 3669 778 3244 343 
Q 2819 -91 2113 -91 
Q 1303 -91 875 529 
Q 447 1150 447 2328 
Q 447 3434 972 4092 
Q 1497 4750 2381 4750 
Q 2619 4750 2861 4703 
Q 3103 4656 3366 4563 
z
" transform="scale(0.015625)"/>
       </defs>
       <use xlink:href="#DejaVuSans-36"/>
       <use xlink:href="#DejaVuSans-30" x="63.623047"/>
      </g>
     </g>
    </g>
    <g id="xtick_7">
     <g id="line2d_7">
      <g>
       <use xlink:href="#me174450515" x="337.614545" y="307.584" style="stroke: #000000; stroke-width: 0.8"/>
      </g>
     </g>
     <g id="text_7">
      <!-- 70 -->
      <g transform="translate(331.252045 322.182437)scale(0.1 -0.1)">
       <defs>
        <path id="DejaVuSans-37" d="M 525 4666 
L 3525 4666 
L 3525 4397 
L 1831 0 
L 1172 0 
L 2766 4134 
L 525 4134 
L 525 4666 
z
" transform="scale(0.015625)"/>
       </defs>
       <use xlink:href="#DejaVuSans-37"/>
       <use xlink:href="#DejaVuSans-30" x="63.623047"/>
      </g>
     </g>
    </g>
    <g id="xtick_8">
     <g id="line2d_8">
      <g>
       <use xlink:href="#me174450515" x="378.196364" y="307.584" style="stroke: #000000; stroke-width: 0.8"/>
      </g>
     </g>
     <g id="text_8">
      <!-- 80 -->
      <g transform="translate(371.833864 322.182437)scale(0.1 -0.1)">
       <defs>
        <path id="DejaVuSans-38" d="M 2034 2216 
Q 1584 2216 1326 1975 
Q 1069 1734 1069 1313 
Q 1069 891 1326 650 
Q 1584 409 2034 409 
Q 2484 409 2743 651 
Q 3003 894 3003 1313 
Q 3003 1734 2745 1975 
Q 2488 2216 2034 2216 
z
M 1403 2484 
Q 997 2584 770 2862 
Q 544 3141 544 3541 
Q 544 4100 942 4425 
Q 1341 4750 2034 4750 
Q 2731 4750 3128 4425 
Q 3525 4100 3525 3541 
Q 3525 3141 3298 2862 
Q 3072 2584 2669 2484 
Q 3125 2378 3379 2068 
Q 3634 1759 3634 1313 
Q 3634 634 3220 271 
Q 2806 -91 2034 -91 
Q 1263 -91 848 271 
Q 434 634 434 1313 
Q 434 1759 690 2068 
Q 947 2378 1403 2484 
z
M 1172 3481 
Q 1172 3119 1398 2916 
Q 1625 2713 2034 2713 
Q 2441 2713 2670 2916 
Q 2900 3119 2900 3481 
Q 2900 3844 2670 4047 
Q 2441 4250 2034 4250 
Q 1625 4250 1398 4047 
Q 1172 3844 1172 3481 
z
" transform="scale(0.015625)"/>
       </defs>
       <use xlink:href="#DejaVuSans-38"/>
       <use xlink:href="#DejaVuSans-30" x="63.623047"/>
      </g>
     </g>
    </g>
    <g id="text_9">
     <!-- Distance (cm) -->
     <g transform="translate(201.187344 335.860562)scale(0.1 -0.1)">
      <defs>
       <path id="DejaVuSans-44" d="M 1259 4147 
L 1259 519 
L 2022 519 
Q 2988 519 3436 956 
Q 3884 1394 3884 2338 
Q 3884 3275 3436 3711 
Q 2988 4147 2022 4147 
L 1259 4147 
z
M 628 4666 
L 1925 4666 
Q 3281 4666 3915 4102 
Q 4550 3538 4550 2338 
Q 4550 1131 3912 565 
Q 3275 0 1925 0 
L 628 0 
L 628 4666 
z
" transform="scale(0.015625)"/>
       <path id="DejaVuSans-69" d="M 603 3500 
L 1178 3500 
L 1178 0 
L 603 0 
L 603 3500 
z
M 603 4863 
L 1178 4863 
L 1178 4134 
L 603 4134 
L 603 4863 
z
" transform="scale(0.015625)"/>
       <path id="DejaVuSans-73" d="M 2834 3397 
L 2834 2853 
Q 2591 2978 2328 3040 
Q 2066 3103 1784 3103 
Q 1356 3103 1142 2972 
Q 928 2841 928 2578 
Q 928 2378 1081 2264 
Q 1234 2150 1697 2047 
L 1894 2003 
Q 2506 1872 2764 1633 
Q 3022 1394 3022 966 
Q 3022 478 2636 193 
Q 2250 -91 1575 -91 
Q 1294 -91 989 -36 
Q 684 19 347 128 
L 347 722 
Q 666 556 975 473 
Q 1284 391 1588 391 
Q 1994 391 2212 530 
Q 2431 669 2431 922 
Q 2431 1156 2273 1281 
Q 2116 1406 1581 1522 
L 1381 1569 
Q 847 1681 609 1914 
Q 372 2147 372 2553 
Q 372 3047 722 3315 
Q 1072 3584 1716 3584 
Q 2034 3584 2315 3537 
Q 2597 3491 2834 3397 
z
" transform="scale(0.015625)"/>
       <path id="DejaVuSans-74" d="M 1172 4494 
L 1172 3500 
L 2356 3500 
L 2356 3053 
L 1172 3053 
L 1172 1153 
Q 1172 725 1289 603 
Q 1406 481 1766 481 
L 2356 481 
L 2356 0 
L 1766 0 
Q 1100 0 847 248 
Q 594 497 594 1153 
L 594 3053 
L 172 3053 
L 172 3500 
L 594 3500 
L 594 4494 
L 1172 4494 
z
" transform="scale(0.015625)"/>
       <path id="DejaVuSans-61" d="M 2194 1759 
Q 1497 1759 1228 1600 
Q 959 1441 959 1056 
Q 959 750 1161 570 
Q 1363 391 1709 391 
Q 2188 391 2477 730 
Q 2766 1069 2766 1631 
L 2766 1759 
L 2194 1759 
z
M 3341 1997 
L 3341 0 
L 2766 0 
L 2766 531 
Q 2569 213 2275 61 
Q 1981 -91 1556 -91 
Q 1019 -91 701 211 
Q 384 513 384 1019 
Q 384 1609 779 1909 
Q 1175 2209 1959 2209 
L 2766 2209 
L 2766 2266 
Q 2766 2663 2505 2880 
Q 2244 3097 1772 3097 
Q 1472 3097 1187 3025 
Q 903 2953 641 2809 
L 641 3341 
Q 956 3463 1253 3523 
Q 1550 3584 1831 3584 
Q 2591 3584 2966 3190 
Q 3341 2797 3341 1997 
z
" transform="scale(0.015625)"/>
       <path id="DejaVuSans-6e" d="M 3513 2113 
L 3513 0 
L 2938 0 
L 2938 2094 
Q 2938 2591 2744 2837 
Q 2550 3084 2163 3084 
Q 1697 3084 1428 2787 
Q 1159 2491 1159 1978 
L 1159 0 
L 581 0 
L 581 3500 
L 1159 3500 
L 1159 2956 
Q 1366 3272 1645 3428 
Q 1925 3584 2291 3584 
Q 2894 3584 3203 3211 
Q 3513 2838 3513 2113 
z
" transform="scale(0.015625)"/>
       <path id="DejaVuSans-63" d="M 3122 3366 
L 3122 2828 
Q 2878 2963 2633 3030 
Q 2388 3097 2138 3097 
Q 1578 3097 1268 2742 
Q 959 2388 959 1747 
Q 959 1106 1268 751 
Q 1578 397 2138 397 
Q 2388 397 2633 464 
Q 2878 531 3122 666 
L 3122 134 
Q 2881 22 2623 -34 
Q 2366 -91 2075 -91 
Q 1284 -91 818 406 
Q 353 903 353 1747 
Q 353 2603 823 3093 
Q 1294 3584 2113 3584 
Q 2378 3584 2631 3529 
Q 2884 3475 3122 3366 
z
" transform="scale(0.015625)"/>
       <path id="DejaVuSans-65" d="M 3597 1894 
L 3597 1613 
L 953 1613 
Q 991 1019 1311 708 
Q 1631 397 2203 397 
Q 2534 397 2845 478 
Q 3156 559 3463 722 
L 3463 178 
Q 3153 47 2828 -22 
Q 2503 -91 2169 -91 
Q 1331 -91 842 396 
Q 353 884 353 1716 
Q 353 2575 817 3079 
Q 1281 3584 2069 3584 
Q 2775 3584 3186 3129 
Q 3597 2675 3597 1894 
z
M 3022 2063 
Q 3016 2534 2758 2815 
Q 2500 3097 2075 3097 
Q 1594 3097 1305 2825 
Q 1016 2553 972 2059 
L 3022 2063 
z
" transform="scale(0.015625)"/>
       <path id="DejaVuSans-20" transform="scale(0.015625)"/>
       <path id="DejaVuSans-28" d="M 1984 4856 
Q 1566 4138 1362 3434 
Q 1159 2731 1159 2009 
Q 1159 1288 1364 580 
Q 1569 -128 1984 -844 
L 1484 -844 
Q 1016 -109 783 600 
Q 550 1309 550 2009 
Q 550 2706 781 3412 
Q 1013 4119 1484 4856 
L 1984 4856 
z
" transform="scale(0.015625)"/>
       <path id="DejaVuSans-6d" d="M 3328 2828 
Q 3544 3216 3844 3400 
Q 4144 3584 4550 3584 
Q 5097 3584 5394 3201 
Q 5691 2819 5691 2113 
L 5691 0 
L 5113 0 
L 5113 2094 
Q 5113 2597 4934 2840 
Q 4756 3084 4391 3084 
Q 3944 3084 3684 2787 
Q 3425 2491 3425 1978 
L 3425 0 
L 2847 0 
L 2847 2094 
Q 2847 2600 2669 2842 
Q 2491 3084 2119 3084 
Q 1678 3084 1418 2786 
Q 1159 2488 1159 1978 
L 1159 0 
L 581 0 
L 581 3500 
L 1159 3500 
L 1159 2956 
Q 1356 3278 1631 3431 
Q 1906 3584 2284 3584 
Q 2666 3584 2933 3390 
Q 3200 3197 3328 2828 
z
" transform="scale(0.015625)"/>
       <path id="DejaVuSans-29" d="M 513 4856 
L 1013 4856 
Q 1481 4119 1714 3412 
Q 1947 2706 1947 2009 
Q 1947 1309 1714 600 
Q 1481 -109 1013 -844 
L 513 -844 
Q 928 -128 1133 580 
Q 1338 1288 1338 2009 
Q 1338 2731 1133 3434 
Q 928 4138 513 4856 
z
" transform="scale(0.015625)"/>
      </defs>
      <use xlink:href="#DejaVuSans-44"/>
      <use xlink:href="#DejaVuSans-69" x="77.001953"/>
      <use xlink:href="#DejaVuSans-73" x="104.785156"/>
      <use xlink:href="#DejaVuSans-74" x="156.884766"/>
      <use xlink:href="#DejaVuSans-61" x="196.09375"/>
      <use xlink:href="#DejaVuSans-6e" x="257.373047"/>
      <use xlink:href="#DejaVuSans-63" x="320.751953"/>
      <use xlink:href="#DejaVuSans-65" x="375.732422"/>
      <use xlink:href="#DejaVuSans-20" x="437.255859"/>
      <use xlink:href="#DejaVuSans-28" x="469.042969"/>
      <use xlink:href="#DejaVuSans-63" x="508.056641"/>
      <use xlink:href="#DejaVuSans-6d" x="563.037109"/>
      <use xlink:href="#DejaVuSans-29" x="660.449219"/>
     </g>
    </g>
   </g>
   <g id="matplotlib.axis_2">
    <g id="ytick_1">
     <g id="line2d_9">
      <defs>
       <path id="meee65fc3b3" d="M 0 0 
L -3.5 0 
" style="stroke: #000000; stroke-width: 0.8"/>
      </defs>
      <g>
       <use xlink:href="#meee65fc3b3" x="57.6" y="307.584" style="stroke: #000000; stroke-width: 0.8"/>
      </g>
     </g>
     <g id="text_10">
      <!-- −20 -->
      <g transform="translate(29.495313 311.383219)scale(0.1 -0.1)">
       <defs>
        <path id="DejaVuSans-2212" d="M 678 2272 
L 4684 2272 
L 4684 1741 
L 678 1741 
L 678 2272 
z
" transform="scale(0.015625)"/>
       </defs>
       <use xlink:href="#DejaVuSans-2212"/>
       <use xlink:href="#DejaVuSans-32" x="83.789062"/>
       <use xlink:href="#DejaVuSans-30" x="147.412109"/>
      </g>
     </g>
    </g>
    <g id="ytick_2">
     <g id="line2d_10">
      <g>
       <use xlink:href="#meee65fc3b3" x="57.6" y="274.32" style="stroke: #000000; stroke-width: 0.8"/>
      </g>
     </g>
     <g id="text_11">
      <!-- −15 -->
      <g transform="translate(29.495313 278.119219)scale(0.1 -0.1)">
       <use xlink:href="#DejaVuSans-2212"/>
       <use xlink:href="#DejaVuSans-31" x="83.789062"/>
       <use xlink:href="#DejaVuSans-35" x="147.412109"/>
      </g>
     </g>
    </g>
    <g id="ytick_3">
     <g id="line2d_11">
      <g>
       <use xlink:href="#meee65fc3b3" x="57.6" y="241.056" style="stroke: #000000; stroke-width: 0.8"/>
      </g>
     </g>
     <g id="text_12">
      <!-- −10 -->
      <g transform="translate(29.495313 244.855219)scale(0.1 -0.1)">
       <use xlink:href="#DejaVuSans-2212"/>
       <use xlink:href="#DejaVuSans-31" x="83.789062"/>
       <use xlink:href="#DejaVuSans-30" x="147.412109"/>
      </g>
     </g>
    </g>
    <g id="ytick_4">
     <g id="line2d_12">
      <g>
       <use xlink:href="#meee65fc3b3" x="57.6" y="207.792" style="stroke: #000000; stroke-width: 0.8"/>
      </g>
     </g>
     <g id="text_13">
      <!-- −5 -->
      <g transform="translate(35.857813 211.591219)scale(0.1 -0.1)">
       <use xlink:href="#DejaVuSans-2212"/>
       <use xlink:href="#DejaVuSans-35" x="83.789062"/>
      </g>
     </g>
    </g>
    <g id="ytick_5">
     <g id="line2d_13">
      <g>
       <use xlink:href="#meee65fc3b3" x="57.6" y="174.528" style="stroke: #000000; stroke-width: 0.8"/>
      </g>
     </g>
     <g id="text_14">
      <!-- 0 -->
      <g transform="translate(44.2375 178.327219)scale(0.1 -0.1)">
       <use xlink:href="#DejaVuSans-30"/>
      </g>
     </g>
    </g>
    <g id="ytick_6">
     <g id="line2d_14">
      <g>
       <use xlink:href="#meee65fc3b3" x="57.6" y="141.264" style="stroke: #000000; stroke-width: 0.8"/>
      </g>
     </g>
     <g id="text_15">
      <!-- 5 -->
      <g transform="translate(44.2375 145.063219)scale(0.1 -0.1)">
       <use xlink:href="#DejaVuSans-35"/>
      </g>
     </g>
    </g>
    <g id="ytick_7">
     <g id="line2d_15">
      <g>
       <use xlink:href="#meee65fc3b3" x="57.6" y="108" style="stroke: #000000; stroke-width: 0.8"/>
      </g>
     </g>
     <g id="text_16">
      <!-- 10 -->
      <g transform="translate(37.875 111.799219)scale(0.1 -0.1)">
       <use xlink:href="#DejaVuSans-31"/>
       <use xlink:href="#DejaVuSans-30" x="63.623047"/>
      </g>
     </g>
    </g>
    <g id="ytick_8">
     <g id="line2d_16">
      <g>
       <use xlink:href="#meee65fc3b3" x="57.6" y="74.736" style="stroke: #000000; stroke-width: 0.8"/>
      </g>
     </g>
     <g id="text_17">
      <!-- 15 -->
      <g transform="translate(37.875 78.535219)scale(0.1 -0.1)">
       <use xlink:href="#DejaVuSans-31"/>
       <use xlink:href="#DejaVuSans-35" x="63.623047"/>
      </g>
     </g>
    </g>
    <g id="ytick_9">
     <g id="line2d_17">
      <g>
       <use xlink:href="#meee65fc3b3" x="57.6" y="41.472" style="stroke: #000000; stroke-width: 0.8"/>
      </g>
     </g>
     <g id="text_18">
      <!-- 20 -->
      <g transform="translate(37.875 45.271219)scale(0.1 -0.1)">
       <use xlink:href="#DejaVuSans-32"/>
       <use xlink:href="#DejaVuSans-30" x="63.623047"/>
      </g>
     </g>
    </g>
    <g id="text_19">
     <!-- Gain Enhancement (dB) -->
     <g transform="translate(23.415625 234.339719)rotate(-90)scale(0.1 -0.1)">
      <defs>
       <path id="DejaVuSans-47" d="M 3809 666 
L 3809 1919 
L 2778 1919 
L 2778 2438 
L 4434 2438 
L 4434 434 
Q 4069 175 3628 42 
Q 3188 -91 2688 -91 
Q 1594 -91 976 548 
Q 359 1188 359 2328 
Q 359 3472 976 4111 
Q 1594 4750 2688 4750 
Q 3144 4750 3555 4637 
Q 3966 4525 4313 4306 
L 4313 3634 
Q 3963 3931 3569 4081 
Q 3175 4231 2741 4231 
Q 1884 4231 1454 3753 
Q 1025 3275 1025 2328 
Q 1025 1384 1454 906 
Q 1884 428 2741 428 
Q 3075 428 3337 486 
Q 3600 544 3809 666 
z
" transform="scale(0.015625)"/>
       <path id="DejaVuSans-45" d="M 628 4666 
L 3578 4666 
L 3578 4134 
L 1259 4134 
L 1259 2753 
L 3481 2753 
L 3481 2222 
L 1259 2222 
L 1259 531 
L 3634 531 
L 3634 0 
L 628 0 
L 628 4666 
z
" transform="scale(0.015625)"/>
       <path id="DejaVuSans-68" d="M 3513 2113 
L 3513 0 
L 2938 0 
L 2938 2094 
Q 2938 2591 2744 2837 
Q 2550 3084 2163 3084 
Q 1697 3084 1428 2787 
Q 1159 2491 1159 1978 
L 1159 0 
L 581 0 
L 581 4863 
L 1159 4863 
L 1159 2956 
Q 1366 3272 1645 3428 
Q 1925 3584 2291 3584 
Q 2894 3584 3203 3211 
Q 3513 2838 3513 2113 
z
" transform="scale(0.015625)"/>
       <path id="DejaVuSans-64" d="M 2906 2969 
L 2906 4863 
L 3481 4863 
L 3481 0 
L 2906 0 
L 2906 525 
Q 2725 213 2448 61 
Q 2172 -91 1784 -91 
Q 1150 -91 751 415 
Q 353 922 353 1747 
Q 353 2572 751 3078 
Q 1150 3584 1784 3584 
Q 2172 3584 2448 3432 
Q 2725 3281 2906 2969 
z
M 947 1747 
Q 947 1113 1208 752 
Q 1469 391 1925 391 
Q 2381 391 2643 752 
Q 2906 1113 2906 1747 
Q 2906 2381 2643 2742 
Q 2381 3103 1925 3103 
Q 1469 3103 1208 2742 
Q 947 2381 947 1747 
z
" transform="scale(0.015625)"/>
       <path id="DejaVuSans-42" d="M 1259 2228 
L 1259 519 
L 2272 519 
Q 2781 519 3026 730 
Q 3272 941 3272 1375 
Q 3272 1813 3026 2020 
Q 2781 2228 2272 2228 
L 1259 2228 
z
M 1259 4147 
L 1259 2741 
L 2194 2741 
Q 2656 2741 2882 2914 
Q 3109 3088 3109 3444 
Q 3109 3797 2882 3972 
Q 2656 4147 2194 4147 
L 1259 4147 
z
M 628 4666 
L 2241 4666 
Q 2963 4666 3353 4366 
Q 3744 4066 3744 3513 
Q 3744 3084 3544 2831 
Q 3344 2578 2956 2516 
Q 3422 2416 3680 2098 
Q 3938 1781 3938 1306 
Q 3938 681 3513 340 
Q 3088 0 2303 0 
L 628 0 
L 628 4666 
z
" transform="scale(0.015625)"/>
      </defs>
      <use xlink:href="#DejaVuSans-47"/>
      <use xlink:href="#DejaVuSans-61" x="77.490234"/>
      <use xlink:href="#DejaVuSans-69" x="138.769531"/>
      <use xlink:href="#DejaVuSans-6e" x="166.552734"/>
      <use xlink:href="#DejaVuSans-20" x="229.931641"/>
      <use xlink:href="#DejaVuSans-45" x="261.71875"/>
      <use xlink:href="#DejaVuSans-6e" x="324.902344"/>
      <use xlink:href="#DejaVuSans-68" x="388.28125"/>
      <use xlink:href="#DejaVuSans-61" x="451.660156"/>
      <use xlink:href="#DejaVuSans-6e" x="512.939453"/>
      <use xlink:href="#DejaVuSans-63" x="576.318359"/>
      <use xlink:href="#DejaVuSans-65" x="631.298828"/>
      <use xlink:href="#DejaVuSans-6d" x="692.822266"/>
      <use xlink:href="#DejaVuSans-65" x="790.234375"/>
      <use xlink:href="#DejaVuSans-6e" x="851.757812"/>
      <use xlink:href="#DejaVuSans-74" x="915.136719"/>
      <use xlink:href="#DejaVuSans-20" x="954.345703"/>
      <use xlink:href="#DejaVuSans-28" x="986.132812"/>
      <use xlink:href="#DejaVuSans-64" x="1025.146484"/>
      <use xlink:href="#DejaVuSans-42" x="1088.623047"/>
      <use xlink:href="#DejaVuSans-29" x="1157.226562"/>
     </g>
    </g>
   </g>
   <g id="line2d_18">
    <path d="M 73.832727 131.006285 
L 77.890909 130.871855 
L 81.949091 130.425131 
L 86.007273 126.146029 
L 90.065455 128.25114 
L 94.123636 128.411874 
L 98.181818 124.166224 
L 102.24 120.472807 
L 106.298182 126.464709 
L 110.356364 122.122439 
L 114.414545 117.703736 
L 118.472727 115.554172 
L 122.530909 108.721895 
L 126.589091 104.160762 
L 130.647273 100.135559 
L 134.705455 93.641082 
L 138.763636 91.678513 
L 142.821818 88.106811 
L 146.88 87.179889 
L 150.938182 85.234072 
L 154.996364 87.804188 
L 159.054545 87.804188 
L 163.112727 86.446831 
L 167.170909 86.259149 
L 171.229091 90.465887 
L 175.287273 90.089904 
L 179.345455 93.950158 
L 183.403636 94.197482 
L 187.461818 96.123634 
L 191.52 99.589344 
L 195.578182 102.343577 
L 199.636364 103.349334 
L 203.694545 102.30692 
L 207.752727 105.885587 
L 211.810909 106.895988 
L 215.869091 109.021577 
L 219.927273 112.814508 
L 223.985455 114.76588 
L 228.043636 116.117135 
L 232.101818 116.753746 
L 236.16 120.608049 
L 240.218182 123.613206 
L 244.276364 122.529785 
L 248.334545 126.686234 
L 252.392727 130.064016 
L 256.450909 130.286178 
L 260.509091 131.509814 
L 264.567273 134.185401 
L 268.625455 136.78816 
L 272.683636 136.959173 
L 276.741818 140.163706 
L 280.8 141.153905 
L 284.858182 144.979112 
L 288.916364 146.078943 
L 292.974545 145.982432 
L 297.032727 150.041066 
L 301.090909 150.851834 
L 305.149091 152.3375 
L 309.207273 155.21284 
L 313.265455 155.327933 
L 317.323636 159.118513 
L 321.381818 161.211227 
L 325.44 162.241133 
L 329.498182 166.190424 
L 333.556364 167.885568 
L 337.614545 173.197651 
L 341.672727 173.183016 
L 345.730909 173.474254 
L 349.789091 176.994054 
L 353.847273 180.941897 
L 357.905455 182.581966 
L 361.963636 187.049713 
L 366.021818 187.964394 
L 370.08 191.439811 
L 374.138182 193.825969 
L 378.196364 196.582757 
L 382.254545 200.217151 
L 386.312727 202.069842 
L 390.370909 211.426094 
L 394.429091 211.467185 
L 398.487273 215.329914 
" clip-path="url(#p072a387ad0)" style="fill: none; stroke: #8000ff; stroke-width: 1.5; stroke-linecap: square"/>
    <defs>
     <path id="mfc600e5531" d="M 0 0.75 
C 0.198902 0.75 0.389685 0.670975 0.53033 0.53033 
C 0.670975 0.389685 0.75 0.198902 0.75 0 
C 0.75 -0.198902 0.670975 -0.389685 0.53033 -0.53033 
C 0.389685 -0.670975 0.198902 -0.75 0 -0.75 
C -0.198902 -0.75 -0.389685 -0.670975 -0.53033 -0.53033 
C -0.670975 -0.389685 -0.75 -0.198902 -0.75 0 
C -0.75 0.198902 -0.670975 0.389685 -0.53033 0.53033 
C -0.389685 0.670975 -0.198902 0.75 0 0.75 
z
" style="stroke: #8000ff"/>
    </defs>
    <g clip-path="url(#p072a387ad0)">
     <use xlink:href="#mfc600e5531" x="73.832727" y="131.006285" style="fill: #8000ff; stroke: #8000ff"/>
     <use xlink:href="#mfc600e5531" x="77.890909" y="130.871855" style="fill: #8000ff; stroke: #8000ff"/>
     <use xlink:href="#mfc600e5531" x="81.949091" y="130.425131" style="fill: #8000ff; stroke: #8000ff"/>
     <use xlink:href="#mfc600e5531" x="86.007273" y="126.146029" style="fill: #8000ff; stroke: #8000ff"/>
     <use xlink:href="#mfc600e5531" x="90.065455" y="128.25114" style="fill: #8000ff; stroke: #8000ff"/>
     <use xlink:href="#mfc600e5531" x="94.123636" y="128.411874" style="fill: #8000ff; stroke: #8000ff"/>
     <use xlink:href="#mfc600e5531" x="98.181818" y="124.166224" style="fill: #8000ff; stroke: #8000ff"/>
     <use xlink:href="#mfc600e5531" x="102.24" y="120.472807" style="fill: #8000ff; stroke: #8000ff"/>
     <use xlink:href="#mfc600e5531" x="106.298182" y="126.464709" style="fill: #8000ff; stroke: #8000ff"/>
     <use xlink:href="#mfc600e5531" x="110.356364" y="122.122439" style="fill: #8000ff; stroke: #8000ff"/>
     <use xlink:href="#mfc600e5531" x="114.414545" y="117.703736" style="fill: #8000ff; stroke: #8000ff"/>
     <use xlink:href="#mfc600e5531" x="118.472727" y="115.554172" style="fill: #8000ff; stroke: #8000ff"/>
     <use xlink:href="#mfc600e5531" x="122.530909" y="108.721895" style="fill: #8000ff; stroke: #8000ff"/>
     <use xlink:href="#mfc600e5531" x="126.589091" y="104.160762" style="fill: #8000ff; stroke: #8000ff"/>
     <use xlink:href="#mfc600e5531" x="130.647273" y="100.135559" style="fill: #8000ff; stroke: #8000ff"/>
     <use xlink:href="#mfc600e5531" x="134.705455" y="93.641082" style="fill: #8000ff; stroke: #8000ff"/>
     <use xlink:href="#mfc600e5531" x="138.763636" y="91.678513" style="fill: #8000ff; stroke: #8000ff"/>
     <use xlink:href="#mfc600e5531" x="142.821818" y="88.106811" style="fill: #8000ff; stroke: #8000ff"/>
     <use xlink:href="#mfc600e5531" x="146.88" y="87.179889" style="fill: #8000ff; stroke: #8000ff"/>
     <use xlink:href="#mfc600e5531" x="150.938182" y="85.234072" style="fill: #8000ff; stroke: #8000ff"/>
     <use xlink:href="#mfc600e5531" x="154.996364" y="87.804188" style="fill: #8000ff; stroke: #8000ff"/>
     <use xlink:href="#mfc600e5531" x="159.054545" y="87.804188" style="fill: #8000ff; stroke: #8000ff"/>
     <use xlink:href="#mfc600e5531" x="163.112727" y="86.446831" style="fill: #8000ff; stroke: #8000ff"/>
     <use xlink:href="#mfc600e5531" x="167.170909" y="86.259149" style="fill: #8000ff; stroke: #8000ff"/>
     <use xlink:href="#mfc600e5531" x="171.229091" y="90.465887" style="fill: #8000ff; stroke: #8000ff"/>
     <use xlink:href="#mfc600e5531" x="175.287273" y="90.089904" style="fill: #8000ff; stroke: #8000ff"/>
     <use xlink:href="#mfc600e5531" x="179.345455" y="93.950158" style="fill: #8000ff; stroke: #8000ff"/>
     <use xlink:href="#mfc600e5531" x="183.403636" y="94.197482" style="fill: #8000ff; stroke: #8000ff"/>
     <use xlink:href="#mfc600e5531" x="187.461818" y="96.123634" style="fill: #8000ff; stroke: #8000ff"/>
     <use xlink:href="#mfc600e5531" x="191.52" y="99.589344" style="fill: #8000ff; stroke: #8000ff"/>
     <use xlink:href="#mfc600e5531" x="195.578182" y="102.343577" style="fill: #8000ff; stroke: #8000ff"/>
     <use xlink:href="#mfc600e5531" x="199.636364" y="103.349334" style="fill: #8000ff; stroke: #8000ff"/>
     <use xlink:href="#mfc600e5531" x="203.694545" y="102.30692" style="fill: #8000ff; stroke: #8000ff"/>
     <use xlink:href="#mfc600e5531" x="207.752727" y="105.885587" style="fill: #8000ff; stroke: #8000ff"/>
     <use xlink:href="#mfc600e5531" x="211.810909" y="106.895988" style="fill: #8000ff; stroke: #8000ff"/>
     <use xlink:href="#mfc600e5531" x="215.869091" y="109.021577" style="fill: #8000ff; stroke: #8000ff"/>
     <use xlink:href="#mfc600e5531" x="219.927273" y="112.814508" style="fill: #8000ff; stroke: #8000ff"/>
     <use xlink:href="#mfc600e5531" x="223.985455" y="114.76588" style="fill: #8000ff; stroke: #8000ff"/>
     <use xlink:href="#mfc600e5531" x="228.043636" y="116.117135" style="fill: #8000ff; stroke: #8000ff"/>
     <use xlink:href="#mfc600e5531" x="232.101818" y="116.753746" style="fill: #8000ff; stroke: #8000ff"/>
     <use xlink:href="#mfc600e5531" x="236.16" y="120.608049" style="fill: #8000ff; stroke: #8000ff"/>
     <use xlink:href="#mfc600e5531" x="240.218182" y="123.613206" style="fill: #8000ff; stroke: #8000ff"/>
     <use xlink:href="#mfc600e5531" x="244.276364" y="122.529785" style="fill: #8000ff; stroke: #8000ff"/>
     <use xlink:href="#mfc600e5531" x="248.334545" y="126.686234" style="fill: #8000ff; stroke: #8000ff"/>
     <use xlink:href="#mfc600e5531" x="252.392727" y="130.064016" style="fill: #8000ff; stroke: #8000ff"/>
     <use xlink:href="#mfc600e5531" x="256.450909" y="130.286178" style="fill: #8000ff; stroke: #8000ff"/>
     <use xlink:href="#mfc600e5531" x="260.509091" y="131.509814" style="fill: #8000ff; stroke: #8000ff"/>
     <use xlink:href="#mfc600e5531" x="264.567273" y="134.185401" style="fill: #8000ff; stroke: #8000ff"/>
     <use xlink:href="#mfc600e5531" x="268.625455" y="136.78816" style="fill: #8000ff; stroke: #8000ff"/>
     <use xlink:href="#mfc600e5531" x="272.683636" y="136.959173" style="fill: #8000ff; stroke: #8000ff"/>
     <use xlink:href="#mfc600e5531" x="276.741818" y="140.163706" style="fill: #8000ff; stroke: #8000ff"/>
     <use xlink:href="#mfc600e5531" x="280.8" y="141.153905" style="fill: #8000ff; stroke: #8000ff"/>
     <use xlink:href="#mfc600e5531" x="284.858182" y="144.979112" style="fill: #8000ff; stroke: #8000ff"/>
     <use xlink:href="#mfc600e5531" x="288.916364" y="146.078943" style="fill: #8000ff; stroke: #8000ff"/>
     <use xlink:href="#mfc600e5531" x="292.974545" y="145.982432" style="fill: #8000ff; stroke: #8000ff"/>
     <use xlink:href="#mfc600e5531" x="297.032727" y="150.041066" style="fill: #8000ff; stroke: #8000ff"/>
     <use xlink:href="#mfc600e5531" x="301.090909" y="150.851834" style="fill: #8000ff; stroke: #8000ff"/>
     <use xlink:href="#mfc600e5531" x="305.149091" y="152.3375" style="fill: #8000ff; stroke: #8000ff"/>
     <use xlink:href="#mfc600e5531" x="309.207273" y="155.21284" style="fill: #8000ff; stroke: #8000ff"/>
     <use xlink:href="#mfc600e5531" x="313.265455" y="155.327933" style="fill: #8000ff; stroke: #8000ff"/>
     <use xlink:href="#mfc600e5531" x="317.323636" y="159.118513" style="fill: #8000ff; stroke: #8000ff"/>
     <use xlink:href="#mfc600e5531" x="321.381818" y="161.211227" style="fill: #8000ff; stroke: #8000ff"/>
     <use xlink:href="#mfc600e5531" x="325.44" y="162.241133" style="fill: #8000ff; stroke: #8000ff"/>
     <use xlink:href="#mfc600e5531" x="329.498182" y="166.190424" style="fill: #8000ff; stroke: #8000ff"/>
     <use xlink:href="#mfc600e5531" x="333.556364" y="167.885568" style="fill: #8000ff; stroke: #8000ff"/>
     <use xlink:href="#mfc600e5531" x="337.614545" y="173.197651" style="fill: #8000ff; stroke: #8000ff"/>
     <use xlink:href="#mfc600e5531" x="341.672727" y="173.183016" style="fill: #8000ff; stroke: #8000ff"/>
     <use xlink:href="#mfc600e5531" x="345.730909" y="173.474254" style="fill: #8000ff; stroke: #8000ff"/>
     <use xlink:href="#mfc600e5531" x="349.789091" y="176.994054" style="fill: #8000ff; stroke: #8000ff"/>
     <use xlink:href="#mfc600e5531" x="353.847273" y="180.941897" style="fill: #8000ff; stroke: #8000ff"/>
     <use xlink:href="#mfc600e5531" x="357.905455" y="182.581966" style="fill: #8000ff; stroke: #8000ff"/>
     <use xlink:href="#mfc600e5531" x="361.963636" y="187.049713" style="fill: #8000ff; stroke: #8000ff"/>
     <use xlink:href="#mfc600e5531" x="366.021818" y="187.964394" style="fill: #8000ff; stroke: #8000ff"/>
     <use xlink:href="#mfc600e5531" x="370.08" y="191.439811" style="fill: #8000ff; stroke: #8000ff"/>
     <use xlink:href="#mfc600e5531" x="374.138182" y="193.825969" style="fill: #8000ff; stroke: #8000ff"/>
     <use xlink:href="#mfc600e5531" x="378.196364" y="196.582757" style="fill: #8000ff; stroke: #8000ff"/>
     <use xlink:href="#mfc600e5531" x="382.254545" y="200.217151" style="fill: #8000ff; stroke: #8000ff"/>
     <use xlink:href="#mfc600e5531" x="386.312727" y="202.069842" style="fill: #8000ff; stroke: #8000ff"/>
     <use xlink:href="#mfc600e5531" x="390.370909" y="211.426094" style="fill: #8000ff; stroke: #8000ff"/>
     <use xlink:href="#mfc600e5531" x="394.429091" y="211.467185" style="fill: #8000ff; stroke: #8000ff"/>
     <use xlink:href="#mfc600e5531" x="398.487273" y="215.329914" style="fill: #8000ff; stroke: #8000ff"/>
    </g>
   </g>
   <g id="line2d_19">
    <path d="M 73.832727 149.507316 
L 77.890909 145.066635 
L 81.949091 144.313753 
L 86.007273 142.092599 
L 90.065455 140.074771 
L 94.123636 137.273577 
L 98.181818 135.029842 
L 102.24 136.38604 
L 106.298182 137.543146 
L 110.356364 137.128323 
L 114.414545 135.114286 
L 118.472727 137.239417 
L 122.530909 135.78111 
L 126.589091 134.329807 
L 130.647273 134.939232 
L 134.705455 133.909398 
L 138.763636 133.682232 
L 142.821818 130.807594 
L 146.88 128.022464 
L 150.938182 125.152781 
L 154.996364 122.363959 
L 159.054545 118.440269 
L 163.112727 115.79717 
L 167.170909 110.784672 
L 171.229091 108.292689 
L 175.287273 104.617065 
L 179.345455 104.516208 
L 183.403636 100.907004 
L 187.461818 98.582709 
L 191.52 97.104497 
L 195.578182 96.631369 
L 199.636364 95.151627 
L 203.694545 93.939194 
L 207.752727 94.08042 
L 211.810909 93.807821 
L 215.869091 92.216691 
L 219.927273 94.014896 
L 223.985455 91.969879 
L 228.043636 93.419178 
L 232.101818 96.111653 
L 236.16 96.946732 
L 240.218182 97.287023 
L 244.276364 97.146023 
L 248.334545 102.442118 
L 252.392727 102.828453 
L 256.450909 103.982873 
L 260.509091 103.762639 
L 264.567273 104.002392 
L 268.625455 105.145796 
L 272.683636 106.344664 
L 276.741818 105.531558 
L 280.8 107.325193 
L 284.858182 105.530933 
L 288.916364 110.629997 
L 292.974545 109.603307 
L 297.032727 108.879451 
L 301.090909 113.95957 
L 305.149091 110.785941 
L 309.207273 114.550798 
L 313.265455 115.478182 
L 317.323636 115.883565 
L 321.381818 115.790984 
L 325.44 116.819013 
L 329.498182 116.094719 
L 333.556364 119.319935 
L 337.614545 122.522489 
L 341.672727 121.779831 
L 345.730909 123.749935 
L 349.789091 124.471145 
L 353.847273 125.712413 
L 357.905455 127.008238 
L 361.963636 127.277227 
L 366.021818 131.23174 
L 370.08 133.812122 
L 374.138182 129.050033 
L 378.196364 132.426889 
L 382.254545 134.984012 
L 386.312727 135.139455 
L 390.370909 134.044525 
L 394.429091 138.387125 
L 398.487273 137.657476 
" clip-path="url(#p072a387ad0)" style="fill: none; stroke: #80ffb4; stroke-width: 1.5; stroke-linecap: square"/>
    <defs>
     <path id="m239a75e1bb" d="M 0 0.75 
C 0.198902 0.75 0.389685 0.670975 0.53033 0.53033 
C 0.670975 0.389685 0.75 0.198902 0.75 0 
C 0.75 -0.198902 0.670975 -0.389685 0.53033 -0.53033 
C 0.389685 -0.670975 0.198902 -0.75 0 -0.75 
C -0.198902 -0.75 -0.389685 -0.670975 -0.53033 -0.53033 
C -0.670975 -0.389685 -0.75 -0.198902 -0.75 0 
C -0.75 0.198902 -0.670975 0.389685 -0.53033 0.53033 
C -0.389685 0.670975 -0.198902 0.75 0 0.75 
z
" style="stroke: #80ffb4"/>
    </defs>
    <g clip-path="url(#p072a387ad0)">
     <use xlink:href="#m239a75e1bb" x="73.832727" y="149.507316" style="fill: #80ffb4; stroke: #80ffb4"/>
     <use xlink:href="#m239a75e1bb" x="77.890909" y="145.066635" style="fill: #80ffb4; stroke: #80ffb4"/>
     <use xlink:href="#m239a75e1bb" x="81.949091" y="144.313753" style="fill: #80ffb4; stroke: #80ffb4"/>
     <use xlink:href="#m239a75e1bb" x="86.007273" y="142.092599" style="fill: #80ffb4; stroke: #80ffb4"/>
     <use xlink:href="#m239a75e1bb" x="90.065455" y="140.074771" style="fill: #80ffb4; stroke: #80ffb4"/>
     <use xlink:href="#m239a75e1bb" x="94.123636" y="137.273577" style="fill: #80ffb4; stroke: #80ffb4"/>
     <use xlink:href="#m239a75e1bb" x="98.181818" y="135.029842" style="fill: #80ffb4; stroke: #80ffb4"/>
     <use xlink:href="#m239a75e1bb" x="102.24" y="136.38604" style="fill: #80ffb4; stroke: #80ffb4"/>
     <use xlink:href="#m239a75e1bb" x="106.298182" y="137.543146" style="fill: #80ffb4; stroke: #80ffb4"/>
     <use xlink:href="#m239a75e1bb" x="110.356364" y="137.128323" style="fill: #80ffb4; stroke: #80ffb4"/>
     <use xlink:href="#m239a75e1bb" x="114.414545" y="135.114286" style="fill: #80ffb4; stroke: #80ffb4"/>
     <use xlink:href="#m239a75e1bb" x="118.472727" y="137.239417" style="fill: #80ffb4; stroke: #80ffb4"/>
     <use xlink:href="#m239a75e1bb" x="122.530909" y="135.78111" style="fill: #80ffb4; stroke: #80ffb4"/>
     <use xlink:href="#m239a75e1bb" x="126.589091" y="134.329807" style="fill: #80ffb4; stroke: #80ffb4"/>
     <use xlink:href="#m239a75e1bb" x="130.647273" y="134.939232" style="fill: #80ffb4; stroke: #80ffb4"/>
     <use xlink:href="#m239a75e1bb" x="134.705455" y="133.909398" style="fill: #80ffb4; stroke: #80ffb4"/>
     <use xlink:href="#m239a75e1bb" x="138.763636" y="133.682232" style="fill: #80ffb4; stroke: #80ffb4"/>
     <use xlink:href="#m239a75e1bb" x="142.821818" y="130.807594" style="fill: #80ffb4; stroke: #80ffb4"/>
     <use xlink:href="#m239a75e1bb" x="146.88" y="128.022464" style="fill: #80ffb4; stroke: #80ffb4"/>
     <use xlink:href="#m239a75e1bb" x="150.938182" y="125.152781" style="fill: #80ffb4; stroke: #80ffb4"/>
     <use xlink:href="#m239a75e1bb" x="154.996364" y="122.363959" style="fill: #80ffb4; stroke: #80ffb4"/>
     <use xlink:href="#m239a75e1bb" x="159.054545" y="118.440269" style="fill: #80ffb4; stroke: #80ffb4"/>
     <use xlink:href="#m239a75e1bb" x="163.112727" y="115.79717" style="fill: #80ffb4; stroke: #80ffb4"/>
     <use xlink:href="#m239a75e1bb" x="167.170909" y="110.784672" style="fill: #80ffb4; stroke: #80ffb4"/>
     <use xlink:href="#m239a75e1bb" x="171.229091" y="108.292689" style="fill: #80ffb4; stroke: #80ffb4"/>
     <use xlink:href="#m239a75e1bb" x="175.287273" y="104.617065" style="fill: #80ffb4; stroke: #80ffb4"/>
     <use xlink:href="#m239a75e1bb" x="179.345455" y="104.516208" style="fill: #80ffb4; stroke: #80ffb4"/>
     <use xlink:href="#m239a75e1bb" x="183.403636" y="100.907004" style="fill: #80ffb4; stroke: #80ffb4"/>
     <use xlink:href="#m239a75e1bb" x="187.461818" y="98.582709" style="fill: #80ffb4; stroke: #80ffb4"/>
     <use xlink:href="#m239a75e1bb" x="191.52" y="97.104497" style="fill: #80ffb4; stroke: #80ffb4"/>
     <use xlink:href="#m239a75e1bb" x="195.578182" y="96.631369" style="fill: #80ffb4; stroke: #80ffb4"/>
     <use xlink:href="#m239a75e1bb" x="199.636364" y="95.151627" style="fill: #80ffb4; stroke: #80ffb4"/>
     <use xlink:href="#m239a75e1bb" x="203.694545" y="93.939194" style="fill: #80ffb4; stroke: #80ffb4"/>
     <use xlink:href="#m239a75e1bb" x="207.752727" y="94.08042" style="fill: #80ffb4; stroke: #80ffb4"/>
     <use xlink:href="#m239a75e1bb" x="211.810909" y="93.807821" style="fill: #80ffb4; stroke: #80ffb4"/>
     <use xlink:href="#m239a75e1bb" x="215.869091" y="92.216691" style="fill: #80ffb4; stroke: #80ffb4"/>
     <use xlink:href="#m239a75e1bb" x="219.927273" y="94.014896" style="fill: #80ffb4; stroke: #80ffb4"/>
     <use xlink:href="#m239a75e1bb" x="223.985455" y="91.969879" style="fill: #80ffb4; stroke: #80ffb4"/>
     <use xlink:href="#m239a75e1bb" x="228.043636" y="93.419178" style="fill: #80ffb4; stroke: #80ffb4"/>
     <use xlink:href="#m239a75e1bb" x="232.101818" y="96.111653" style="fill: #80ffb4; stroke: #80ffb4"/>
     <use xlink:href="#m239a75e1bb" x="236.16" y="96.946732" style="fill: #80ffb4; stroke: #80ffb4"/>
     <use xlink:href="#m239a75e1bb" x="240.218182" y="97.287023" style="fill: #80ffb4; stroke: #80ffb4"/>
     <use xlink:href="#m239a75e1bb" x="244.276364" y="97.146023" style="fill: #80ffb4; stroke: #80ffb4"/>
     <use xlink:href="#m239a75e1bb" x="248.334545" y="102.442118" style="fill: #80ffb4; stroke: #80ffb4"/>
     <use xlink:href="#m239a75e1bb" x="252.392727" y="102.828453" style="fill: #80ffb4; stroke: #80ffb4"/>
     <use xlink:href="#m239a75e1bb" x="256.450909" y="103.982873" style="fill: #80ffb4; stroke: #80ffb4"/>
     <use xlink:href="#m239a75e1bb" x="260.509091" y="103.762639" style="fill: #80ffb4; stroke: #80ffb4"/>
     <use xlink:href="#m239a75e1bb" x="264.567273" y="104.002392" style="fill: #80ffb4; stroke: #80ffb4"/>
     <use xlink:href="#m239a75e1bb" x="268.625455" y="105.145796" style="fill: #80ffb4; stroke: #80ffb4"/>
     <use xlink:href="#m239a75e1bb" x="272.683636" y="106.344664" style="fill: #80ffb4; stroke: #80ffb4"/>
     <use xlink:href="#m239a75e1bb" x="276.741818" y="105.531558" style="fill: #80ffb4; stroke: #80ffb4"/>
     <use xlink:href="#m239a75e1bb" x="280.8" y="107.325193" style="fill: #80ffb4; stroke: #80ffb4"/>
     <use xlink:href="#m239a75e1bb" x="284.858182" y="105.530933" style="fill: #80ffb4; stroke: #80ffb4"/>
     <use xlink:href="#m239a75e1bb" x="288.916364" y="110.629997" style="fill: #80ffb4; stroke: #80ffb4"/>
     <use xlink:href="#m239a75e1bb" x="292.974545" y="109.603307" style="fill: #80ffb4; stroke: #80ffb4"/>
     <use xlink:href="#m239a75e1bb" x="297.032727" y="108.879451" style="fill: #80ffb4; stroke: #80ffb4"/>
     <use xlink:href="#m239a75e1bb" x="301.090909" y="113.95957" style="fill: #80ffb4; stroke: #80ffb4"/>
     <use xlink:href="#m239a75e1bb" x="305.149091" y="110.785941" style="fill: #80ffb4; stroke: #80ffb4"/>
     <use xlink:href="#m239a75e1bb" x="309.207273" y="114.550798" style="fill: #80ffb4; stroke: #80ffb4"/>
     <use xlink:href="#m239a75e1bb" x="313.265455" y="115.478182" style="fill: #80ffb4; stroke: #80ffb4"/>
     <use xlink:href="#m239a75e1bb" x="317.323636" y="115.883565" style="fill: #80ffb4; stroke: #80ffb4"/>
     <use xlink:href="#m239a75e1bb" x="321.381818" y="115.790984" style="fill: #80ffb4; stroke: #80ffb4"/>
     <use xlink:href="#m239a75e1bb" x="325.44" y="116.819013" style="fill: #80ffb4; stroke: #80ffb4"/>
     <use xlink:href="#m239a75e1bb" x="329.498182" y="116.094719" style="fill: #80ffb4; stroke: #80ffb4"/>
     <use xlink:href="#m239a75e1bb" x="333.556364" y="119.319935" style="fill: #80ffb4; stroke: #80ffb4"/>
     <use xlink:href="#m239a75e1bb" x="337.614545" y="122.522489" style="fill: #80ffb4; stroke: #80ffb4"/>
     <use xlink:href="#m239a75e1bb" x="341.672727" y="121.779831" style="fill: #80ffb4; stroke: #80ffb4"/>
     <use xlink:href="#m239a75e1bb" x="345.730909" y="123.749935" style="fill: #80ffb4; stroke: #80ffb4"/>
     <use xlink:href="#m239a75e1bb" x="349.789091" y="124.471145" style="fill: #80ffb4; stroke: #80ffb4"/>
     <use xlink:href="#m239a75e1bb" x="353.847273" y="125.712413" style="fill: #80ffb4; stroke: #80ffb4"/>
     <use xlink:href="#m239a75e1bb" x="357.905455" y="127.008238" style="fill: #80ffb4; stroke: #80ffb4"/>
     <use xlink:href="#m239a75e1bb" x="361.963636" y="127.277227" style="fill: #80ffb4; stroke: #80ffb4"/>
     <use xlink:href="#m239a75e1bb" x="366.021818" y="131.23174" style="fill: #80ffb4; stroke: #80ffb4"/>
     <use xlink:href="#m239a75e1bb" x="370.08" y="133.812122" style="fill: #80ffb4; stroke: #80ffb4"/>
     <use xlink:href="#m239a75e1bb" x="374.138182" y="129.050033" style="fill: #80ffb4; stroke: #80ffb4"/>
     <use xlink:href="#m239a75e1bb" x="378.196364" y="132.426889" style="fill: #80ffb4; stroke: #80ffb4"/>
     <use xlink:href="#m239a75e1bb" x="382.254545" y="134.984012" style="fill: #80ffb4; stroke: #80ffb4"/>
     <use xlink:href="#m239a75e1bb" x="386.312727" y="135.139455" style="fill: #80ffb4; stroke: #80ffb4"/>
     <use xlink:href="#m239a75e1bb" x="390.370909" y="134.044525" style="fill: #80ffb4; stroke: #80ffb4"/>
     <use xlink:href="#m239a75e1bb" x="394.429091" y="138.387125" style="fill: #80ffb4; stroke: #80ffb4"/>
     <use xlink:href="#m239a75e1bb" x="398.487273" y="137.657476" style="fill: #80ffb4; stroke: #80ffb4"/>
    </g>
   </g>
   <g id="line2d_20">
    <path d="M 73.832727 126.501634 
L 77.890909 123.773045 
L 81.949091 117.063033 
L 86.007273 110.411864 
L 90.065455 108.188587 
L 94.123636 108.208795 
L 98.181818 102.918844 
L 102.24 101.096942 
L 106.298182 107.929314 
L 110.356364 99.375822 
L 114.414545 98.521829 
L 118.472727 100.859497 
L 122.530909 100.550634 
L 126.589091 100.722921 
L 130.647273 102.052696 
L 134.705455 98.656482 
L 138.763636 100.297688 
L 142.821818 102.901647 
L 146.88 102.916176 
L 150.938182 106.767988 
L 154.996364 111.309346 
L 159.054545 111.217438 
L 163.112727 115.710775 
L 167.170909 121.168023 
L 171.229091 125.350729 
L 175.287273 131.693938 
L 179.345455 133.699261 
L 183.403636 142.970372 
L 187.461818 145.07101 
L 191.52 153.028703 
L 195.578182 159.084008 
L 199.636364 158.053992 
L 203.694545 167.911599 
L 207.752727 177.019007 
L 211.810909 176.618138 
L 215.869091 185.04765 
L 219.927273 183.421059 
L 223.985455 189.558801 
L 228.043636 203.225252 
L 232.101818 197.389101 
L 236.16 206.073352 
L 240.218182 201.599742 
L 244.276364 202.157236 
L 248.334545 207.646724 
L 252.392727 205.831111 
L 256.450909 203.314851 
L 260.509091 207.550537 
L 264.567273 206.206553 
L 268.625455 204.659075 
L 272.683636 206.820184 
L 276.741818 205.883886 
L 280.8 211.091816 
L 284.858182 216.902481 
L 288.916364 207.527522 
L 292.974545 209.985523 
L 297.032727 204.476164 
L 301.090909 212.267782 
L 305.149091 208.593819 
L 309.207273 207.673613 
L 313.265455 211.134455 
L 317.323636 210.730983 
L 321.381818 209.325669 
L 325.44 215.770791 
L 329.498182 208.305929 
L 333.556364 208.649239 
L 337.614545 208.460147 
L 341.672727 210.386633 
L 345.730909 205.603984 
L 349.789091 210.348628 
L 353.847273 218.10597 
L 357.905455 212.050784 
L 361.963636 209.681591 
L 366.021818 212.467945 
L 370.08 209.15089 
L 374.138182 216.291426 
L 378.196364 214.297104 
L 382.254545 212.872658 
L 386.312727 219.133459 
L 390.370909 221.968514 
L 394.429091 222.352994 
L 398.487273 222.594822 
" clip-path="url(#p072a387ad0)" style="fill: none; stroke: #ff0000; stroke-width: 1.5; stroke-linecap: square"/>
    <defs>
     <path id="m594d3418eb" d="M 0 0.75 
C 0.198902 0.75 0.389685 0.670975 0.53033 0.53033 
C 0.670975 0.389685 0.75 0.198902 0.75 0 
C 0.75 -0.198902 0.670975 -0.389685 0.53033 -0.53033 
C 0.389685 -0.670975 0.198902 -0.75 0 -0.75 
C -0.198902 -0.75 -0.389685 -0.670975 -0.53033 -0.53033 
C -0.670975 -0.389685 -0.75 -0.198902 -0.75 0 
C -0.75 0.198902 -0.670975 0.389685 -0.53033 0.53033 
C -0.389685 0.670975 -0.198902 0.75 0 0.75 
z
" style="stroke: #ff0000"/>
    </defs>
    <g clip-path="url(#p072a387ad0)">
     <use xlink:href="#m594d3418eb" x="73.832727" y="126.501634" style="fill: #ff0000; stroke: #ff0000"/>
     <use xlink:href="#m594d3418eb" x="77.890909" y="123.773045" style="fill: #ff0000; stroke: #ff0000"/>
     <use xlink:href="#m594d3418eb" x="81.949091" y="117.063033" style="fill: #ff0000; stroke: #ff0000"/>
     <use xlink:href="#m594d3418eb" x="86.007273" y="110.411864" style="fill: #ff0000; stroke: #ff0000"/>
     <use xlink:href="#m594d3418eb" x="90.065455" y="108.188587" style="fill: #ff0000; stroke: #ff0000"/>
     <use xlink:href="#m594d3418eb" x="94.123636" y="108.208795" style="fill: #ff0000; stroke: #ff0000"/>
     <use xlink:href="#m594d3418eb" x="98.181818" y="102.918844" style="fill: #ff0000; stroke: #ff0000"/>
     <use xlink:href="#m594d3418eb" x="102.24" y="101.096942" style="fill: #ff0000; stroke: #ff0000"/>
     <use xlink:href="#m594d3418eb" x="106.298182" y="107.929314" style="fill: #ff0000; stroke: #ff0000"/>
     <use xlink:href="#m594d3418eb" x="110.356364" y="99.375822" style="fill: #ff0000; stroke: #ff0000"/>
     <use xlink:href="#m594d3418eb" x="114.414545" y="98.521829" style="fill: #ff0000; stroke: #ff0000"/>
     <use xlink:href="#m594d3418eb" x="118.472727" y="100.859497" style="fill: #ff0000; stroke: #ff0000"/>
     <use xlink:href="#m594d3418eb" x="122.530909" y="100.550634" style="fill: #ff0000; stroke: #ff0000"/>
     <use xlink:href="#m594d3418eb" x="126.589091" y="100.722921" style="fill: #ff0000; stroke: #ff0000"/>
     <use xlink:href="#m594d3418eb" x="130.647273" y="102.052696" style="fill: #ff0000; stroke: #ff0000"/>
     <use xlink:href="#m594d3418eb" x="134.705455" y="98.656482" style="fill: #ff0000; stroke: #ff0000"/>
     <use xlink:href="#m594d3418eb" x="138.763636" y="100.297688" style="fill: #ff0000; stroke: #ff0000"/>
     <use xlink:href="#m594d3418eb" x="142.821818" y="102.901647" style="fill: #ff0000; stroke: #ff0000"/>
     <use xlink:href="#m594d3418eb" x="146.88" y="102.916176" style="fill: #ff0000; stroke: #ff0000"/>
     <use xlink:href="#m594d3418eb" x="150.938182" y="106.767988" style="fill: #ff0000; stroke: #ff0000"/>
     <use xlink:href="#m594d3418eb" x="154.996364" y="111.309346" style="fill: #ff0000; stroke: #ff0000"/>
     <use xlink:href="#m594d3418eb" x="159.054545" y="111.217438" style="fill: #ff0000; stroke: #ff0000"/>
     <use xlink:href="#m594d3418eb" x="163.112727" y="115.710775" style="fill: #ff0000; stroke: #ff0000"/>
     <use xlink:href="#m594d3418eb" x="167.170909" y="121.168023" style="fill: #ff0000; stroke: #ff0000"/>
     <use xlink:href="#m594d3418eb" x="171.229091" y="125.350729" style="fill: #ff0000; stroke: #ff0000"/>
     <use xlink:href="#m594d3418eb" x="175.287273" y="131.693938" style="fill: #ff0000; stroke: #ff0000"/>
     <use xlink:href="#m594d3418eb" x="179.345455" y="133.699261" style="fill: #ff0000; stroke: #ff0000"/>
     <use xlink:href="#m594d3418eb" x="183.403636" y="142.970372" style="fill: #ff0000; stroke: #ff0000"/>
     <use xlink:href="#m594d3418eb" x="187.461818" y="145.07101" style="fill: #ff0000; stroke: #ff0000"/>
     <use xlink:href="#m594d3418eb" x="191.52" y="153.028703" style="fill: #ff0000; stroke: #ff0000"/>
     <use xlink:href="#m594d3418eb" x="195.578182" y="159.084008" style="fill: #ff0000; stroke: #ff0000"/>
     <use xlink:href="#m594d3418eb" x="199.636364" y="158.053992" style="fill: #ff0000; stroke: #ff0000"/>
     <use xlink:href="#m594d3418eb" x="203.694545" y="167.911599" style="fill: #ff0000; stroke: #ff0000"/>
     <use xlink:href="#m594d3418eb" x="207.752727" y="177.019007" style="fill: #ff0000; stroke: #ff0000"/>
     <use xlink:href="#m594d3418eb" x="211.810909" y="176.618138" style="fill: #ff0000; stroke: #ff0000"/>
     <use xlink:href="#m594d3418eb" x="215.869091" y="185.04765" style="fill: #ff0000; stroke: #ff0000"/>
     <use xlink:href="#m594d3418eb" x="219.927273" y="183.421059" style="fill: #ff0000; stroke: #ff0000"/>
     <use xlink:href="#m594d3418eb" x="223.985455" y="189.558801" style="fill: #ff0000; stroke: #ff0000"/>
     <use xlink:href="#m594d3418eb" x="228.043636" y="203.225252" style="fill: #ff0000; stroke: #ff0000"/>
     <use xlink:href="#m594d3418eb" x="232.101818" y="197.389101" style="fill: #ff0000; stroke: #ff0000"/>
     <use xlink:href="#m594d3418eb" x="236.16" y="206.073352" style="fill: #ff0000; stroke: #ff0000"/>
     <use xlink:href="#m594d3418eb" x="240.218182" y="201.599742" style="fill: #ff0000; stroke: #ff0000"/>
     <use xlink:href="#m594d3418eb" x="244.276364" y="202.157236" style="fill: #ff0000; stroke: #ff0000"/>
     <use xlink:href="#m594d3418eb" x="248.334545" y="207.646724" style="fill: #ff0000; stroke: #ff0000"/>
     <use xlink:href="#m594d3418eb" x="252.392727" y="205.831111" style="fill: #ff0000; stroke: #ff0000"/>
     <use xlink:href="#m594d3418eb" x="256.450909" y="203.314851" style="fill: #ff0000; stroke: #ff0000"/>
     <use xlink:href="#m594d3418eb" x="260.509091" y="207.550537" style="fill: #ff0000; stroke: #ff0000"/>
     <use xlink:href="#m594d3418eb" x="264.567273" y="206.206553" style="fill: #ff0000; stroke: #ff0000"/>
     <use xlink:href="#m594d3418eb" x="268.625455" y="204.659075" style="fill: #ff0000; stroke: #ff0000"/>
     <use xlink:href="#m594d3418eb" x="272.683636" y="206.820184" style="fill: #ff0000; stroke: #ff0000"/>
     <use xlink:href="#m594d3418eb" x="276.741818" y="205.883886" style="fill: #ff0000; stroke: #ff0000"/>
     <use xlink:href="#m594d3418eb" x="280.8" y="211.091816" style="fill: #ff0000; stroke: #ff0000"/>
     <use xlink:href="#m594d3418eb" x="284.858182" y="216.902481" style="fill: #ff0000; stroke: #ff0000"/>
     <use xlink:href="#m594d3418eb" x="288.916364" y="207.527522" style="fill: #ff0000; stroke: #ff0000"/>
     <use xlink:href="#m594d3418eb" x="292.974545" y="209.985523" style="fill: #ff0000; stroke: #ff0000"/>
     <use xlink:href="#m594d3418eb" x="297.032727" y="204.476164" style="fill: #ff0000; stroke: #ff0000"/>
     <use xlink:href="#m594d3418eb" x="301.090909" y="212.267782" style="fill: #ff0000; stroke: #ff0000"/>
     <use xlink:href="#m594d3418eb" x="305.149091" y="208.593819" style="fill: #ff0000; stroke: #ff0000"/>
     <use xlink:href="#m594d3418eb" x="309.207273" y="207.673613" style="fill: #ff0000; stroke: #ff0000"/>
     <use xlink:href="#m594d3418eb" x="313.265455" y="211.134455" style="fill: #ff0000; stroke: #ff0000"/>
     <use xlink:href="#m594d3418eb" x="317.323636" y="210.730983" style="fill: #ff0000; stroke: #ff0000"/>
     <use xlink:href="#m594d3418eb" x="321.381818" y="209.325669" style="fill: #ff0000; stroke: #ff0000"/>
     <use xlink:href="#m594d3418eb" x="325.44" y="215.770791" style="fill: #ff0000; stroke: #ff0000"/>
     <use xlink:href="#m594d3418eb" x="329.498182" y="208.305929" style="fill: #ff0000; stroke: #ff0000"/>
     <use xlink:href="#m594d3418eb" x="333.556364" y="208.649239" style="fill: #ff0000; stroke: #ff0000"/>
     <use xlink:href="#m594d3418eb" x="337.614545" y="208.460147" style="fill: #ff0000; stroke: #ff0000"/>
     <use xlink:href="#m594d3418eb" x="341.672727" y="210.386633" style="fill: #ff0000; stroke: #ff0000"/>
     <use xlink:href="#m594d3418eb" x="345.730909" y="205.603984" style="fill: #ff0000; stroke: #ff0000"/>
     <use xlink:href="#m594d3418eb" x="349.789091" y="210.348628" style="fill: #ff0000; stroke: #ff0000"/>
     <use xlink:href="#m594d3418eb" x="353.847273" y="218.10597" style="fill: #ff0000; stroke: #ff0000"/>
     <use xlink:href="#m594d3418eb" x="357.905455" y="212.050784" style="fill: #ff0000; stroke: #ff0000"/>
     <use xlink:href="#m594d3418eb" x="361.963636" y="209.681591" style="fill: #ff0000; stroke: #ff0000"/>
     <use xlink:href="#m594d3418eb" x="366.021818" y="212.467945" style="fill: #ff0000; stroke: #ff0000"/>
     <use xlink:href="#m594d3418eb" x="370.08" y="209.15089" style="fill: #ff0000; stroke: #ff0000"/>
     <use xlink:href="#m594d3418eb" x="374.138182" y="216.291426" style="fill: #ff0000; stroke: #ff0000"/>
     <use xlink:href="#m594d3418eb" x="378.196364" y="214.297104" style="fill: #ff0000; stroke: #ff0000"/>
     <use xlink:href="#m594d3418eb" x="382.254545" y="212.872658" style="fill: #ff0000; stroke: #ff0000"/>
     <use xlink:href="#m594d3418eb" x="386.312727" y="219.133459" style="fill: #ff0000; stroke: #ff0000"/>
     <use xlink:href="#m594d3418eb" x="390.370909" y="221.968514" style="fill: #ff0000; stroke: #ff0000"/>
     <use xlink:href="#m594d3418eb" x="394.429091" y="222.352994" style="fill: #ff0000; stroke: #ff0000"/>
     <use xlink:href="#m594d3418eb" x="398.487273" y="222.594822" style="fill: #ff0000; stroke: #ff0000"/>
    </g>
   </g>
   <g id="patch_3">
    <path d="M 57.6 307.584 
L 57.6 41.472 
" style="fill: none; stroke: #000000; stroke-width: 0.8; stroke-linejoin: miter; stroke-linecap: square"/>
   </g>
   <g id="patch_4">
    <path d="M 414.72 307.584 
L 414.72 41.472 
" style="fill: none; stroke: #000000; stroke-width: 0.8; stroke-linejoin: miter; stroke-linecap: square"/>
   </g>
   <g id="patch_5">
    <path d="M 57.6 307.584 
L 414.72 307.584 
" style="fill: none; stroke: #000000; stroke-width: 0.8; stroke-linejoin: miter; stroke-linecap: square"/>
   </g>
   <g id="patch_6">
    <path d="M 57.6 41.472 
L 414.72 41.472 
" style="fill: none; stroke: #000000; stroke-width: 0.8; stroke-linejoin: miter; stroke-linecap: square"/>
   </g>
   <g id="legend_1">
    <g id="patch_7">
     <path d="M 323.493438 93.506375 
L 407.72 93.506375 
Q 409.72 93.506375 409.72 91.506375 
L 409.72 48.472 
Q 409.72 46.472 407.72 46.472 
L 323.493438 46.472 
Q 321.493438 46.472 321.493438 48.472 
L 321.493438 91.506375 
Q 321.493438 93.506375 323.493438 93.506375 
z
" style="fill: #ffffff; opacity: 0.8; stroke: #cccccc; stroke-linejoin: miter"/>
    </g>
    <g id="patch_8">
     <path d="M 325.493438 58.070438 
L 345.493438 58.070438 
L 345.493438 51.070438 
L 325.493438 51.070438 
z
" style="fill: #8000ff; stroke: #8000ff; stroke-linejoin: miter"/>
    </g>
    <g id="text_20">
     <!-- d = 10 cm -->
     <g transform="translate(353.493438 58.070438)scale(0.1 -0.1)">
      <defs>
       <path id="DejaVuSans-3d" d="M 678 2906 
L 4684 2906 
L 4684 2381 
L 678 2381 
L 678 2906 
z
M 678 1631 
L 4684 1631 
L 4684 1100 
L 678 1100 
L 678 1631 
z
" transform="scale(0.015625)"/>
      </defs>
      <use xlink:href="#DejaVuSans-64"/>
      <use xlink:href="#DejaVuSans-20" x="63.476562"/>
      <use xlink:href="#DejaVuSans-3d" x="95.263672"/>
      <use xlink:href="#DejaVuSans-20" x="179.052734"/>
      <use xlink:href="#DejaVuSans-31" x="210.839844"/>
      <use xlink:href="#DejaVuSans-30" x="274.462891"/>
      <use xlink:href="#DejaVuSans-20" x="338.085938"/>
      <use xlink:href="#DejaVuSans-63" x="369.873047"/>
      <use xlink:href="#DejaVuSans-6d" x="424.853516"/>
     </g>
    </g>
    <g id="patch_9">
     <path d="M 325.493438 72.748563 
L 345.493438 72.748563 
L 345.493438 65.748563 
L 325.493438 65.748563 
z
" style="fill: #80ffb4; stroke: #80ffb4; stroke-linejoin: miter"/>
    </g>
    <g id="text_21">
     <!-- d = 6 cm -->
     <g transform="translate(353.493438 72.748563)scale(0.1 -0.1)">
      <use xlink:href="#DejaVuSans-64"/>
      <use xlink:href="#DejaVuSans-20" x="63.476562"/>
      <use xlink:href="#DejaVuSans-3d" x="95.263672"/>
      <use xlink:href="#DejaVuSans-20" x="179.052734"/>
      <use xlink:href="#DejaVuSans-36" x="210.839844"/>
      <use xlink:href="#DejaVuSans-20" x="274.462891"/>
      <use xlink:href="#DejaVuSans-63" x="306.25"/>
      <use xlink:href="#DejaVuSans-6d" x="361.230469"/>
     </g>
    </g>
    <g id="patch_10">
     <path d="M 325.493438 87.426688 
L 345.493438 87.426688 
L 345.493438 80.426688 
L 325.493438 80.426688 
z
" style="fill: #ff0000; stroke: #ff0000; stroke-linejoin: miter"/>
    </g>
    <g id="text_22">
     <!-- d = 14 cm -->
     <g transform="translate(353.493438 87.426688)scale(0.1 -0.1)">
      <use xlink:href="#DejaVuSans-64"/>
      <use xlink:href="#DejaVuSans-20" x="63.476562"/>
      <use xlink:href="#DejaVuSans-3d" x="95.263672"/>
      <use xlink:href="#DejaVuSans-20" x="179.052734"/>
      <use xlink:href="#DejaVuSans-31" x="210.839844"/>
      <use xlink:href="#DejaVuSans-34" x="274.462891"/>
      <use xlink:href="#DejaVuSans-20" x="338.085938"/>
      <use xlink:href="#DejaVuSans-63" x="369.873047"/>
      <use xlink:href="#DejaVuSans-6d" x="424.853516"/>
     </g>
    </g>
   </g>
  </g>
 </g>
 <defs>
  <clipPath id="p072a387ad0">
   <rect x="57.6" y="41.472" width="357.12" height="266.112"/>
  </clipPath>
 </defs>
</svg>
