<?xml version="1.0" encoding="utf-8" standalone="no"?>
<!DOCTYPE svg PUBLIC "-//W3C//DTD SVG 1.1//EN"
  "http://www.w3.org/Graphics/SVG/1.1/DTD/svg11.dtd">
<svg xmlns:xlink="http://www.w3.org/1999/xlink" width="460.8pt" height="345.6pt" viewBox="0 0 460.8 345.6" xmlns="http://www.w3.org/2000/svg" version="1.1">
 <metadata>
  <rdf:RDF xmlns:dc="http://purl.org/dc/elements/1.1/" xmlns:cc="http://creativecommons.org/ns#" xmlns:rdf="http://www.w3.org/1999/02/22-rdf-syntax-ns#">
   <cc:Work>
    <dc:type rdf:resource="http://purl.org/dc/dcmitype/StillImage"/>
    <dc:date>2023-08-30T15:25:02.859313</dc:date>
    <dc:format>image/svg+xml</dc:format>
    <dc:creator>
     <cc:Agent>
      <dc:title>Matplotlib v3.5.3, https://matplotlib.org/</dc:title>
     </cc:Agent>
    </dc:creator>
   </cc:Work>
  </rdf:RDF>
 </metadata>
 <defs>
  <style type="text/css">*{stroke-linejoin: round; stroke-linecap: butt}</style>
 </defs>
 <g id="figure_1">
  <g id="patch_1">
   <path d="M 0 345.6 
L 460.8 345.6 
L 460.8 0 
L 0 0 
z
" style="fill: #ffffff"/>
  </g>
  <g id="axes_1">
   <g id="patch_2">
    <path d="M 222.522472 124.181085 
C 202.331363 112.523743 179.422483 106.385327 156.107799 106.385327 
C 132.793115 106.385327 109.884235 112.523743 89.693126 124.181085 
L 156.107799 239.214673 
C 156.107799 239.214673 156.107799 239.214673 156.107799 239.214673 
C 156.107799 239.214673 156.107799 239.214673 156.107799 239.214673 
L 222.522472 124.181085 
z
" style="fill: #ffffff"/>
   </g>
   <g id="matplotlib.axis_1">
    <g id="xtick_1">
     <g id="line2d_1">
      <path d="M 156.107799 239.214673 
L 222.522472 124.181085 
" clip-path="url(#p5f5e0655b4)" style="fill: none; stroke: #b0b0b0; stroke-width: 0.8; stroke-linecap: square"/>
     </g>
     <g id="text_1">
      <!-- -30° -->
      <g transform="translate(218.856066 114.816104)scale(0.1 -0.1)">
       <defs>
        <path id="DejaVuSans-2d" d="M 313 2009 
L 1997 2009 
L 1997 1497 
L 313 1497 
L 313 2009 
z
" transform="scale(0.015625)"/>
        <path id="DejaVuSans-33" d="M 2597 2516 
Q 3050 2419 3304 2112 
Q 3559 1806 3559 1356 
Q 3559 666 3084 287 
Q 2609 -91 1734 -91 
Q 1441 -91 1130 -33 
Q 819 25 488 141 
L 488 750 
Q 750 597 1062 519 
Q 1375 441 1716 441 
Q 2309 441 2620 675 
Q 2931 909 2931 1356 
Q 2931 1769 2642 2001 
Q 2353 2234 1838 2234 
L 1294 2234 
L 1294 2753 
L 1863 2753 
Q 2328 2753 2575 2939 
Q 2822 3125 2822 3475 
Q 2822 3834 2567 4026 
Q 2313 4219 1838 4219 
Q 1578 4219 1281 4162 
Q 984 4106 628 3988 
L 628 4550 
Q 988 4650 1302 4700 
Q 1616 4750 1894 4750 
Q 2613 4750 3031 4423 
Q 3450 4097 3450 3541 
Q 3450 3153 3228 2886 
Q 3006 2619 2597 2516 
z
" transform="scale(0.015625)"/>
        <path id="DejaVuSans-30" d="M 2034 4250 
Q 1547 4250 1301 3770 
Q 1056 3291 1056 2328 
Q 1056 1369 1301 889 
Q 1547 409 2034 409 
Q 2525 409 2770 889 
Q 3016 1369 3016 2328 
Q 3016 3291 2770 3770 
Q 2525 4250 2034 4250 
z
M 2034 4750 
Q 2819 4750 3233 4129 
Q 3647 3509 3647 2328 
Q 3647 1150 3233 529 
Q 2819 -91 2034 -91 
Q 1250 -91 836 529 
Q 422 1150 422 2328 
Q 422 3509 836 4129 
Q 1250 4750 2034 4750 
z
" transform="scale(0.015625)"/>
        <path id="DejaVuSans-b0" d="M 1600 4347 
Q 1350 4347 1178 4173 
Q 1006 4000 1006 3750 
Q 1006 3503 1178 3333 
Q 1350 3163 1600 3163 
Q 1850 3163 2022 3333 
Q 2194 3503 2194 3750 
Q 2194 3997 2020 4172 
Q 1847 4347 1600 4347 
z
M 1600 4750 
Q 1800 4750 1984 4673 
Q 2169 4597 2303 4453 
Q 2447 4313 2519 4134 
Q 2591 3956 2591 3750 
Q 2591 3338 2302 3052 
Q 2013 2766 1594 2766 
Q 1172 2766 890 3047 
Q 609 3328 609 3750 
Q 609 4169 896 4459 
Q 1184 4750 1600 4750 
z
" transform="scale(0.015625)"/>
       </defs>
       <use xlink:href="#DejaVuSans-2d"/>
       <use xlink:href="#DejaVuSans-33" x="36.083984"/>
       <use xlink:href="#DejaVuSans-30" x="99.707031"/>
       <use xlink:href="#DejaVuSans-b0" x="163.330078"/>
      </g>
     </g>
    </g>
    <g id="xtick_2">
     <g id="line2d_2">
      <path d="M 156.107799 239.214673 
L 190.486564 110.911377 
" clip-path="url(#p5f5e0655b4)" style="fill: none; stroke: #b0b0b0; stroke-width: 0.8; stroke-linecap: square"/>
     </g>
     <g id="text_2">
      <!-- -15° -->
      <g transform="translate(183.443624 100.147791)scale(0.1 -0.1)">
       <defs>
        <path id="DejaVuSans-31" d="M 794 531 
L 1825 531 
L 1825 4091 
L 703 3866 
L 703 4441 
L 1819 4666 
L 2450 4666 
L 2450 531 
L 3481 531 
L 3481 0 
L 794 0 
L 794 531 
z
" transform="scale(0.015625)"/>
        <path id="DejaVuSans-35" d="M 691 4666 
L 3169 4666 
L 3169 4134 
L 1269 4134 
L 1269 2991 
Q 1406 3038 1543 3061 
Q 1681 3084 1819 3084 
Q 2600 3084 3056 2656 
Q 3513 2228 3513 1497 
Q 3513 744 3044 326 
Q 2575 -91 1722 -91 
Q 1428 -91 1123 -41 
Q 819 9 494 109 
L 494 744 
Q 775 591 1075 516 
Q 1375 441 1709 441 
Q 2250 441 2565 725 
Q 2881 1009 2881 1497 
Q 2881 1984 2565 2268 
Q 2250 2553 1709 2553 
Q 1456 2553 1204 2497 
Q 953 2441 691 2322 
L 691 4666 
z
" transform="scale(0.015625)"/>
       </defs>
       <use xlink:href="#DejaVuSans-2d"/>
       <use xlink:href="#DejaVuSans-31" x="36.083984"/>
       <use xlink:href="#DejaVuSans-35" x="99.707031"/>
       <use xlink:href="#DejaVuSans-b0" x="163.330078"/>
      </g>
     </g>
    </g>
    <g id="xtick_3">
     <g id="line2d_3">
      <path d="M 156.107799 239.214673 
L 156.107799 106.385327 
" clip-path="url(#p5f5e0655b4)" style="fill: none; stroke: #b0b0b0; stroke-width: 0.8; stroke-linecap: square"/>
     </g>
     <g id="text_3">
      <!-- 0° -->
      <g transform="translate(150.426549 95.144702)scale(0.1 -0.1)">
       <use xlink:href="#DejaVuSans-30"/>
       <use xlink:href="#DejaVuSans-b0" x="63.623047"/>
      </g>
     </g>
    </g>
    <g id="xtick_4">
     <g id="line2d_4">
      <path d="M 156.107799 239.214673 
L 121.729035 110.911377 
" clip-path="url(#p5f5e0655b4)" style="fill: none; stroke: #b0b0b0; stroke-width: 0.8; stroke-linecap: square"/>
     </g>
     <g id="text_4">
      <!-- 15° -->
      <g transform="translate(109.243068 100.147791)scale(0.1 -0.1)">
       <use xlink:href="#DejaVuSans-31"/>
       <use xlink:href="#DejaVuSans-35" x="63.623047"/>
       <use xlink:href="#DejaVuSans-b0" x="127.246094"/>
      </g>
     </g>
    </g>
    <g id="xtick_5">
     <g id="line2d_5">
      <path d="M 156.107799 239.214673 
L 89.693126 124.181085 
" clip-path="url(#p5f5e0655b4)" style="fill: none; stroke: #b0b0b0; stroke-width: 0.8; stroke-linecap: square"/>
     </g>
     <g id="text_5">
      <!-- 30° -->
      <g transform="translate(73.830626 114.816104)scale(0.1 -0.1)">
       <use xlink:href="#DejaVuSans-33"/>
       <use xlink:href="#DejaVuSans-30" x="63.623047"/>
       <use xlink:href="#DejaVuSans-b0" x="127.246094"/>
      </g>
     </g>
    </g>
   </g>
   <g id="matplotlib.axis_2">
    <g id="ytick_1">
     <g id="line2d_6">
      <path d="M 166.715864 220.840965 
C 163.490845 218.978999 159.831731 217.998542 156.107799 217.998542 
C 152.383868 217.998542 148.724753 218.978999 145.499734 220.840965 
" clip-path="url(#p5f5e0655b4)" style="fill: none; stroke: #b0b0b0; stroke-width: 0.8; stroke-linecap: square"/>
     </g>
     <g id="text_6">
      <!-- −75 -->
      <g transform="translate(118.332868 231.939402)scale(0.1 -0.1)">
       <defs>
        <path id="DejaVuSans-2212" d="M 678 2272 
L 4684 2272 
L 4684 1741 
L 678 1741 
L 678 2272 
z
" transform="scale(0.015625)"/>
        <path id="DejaVuSans-37" d="M 525 4666 
L 3525 4666 
L 3525 4397 
L 1831 0 
L 1172 0 
L 2766 4134 
L 525 4134 
L 525 4666 
z
" transform="scale(0.015625)"/>
       </defs>
       <use xlink:href="#DejaVuSans-2212"/>
       <use xlink:href="#DejaVuSans-37" x="83.789062"/>
       <use xlink:href="#DejaVuSans-35" x="147.412109"/>
      </g>
     </g>
    </g>
    <g id="ytick_2">
     <g id="line2d_7">
      <path d="M 177.888965 201.488588 
C 171.267147 197.665479 163.754016 195.652342 156.107799 195.652342 
C 148.461582 195.652342 140.948452 197.665479 134.326633 201.488588 
" clip-path="url(#p5f5e0655b4)" style="fill: none; stroke: #b0b0b0; stroke-width: 0.8; stroke-linecap: square"/>
     </g>
     <g id="text_7">
      <!-- −70 -->
      <g transform="translate(107.159768 212.587025)scale(0.1 -0.1)">
       <use xlink:href="#DejaVuSans-2212"/>
       <use xlink:href="#DejaVuSans-37" x="83.789062"/>
       <use xlink:href="#DejaVuSans-30" x="147.412109"/>
      </g>
     </g>
    </g>
    <g id="ytick_3">
     <g id="line2d_8">
      <path d="M 189.062065 182.13621 
C 179.043448 176.351959 167.676301 173.306141 156.107799 173.306141 
C 144.539297 173.306141 133.17215 176.351959 123.153533 182.13621 
" clip-path="url(#p5f5e0655b4)" style="fill: none; stroke: #b0b0b0; stroke-width: 0.8; stroke-linecap: square"/>
     </g>
     <g id="text_8">
      <!-- −65 -->
      <g transform="translate(95.986668 193.234648)scale(0.1 -0.1)">
       <defs>
        <path id="DejaVuSans-36" d="M 2113 2584 
Q 1688 2584 1439 2293 
Q 1191 2003 1191 1497 
Q 1191 994 1439 701 
Q 1688 409 2113 409 
Q 2538 409 2786 701 
Q 3034 994 3034 1497 
Q 3034 2003 2786 2293 
Q 2538 2584 2113 2584 
z
M 3366 4563 
L 3366 3988 
Q 3128 4100 2886 4159 
Q 2644 4219 2406 4219 
Q 1781 4219 1451 3797 
Q 1122 3375 1075 2522 
Q 1259 2794 1537 2939 
Q 1816 3084 2150 3084 
Q 2853 3084 3261 2657 
Q 3669 2231 3669 1497 
Q 3669 778 3244 343 
Q 2819 -91 2113 -91 
Q 1303 -91 875 529 
Q 447 1150 447 2328 
Q 447 3434 972 4092 
Q 1497 4750 2381 4750 
Q 2619 4750 2861 4703 
Q 3103 4656 3366 4563 
z
" transform="scale(0.015625)"/>
       </defs>
       <use xlink:href="#DejaVuSans-2212"/>
       <use xlink:href="#DejaVuSans-36" x="83.789062"/>
       <use xlink:href="#DejaVuSans-35" x="147.412109"/>
      </g>
     </g>
    </g>
    <g id="ytick_4">
     <g id="line2d_9">
      <path d="M 200.235165 162.783833 
C 186.819749 155.038439 171.598587 150.959941 156.107799 150.959941 
C 140.617011 150.959941 125.395849 155.038439 111.980433 162.783833 
" clip-path="url(#p5f5e0655b4)" style="fill: none; stroke: #b0b0b0; stroke-width: 0.8; stroke-linecap: square"/>
     </g>
     <g id="text_9">
      <!-- −60 -->
      <g transform="translate(84.813568 173.882271)scale(0.1 -0.1)">
       <use xlink:href="#DejaVuSans-2212"/>
       <use xlink:href="#DejaVuSans-36" x="83.789062"/>
       <use xlink:href="#DejaVuSans-30" x="147.412109"/>
      </g>
     </g>
    </g>
    <g id="ytick_5">
     <g id="line2d_10">
      <path d="M 211.408265 143.431456 
C 194.596051 133.724919 175.520872 128.613741 156.107799 128.613741 
C 136.694726 128.613741 117.619547 133.724919 100.807333 143.431456 
" clip-path="url(#p5f5e0655b4)" style="fill: none; stroke: #b0b0b0; stroke-width: 0.8; stroke-linecap: square"/>
     </g>
     <g id="text_10">
      <!-- −55 -->
      <g transform="translate(73.640468 154.529893)scale(0.1 -0.1)">
       <use xlink:href="#DejaVuSans-2212"/>
       <use xlink:href="#DejaVuSans-35" x="83.789062"/>
       <use xlink:href="#DejaVuSans-35" x="147.412109"/>
      </g>
     </g>
    </g>
   </g>
   <g id="line2d_11">
    <path d="M 178.222593 200.910726 
L 179.904949 195.927818 
L 180.816345 191.951584 
L 170.725992 209.766514 
L 173.019235 203.276042 
L 172.308148 202.828095 
L 176.859678 189.847903 
L 177.299842 185.689683 
L 177.02702 182.964584 
L 177.538198 177.674951 
L 176.729739 175.746867 
L 174.36187 178.754273 
L 173.063075 178.487698 
L 169.670599 186.391056 
L 169.020517 184.161017 
L 166.564861 190.018066 
L 163.153656 202.278997 
L 157.114698 233.261527 
L 159.265744 217.82911 
L 162.421491 189.236656 
L 164.618312 158.242555 
L 164.656168 137.414865 
L 163.423673 122.932187 
L 161.261665 116.247156 
L 158.763123 112.450832 
L 156.107799 114.030163 
L 153.624347 120.655898 
L 151.768514 135.68246 
L 150.816276 155.108327 
L 153.075021 203.098281 
L 152.360759 203.563965 
L 148.721935 180.749539 
L 146.259269 172.520557 
L 145.488384 176.428923 
L 143.923671 175.343237 
L 144.460423 184.418077 
L 144.094904 187.997433 
L 143.469508 189.991777 
L 139.239899 178.800643 
L 138.301837 180.238482 
L 137.597379 182.245457 
L 138.413297 188.402985 
L 137.614466 189.487599 
L 137.466203 192.131375 
L 139.195369 198.981593 
L 137.817885 198.134854 
L 142.920929 211.191147 
L 138.727821 204.202935 
L 144.069968 216.188426 
L 138.914339 207.939885 
L 137.31298 206.661091 
" clip-path="url(#p5f5e0655b4)" style="fill: none; stroke: #ff0000; stroke-width: 1.5; stroke-linecap: square"/>
   </g>
   <g id="line2d_12">
    <path d="M 177.545057 202.084254 
L 178.400812 198.663833 
L 179.231108 194.983863 
L 178.209121 194.691849 
L 179.583513 189.326242 
L 181.189028 182.881312 
L 178.517973 185.902977 
L 176.342808 188.106875 
L 177.915774 180.574795 
L 174.834383 185.439249 
L 174.728843 181.904992 
L 172.857108 183.738287 
L 171.731526 183.25677 
L 172.04111 177.158526 
L 170.024029 179.882524 
L 168.471966 181.045843 
L 168.610243 173.674569 
L 165.220828 185.33521 
L 165.504536 175.580093 
L 164.781995 170.551342 
L 162.547052 177.949274 
L 161.244157 178.047418 
L 160.021112 177.014347 
L 158.852509 173.727878 
L 157.380981 178.433626 
L 156.107799 180.112794 
L 154.794895 176.537297 
L 153.457751 175.986437 
L 151.883048 172.064171 
L 150.723383 175.093368 
L 149.359752 175.01129 
L 148.74955 180.968135 
L 147.26601 179.338195 
L 145.72361 177.819663 
L 143.648066 173.898463 
L 143.746141 181.057646 
L 143.017606 183.404351 
L 142.0444 184.441351 
L 141.28127 186.112014 
L 140.277443 186.782005 
L 142.427675 197.11158 
L 137.06771 184.538985 
L 136.60155 186.763951 
L 135.592442 187.398796 
L 137.868214 195.824415 
L 131.752965 184.51282 
L 133.925303 192.074469 
L 129.440332 185.493409 
L 135.451588 199.702985 
L 131.68389 194.787747 
L 133.586527 200.206686 
" clip-path="url(#p5f5e0655b4)" style="fill: none; stroke: #0000ff; stroke-width: 1.5; stroke-linecap: square"/>
   </g>
   <g id="patch_3">
    <path d="M 222.522472 124.181085 
C 202.331363 112.523743 179.422483 106.385327 156.107799 106.385327 
C 132.793115 106.385327 109.884235 112.523743 89.693126 124.181085 
" style="fill: none; stroke: #000000; stroke-width: 0.8; stroke-linejoin: miter; stroke-linecap: square"/>
   </g>
   <g id="patch_4">
    <path d="M 156.107799 239.214673 
L 222.522472 124.181085 
" style="fill: none; stroke: #000000; stroke-width: 0.8; stroke-linejoin: miter; stroke-linecap: square"/>
   </g>
   <g id="patch_5">
    <path d="M 156.107799 239.214673 
L 89.693126 124.181085 
" style="fill: none; stroke: #000000; stroke-width: 0.8; stroke-linejoin: miter; stroke-linecap: square"/>
   </g>
   <g id="text_11">
    <!-- (a) -->
    <g transform="translate(49.844322 74.134961)scale(0.1 -0.1)">
     <defs>
      <path id="DejaVuSans-28" d="M 1984 4856 
Q 1566 4138 1362 3434 
Q 1159 2731 1159 2009 
Q 1159 1288 1364 580 
Q 1569 -128 1984 -844 
L 1484 -844 
Q 1016 -109 783 600 
Q 550 1309 550 2009 
Q 550 2706 781 3412 
Q 1013 4119 1484 4856 
L 1984 4856 
z
" transform="scale(0.015625)"/>
      <path id="DejaVuSans-61" d="M 2194 1759 
Q 1497 1759 1228 1600 
Q 959 1441 959 1056 
Q 959 750 1161 570 
Q 1363 391 1709 391 
Q 2188 391 2477 730 
Q 2766 1069 2766 1631 
L 2766 1759 
L 2194 1759 
z
M 3341 1997 
L 3341 0 
L 2766 0 
L 2766 531 
Q 2569 213 2275 61 
Q 1981 -91 1556 -91 
Q 1019 -91 701 211 
Q 384 513 384 1019 
Q 384 1609 779 1909 
Q 1175 2209 1959 2209 
L 2766 2209 
L 2766 2266 
Q 2766 2663 2505 2880 
Q 2244 3097 1772 3097 
Q 1472 3097 1187 3025 
Q 903 2953 641 2809 
L 641 3341 
Q 956 3463 1253 3523 
Q 1550 3584 1831 3584 
Q 2591 3584 2966 3190 
Q 3341 2797 3341 1997 
z
" transform="scale(0.015625)"/>
      <path id="DejaVuSans-29" d="M 513 4856 
L 1013 4856 
Q 1481 4119 1714 3412 
Q 1947 2706 1947 2009 
Q 1947 1309 1714 600 
Q 1481 -109 1013 -844 
L 513 -844 
Q 928 -128 1133 580 
Q 1338 1288 1338 2009 
Q 1338 2731 1133 3434 
Q 928 4138 513 4856 
z
" transform="scale(0.015625)"/>
     </defs>
     <use xlink:href="#DejaVuSans-28"/>
     <use xlink:href="#DejaVuSans-61" x="39.013672"/>
     <use xlink:href="#DejaVuSans-29" x="100.292969"/>
    </g>
   </g>
   <g id="text_12">
    <!-- Pan Angle -->
    <g transform="translate(126.299049 81.546264)scale(0.12 -0.12)">
     <defs>
      <path id="DejaVuSans-50" d="M 1259 4147 
L 1259 2394 
L 2053 2394 
Q 2494 2394 2734 2622 
Q 2975 2850 2975 3272 
Q 2975 3691 2734 3919 
Q 2494 4147 2053 4147 
L 1259 4147 
z
M 628 4666 
L 2053 4666 
Q 2838 4666 3239 4311 
Q 3641 3956 3641 3272 
Q 3641 2581 3239 2228 
Q 2838 1875 2053 1875 
L 1259 1875 
L 1259 0 
L 628 0 
L 628 4666 
z
" transform="scale(0.015625)"/>
      <path id="DejaVuSans-6e" d="M 3513 2113 
L 3513 0 
L 2938 0 
L 2938 2094 
Q 2938 2591 2744 2837 
Q 2550 3084 2163 3084 
Q 1697 3084 1428 2787 
Q 1159 2491 1159 1978 
L 1159 0 
L 581 0 
L 581 3500 
L 1159 3500 
L 1159 2956 
Q 1366 3272 1645 3428 
Q 1925 3584 2291 3584 
Q 2894 3584 3203 3211 
Q 3513 2838 3513 2113 
z
" transform="scale(0.015625)"/>
      <path id="DejaVuSans-20" transform="scale(0.015625)"/>
      <path id="DejaVuSans-41" d="M 2188 4044 
L 1331 1722 
L 3047 1722 
L 2188 4044 
z
M 1831 4666 
L 2547 4666 
L 4325 0 
L 3669 0 
L 3244 1197 
L 1141 1197 
L 716 0 
L 50 0 
L 1831 4666 
z
" transform="scale(0.015625)"/>
      <path id="DejaVuSans-67" d="M 2906 1791 
Q 2906 2416 2648 2759 
Q 2391 3103 1925 3103 
Q 1463 3103 1205 2759 
Q 947 2416 947 1791 
Q 947 1169 1205 825 
Q 1463 481 1925 481 
Q 2391 481 2648 825 
Q 2906 1169 2906 1791 
z
M 3481 434 
Q 3481 -459 3084 -895 
Q 2688 -1331 1869 -1331 
Q 1566 -1331 1297 -1286 
Q 1028 -1241 775 -1147 
L 775 -588 
Q 1028 -725 1275 -790 
Q 1522 -856 1778 -856 
Q 2344 -856 2625 -561 
Q 2906 -266 2906 331 
L 2906 616 
Q 2728 306 2450 153 
Q 2172 0 1784 0 
Q 1141 0 747 490 
Q 353 981 353 1791 
Q 353 2603 747 3093 
Q 1141 3584 1784 3584 
Q 2172 3584 2450 3431 
Q 2728 3278 2906 2969 
L 2906 3500 
L 3481 3500 
L 3481 434 
z
" transform="scale(0.015625)"/>
      <path id="DejaVuSans-6c" d="M 603 4863 
L 1178 4863 
L 1178 0 
L 603 0 
L 603 4863 
z
" transform="scale(0.015625)"/>
      <path id="DejaVuSans-65" d="M 3597 1894 
L 3597 1613 
L 953 1613 
Q 991 1019 1311 708 
Q 1631 397 2203 397 
Q 2534 397 2845 478 
Q 3156 559 3463 722 
L 3463 178 
Q 3153 47 2828 -22 
Q 2503 -91 2169 -91 
Q 1331 -91 842 396 
Q 353 884 353 1716 
Q 353 2575 817 3079 
Q 1281 3584 2069 3584 
Q 2775 3584 3186 3129 
Q 3597 2675 3597 1894 
z
M 3022 2063 
Q 3016 2534 2758 2815 
Q 2500 3097 2075 3097 
Q 1594 3097 1305 2825 
Q 1016 2553 972 2059 
L 3022 2063 
z
" transform="scale(0.015625)"/>
     </defs>
     <use xlink:href="#DejaVuSans-50"/>
     <use xlink:href="#DejaVuSans-61" x="55.802734"/>
     <use xlink:href="#DejaVuSans-6e" x="117.082031"/>
     <use xlink:href="#DejaVuSans-20" x="180.460938"/>
     <use xlink:href="#DejaVuSans-41" x="212.248047"/>
     <use xlink:href="#DejaVuSans-6e" x="280.65625"/>
     <use xlink:href="#DejaVuSans-67" x="344.035156"/>
     <use xlink:href="#DejaVuSans-6c" x="407.511719"/>
     <use xlink:href="#DejaVuSans-65" x="435.294922"/>
    </g>
   </g>
  </g>
  <g id="axes_2">
   <g id="patch_6">
    <path d="M 432.425 124.181085 
C 412.233891 112.523743 389.325011 106.385327 366.010327 106.385327 
C 342.695643 106.385327 319.786763 112.523743 299.595654 124.181085 
L 366.010327 239.214673 
C 366.010327 239.214673 366.010327 239.214673 366.010327 239.214673 
C 366.010327 239.214673 366.010327 239.214673 366.010327 239.214673 
L 432.425 124.181085 
z
" style="fill: #ffffff"/>
   </g>
   <g id="matplotlib.axis_3">
    <g id="xtick_6">
     <g id="line2d_13">
      <path d="M 366.010327 239.214673 
L 432.425 124.181085 
" clip-path="url(#p67ef878934)" style="fill: none; stroke: #b0b0b0; stroke-width: 0.8; stroke-linecap: square"/>
     </g>
     <g id="text_13">
      <!-- -30° -->
      <g transform="translate(428.758594 114.816104)scale(0.1 -0.1)">
       <use xlink:href="#DejaVuSans-2d"/>
       <use xlink:href="#DejaVuSans-33" x="36.083984"/>
       <use xlink:href="#DejaVuSans-30" x="99.707031"/>
       <use xlink:href="#DejaVuSans-b0" x="163.330078"/>
      </g>
     </g>
    </g>
    <g id="xtick_7">
     <g id="line2d_14">
      <path d="M 366.010327 239.214673 
L 400.389091 110.911377 
" clip-path="url(#p67ef878934)" style="fill: none; stroke: #b0b0b0; stroke-width: 0.8; stroke-linecap: square"/>
     </g>
     <g id="text_14">
      <!-- -15° -->
      <g transform="translate(393.346152 100.147791)scale(0.1 -0.1)">
       <use xlink:href="#DejaVuSans-2d"/>
       <use xlink:href="#DejaVuSans-31" x="36.083984"/>
       <use xlink:href="#DejaVuSans-35" x="99.707031"/>
       <use xlink:href="#DejaVuSans-b0" x="163.330078"/>
      </g>
     </g>
    </g>
    <g id="xtick_8">
     <g id="line2d_15">
      <path d="M 366.010327 239.214673 
L 366.010327 106.385327 
" clip-path="url(#p67ef878934)" style="fill: none; stroke: #b0b0b0; stroke-width: 0.8; stroke-linecap: square"/>
     </g>
     <g id="text_15">
      <!-- 0° -->
      <g transform="translate(360.329077 95.144702)scale(0.1 -0.1)">
       <use xlink:href="#DejaVuSans-30"/>
       <use xlink:href="#DejaVuSans-b0" x="63.623047"/>
      </g>
     </g>
    </g>
    <g id="xtick_9">
     <g id="line2d_16">
      <path d="M 366.010327 239.214673 
L 331.631562 110.911377 
" clip-path="url(#p67ef878934)" style="fill: none; stroke: #b0b0b0; stroke-width: 0.8; stroke-linecap: square"/>
     </g>
     <g id="text_16">
      <!-- 15° -->
      <g transform="translate(319.145596 100.147791)scale(0.1 -0.1)">
       <use xlink:href="#DejaVuSans-31"/>
       <use xlink:href="#DejaVuSans-35" x="63.623047"/>
       <use xlink:href="#DejaVuSans-b0" x="127.246094"/>
      </g>
     </g>
    </g>
    <g id="xtick_10">
     <g id="line2d_17">
      <path d="M 366.010327 239.214673 
L 299.595654 124.181085 
" clip-path="url(#p67ef878934)" style="fill: none; stroke: #b0b0b0; stroke-width: 0.8; stroke-linecap: square"/>
     </g>
     <g id="text_17">
      <!-- 30° -->
      <g transform="translate(283.733154 114.816104)scale(0.1 -0.1)">
       <use xlink:href="#DejaVuSans-33"/>
       <use xlink:href="#DejaVuSans-30" x="63.623047"/>
       <use xlink:href="#DejaVuSans-b0" x="127.246094"/>
      </g>
     </g>
    </g>
   </g>
   <g id="matplotlib.axis_4">
    <g id="ytick_6">
     <g id="line2d_18">
      <path d="M 377.416473 219.458649 
C 373.948825 217.456601 370.014422 216.402381 366.010327 216.402381 
C 362.006231 216.402381 358.071829 217.456601 354.604181 219.458649 
" clip-path="url(#p67ef878934)" style="fill: none; stroke: #b0b0b0; stroke-width: 0.8; stroke-linecap: square"/>
     </g>
     <g id="text_18">
      <!-- −80 -->
      <g transform="translate(383.478651 230.557086)scale(0.1 -0.1)">
       <defs>
        <path id="DejaVuSans-38" d="M 2034 2216 
Q 1584 2216 1326 1975 
Q 1069 1734 1069 1313 
Q 1069 891 1326 650 
Q 1584 409 2034 409 
Q 2484 409 2743 651 
Q 3003 894 3003 1313 
Q 3003 1734 2745 1975 
Q 2488 2216 2034 2216 
z
M 1403 2484 
Q 997 2584 770 2862 
Q 544 3141 544 3541 
Q 544 4100 942 4425 
Q 1341 4750 2034 4750 
Q 2731 4750 3128 4425 
Q 3525 4100 3525 3541 
Q 3525 3141 3298 2862 
Q 3072 2584 2669 2484 
Q 3125 2378 3379 2068 
Q 3634 1759 3634 1313 
Q 3634 634 3220 271 
Q 2806 -91 2034 -91 
Q 1263 -91 848 271 
Q 434 634 434 1313 
Q 434 1759 690 2068 
Q 947 2378 1403 2484 
z
M 1172 3481 
Q 1172 3119 1398 2916 
Q 1625 2713 2034 2713 
Q 2441 2713 2670 2916 
Q 2900 3119 2900 3481 
Q 2900 3844 2670 4047 
Q 2441 4250 2034 4250 
Q 1625 4250 1398 4047 
Q 1172 3844 1172 3481 
z
" transform="scale(0.015625)"/>
       </defs>
       <use xlink:href="#DejaVuSans-2212"/>
       <use xlink:href="#DejaVuSans-38" x="83.789062"/>
       <use xlink:href="#DejaVuSans-30" x="147.412109"/>
      </g>
     </g>
    </g>
    <g id="ytick_7">
     <g id="line2d_19">
      <path d="M 395.714966 187.764729 
C 386.684287 182.550864 376.438057 179.805395 366.010327 179.805395 
C 355.582597 179.805395 345.336367 182.550864 336.305688 187.764729 
" clip-path="url(#p67ef878934)" style="fill: none; stroke: #b0b0b0; stroke-width: 0.8; stroke-linecap: square"/>
     </g>
     <g id="text_19">
      <!-- −70 -->
      <g transform="translate(401.777144 198.863167)scale(0.1 -0.1)">
       <use xlink:href="#DejaVuSans-2212"/>
       <use xlink:href="#DejaVuSans-37" x="83.789062"/>
       <use xlink:href="#DejaVuSans-30" x="147.412109"/>
      </g>
     </g>
    </g>
    <g id="ytick_8">
     <g id="line2d_20">
      <path d="M 414.013459 156.07081 
C 399.419749 147.645127 382.861692 143.208409 366.010327 143.208409 
C 349.158962 143.208409 332.600905 147.645127 318.007195 156.07081 
" clip-path="url(#p67ef878934)" style="fill: none; stroke: #b0b0b0; stroke-width: 0.8; stroke-linecap: square"/>
     </g>
     <g id="text_20">
      <!-- −60 -->
      <g transform="translate(420.075637 167.169247)scale(0.1 -0.1)">
       <use xlink:href="#DejaVuSans-2212"/>
       <use xlink:href="#DejaVuSans-36" x="83.789062"/>
       <use xlink:href="#DejaVuSans-30" x="147.412109"/>
      </g>
     </g>
    </g>
    <g id="ytick_9">
     <g id="line2d_21">
      <path d="M 432.311952 124.37689 
C 412.155211 112.73939 389.285326 106.611423 366.010327 106.611423 
C 342.735328 106.611423 319.865443 112.73939 299.708702 124.37689 
" clip-path="url(#p67ef878934)" style="fill: none; stroke: #b0b0b0; stroke-width: 0.8; stroke-linecap: square"/>
     </g>
     <g id="text_21">
      <!-- −50 -->
      <g transform="translate(438.37413 135.475328)scale(0.1 -0.1)">
       <use xlink:href="#DejaVuSans-2212"/>
       <use xlink:href="#DejaVuSans-35" x="83.789062"/>
       <use xlink:href="#DejaVuSans-30" x="147.412109"/>
      </g>
     </g>
    </g>
   </g>
   <g id="line2d_22">
    <path d="M 378.945789 165.85402 
L 378.836565 163.3814 
L 378.421933 162.583102 
L 376.895543 168.900458 
L 376.729819 166.622418 
L 374.769496 176.889946 
L 373.139281 185.785648 
L 371.970613 192.034148 
L 369.745041 207.894419 
L 368.976062 212.774548 
L 371.241399 189.444347 
L 372.612686 171.878612 
L 373.093118 161.387902 
L 373.242138 153.093335 
L 372.87806 149.96052 
L 372.947968 140.001777 
L 372.649243 133.692128 
L 372.1019 130.258909 
L 371.507382 126.819215 
L 370.856452 123.589635 
L 370.129756 121.24966 
L 369.379367 118.601161 
L 368.574913 116.782599 
L 367.76152 113.80288 
L 366.880955 114.508432 
L 366.010327 112.967954 
L 365.132435 113.468005 
L 364.265889 114.286645 
L 363.355003 112.450832 
L 362.496429 113.415195 
L 361.692099 115.55681 
L 360.854449 116.199141 
L 360.057037 117.490814 
L 359.323392 119.610079 
L 358.696436 122.963708 
L 357.913782 123.428679 
L 357.381839 127.07746 
L 356.845005 130.067768 
L 356.48429 134.541143 
L 356.391735 141.116682 
L 356.085954 144.790568 
L 355.509156 145.594624 
L 355.486831 150.961981 
L 355.951948 159.594401 
L 358.187387 180.584467 
L 356.970007 174.889453 
L 360.170471 199.667247 
L 359.182409 195.109004 
L 365.045013 233.254643 
L 363.437704 224.004414 
L 362.277286 218.043544 
" clip-path="url(#p67ef878934)" style="fill: none; stroke: #ff0000; stroke-width: 1.5; stroke-linecap: square"/>
   </g>
   <g id="line2d_23">
    <path d="M 379.352764 163.545954 
L 379.058906 162.066842 
L 377.896791 165.825429 
L 377.82741 162.880959 
L 376.79841 166.157916 
L 376.594126 163.907033 
L 375.58856 167.429156 
L 375.126895 167.049607 
L 375.17787 162.333351 
L 373.580348 171.726413 
L 373.655167 166.478881 
L 373.103695 166.870906 
L 373.160351 160.649134 
L 372.568971 161.10987 
L 371.514227 167.685113 
L 371.401002 162.124431 
L 370.807877 162.959792 
L 370.151401 165.146131 
L 369.773439 162.272255 
L 369.290995 160.940299 
L 368.69709 162.275858 
L 368.130577 163.308534 
L 367.612715 162.717477 
L 367.103094 160.956061 
L 366.52339 165.725032 
L 366.010327 161.101407 
L 365.503976 166.686411 
L 364.989326 166.095607 
L 364.442505 164.367639 
L 363.938175 165.030483 
L 363.398358 164.417672 
L 362.844812 163.687784 
L 362.234361 162.009437 
L 361.699099 162.10272 
L 361.324571 164.736722 
L 360.547023 161.085783 
L 360.386708 166.129217 
L 359.065459 156.510446 
L 358.689484 158.772146 
L 358.463233 162.24345 
L 357.761146 160.728961 
L 357.883994 166.766785 
L 357.229915 165.579926 
L 356.973157 167.678105 
L 355.45002 160.068857 
L 355.130454 161.800353 
L 354.932694 164.197086 
L 354.015089 161.730151 
L 354.442927 167.795392 
L 353.528494 165.417647 
L 353.366368 167.50722 
" clip-path="url(#p67ef878934)" style="fill: none; stroke: #0000ff; stroke-width: 1.5; stroke-linecap: square"/>
   </g>
   <g id="patch_7">
    <path d="M 432.425 124.181085 
C 412.233891 112.523743 389.325011 106.385327 366.010327 106.385327 
C 342.695643 106.385327 319.786763 112.523743 299.595654 124.181085 
" style="fill: none; stroke: #000000; stroke-width: 0.8; stroke-linejoin: miter; stroke-linecap: square"/>
   </g>
   <g id="patch_8">
    <path d="M 366.010327 239.214673 
L 432.425 124.181085 
" style="fill: none; stroke: #000000; stroke-width: 0.8; stroke-linejoin: miter; stroke-linecap: square"/>
   </g>
   <g id="patch_9">
    <path d="M 366.010327 239.214673 
L 299.595654 124.181085 
" style="fill: none; stroke: #000000; stroke-width: 0.8; stroke-linejoin: miter; stroke-linecap: square"/>
   </g>
   <g id="text_22">
    <!-- (b) -->
    <g transform="translate(259.74685 74.134961)scale(0.1 -0.1)">
     <defs>
      <path id="DejaVuSans-62" d="M 3116 1747 
Q 3116 2381 2855 2742 
Q 2594 3103 2138 3103 
Q 1681 3103 1420 2742 
Q 1159 2381 1159 1747 
Q 1159 1113 1420 752 
Q 1681 391 2138 391 
Q 2594 391 2855 752 
Q 3116 1113 3116 1747 
z
M 1159 2969 
Q 1341 3281 1617 3432 
Q 1894 3584 2278 3584 
Q 2916 3584 3314 3078 
Q 3713 2572 3713 1747 
Q 3713 922 3314 415 
Q 2916 -91 2278 -91 
Q 1894 -91 1617 61 
Q 1341 213 1159 525 
L 1159 0 
L 581 0 
L 581 4863 
L 1159 4863 
L 1159 2969 
z
" transform="scale(0.015625)"/>
     </defs>
     <use xlink:href="#DejaVuSans-28"/>
     <use xlink:href="#DejaVuSans-62" x="39.013672"/>
     <use xlink:href="#DejaVuSans-29" x="102.490234"/>
    </g>
   </g>
   <g id="text_23">
    <!-- Tilt Angle -->
    <g transform="translate(337.865639 81.546264)scale(0.12 -0.12)">
     <defs>
      <path id="DejaVuSans-54" d="M -19 4666 
L 3928 4666 
L 3928 4134 
L 2272 4134 
L 2272 0 
L 1638 0 
L 1638 4134 
L -19 4134 
L -19 4666 
z
" transform="scale(0.015625)"/>
      <path id="DejaVuSans-69" d="M 603 3500 
L 1178 3500 
L 1178 0 
L 603 0 
L 603 3500 
z
M 603 4863 
L 1178 4863 
L 1178 4134 
L 603 4134 
L 603 4863 
z
" transform="scale(0.015625)"/>
      <path id="DejaVuSans-74" d="M 1172 4494 
L 1172 3500 
L 2356 3500 
L 2356 3053 
L 1172 3053 
L 1172 1153 
Q 1172 725 1289 603 
Q 1406 481 1766 481 
L 2356 481 
L 2356 0 
L 1766 0 
Q 1100 0 847 248 
Q 594 497 594 1153 
L 594 3053 
L 172 3053 
L 172 3500 
L 594 3500 
L 594 4494 
L 1172 4494 
z
" transform="scale(0.015625)"/>
     </defs>
     <use xlink:href="#DejaVuSans-54"/>
     <use xlink:href="#DejaVuSans-69" x="57.958984"/>
     <use xlink:href="#DejaVuSans-6c" x="85.742188"/>
     <use xlink:href="#DejaVuSans-74" x="113.525391"/>
     <use xlink:href="#DejaVuSans-20" x="152.734375"/>
     <use xlink:href="#DejaVuSans-41" x="184.521484"/>
     <use xlink:href="#DejaVuSans-6e" x="252.929688"/>
     <use xlink:href="#DejaVuSans-67" x="316.308594"/>
     <use xlink:href="#DejaVuSans-6c" x="379.785156"/>
     <use xlink:href="#DejaVuSans-65" x="407.568359"/>
    </g>
   </g>
  </g>
  <g id="text_24">
   <!-- dBm -->
   <g transform="translate(82.944 183.168)rotate(-300)scale(0.1 -0.1)">
    <defs>
     <path id="DejaVuSans-64" d="M 2906 2969 
L 2906 4863 
L 3481 4863 
L 3481 0 
L 2906 0 
L 2906 525 
Q 2725 213 2448 61 
Q 2172 -91 1784 -91 
Q 1150 -91 751 415 
Q 353 922 353 1747 
Q 353 2572 751 3078 
Q 1150 3584 1784 3584 
Q 2172 3584 2448 3432 
Q 2725 3281 2906 2969 
z
M 947 1747 
Q 947 1113 1208 752 
Q 1469 391 1925 391 
Q 2381 391 2643 752 
Q 2906 1113 2906 1747 
Q 2906 2381 2643 2742 
Q 2381 3103 1925 3103 
Q 1469 3103 1208 2742 
Q 947 2381 947 1747 
z
" transform="scale(0.015625)"/>
     <path id="DejaVuSans-42" d="M 1259 2228 
L 1259 519 
L 2272 519 
Q 2781 519 3026 730 
Q 3272 941 3272 1375 
Q 3272 1813 3026 2020 
Q 2781 2228 2272 2228 
L 1259 2228 
z
M 1259 4147 
L 1259 2741 
L 2194 2741 
Q 2656 2741 2882 2914 
Q 3109 3088 3109 3444 
Q 3109 3797 2882 3972 
Q 2656 4147 2194 4147 
L 1259 4147 
z
M 628 4666 
L 2241 4666 
Q 2963 4666 3353 4366 
Q 3744 4066 3744 3513 
Q 3744 3084 3544 2831 
Q 3344 2578 2956 2516 
Q 3422 2416 3680 2098 
Q 3938 1781 3938 1306 
Q 3938 681 3513 340 
Q 3088 0 2303 0 
L 628 0 
L 628 4666 
z
" transform="scale(0.015625)"/>
     <path id="DejaVuSans-6d" d="M 3328 2828 
Q 3544 3216 3844 3400 
Q 4144 3584 4550 3584 
Q 5097 3584 5394 3201 
Q 5691 2819 5691 2113 
L 5691 0 
L 5113 0 
L 5113 2094 
Q 5113 2597 4934 2840 
Q 4756 3084 4391 3084 
Q 3944 3084 3684 2787 
Q 3425 2491 3425 1978 
L 3425 0 
L 2847 0 
L 2847 2094 
Q 2847 2600 2669 2842 
Q 2491 3084 2119 3084 
Q 1678 3084 1418 2786 
Q 1159 2488 1159 1978 
L 1159 0 
L 581 0 
L 581 3500 
L 1159 3500 
L 1159 2956 
Q 1356 3278 1631 3431 
Q 1906 3584 2284 3584 
Q 2666 3584 2933 3390 
Q 3200 3197 3328 2828 
z
" transform="scale(0.015625)"/>
    </defs>
    <use xlink:href="#DejaVuSans-64"/>
    <use xlink:href="#DejaVuSans-42" x="63.476562"/>
    <use xlink:href="#DejaVuSans-6d" x="132.080078"/>
   </g>
  </g>
  <g id="text_25">
   <!-- dBm -->
   <g transform="translate(437.76 196.992)rotate(-60)scale(0.1 -0.1)">
    <use xlink:href="#DejaVuSans-64"/>
    <use xlink:href="#DejaVuSans-42" x="63.476562"/>
    <use xlink:href="#DejaVuSans-6d" x="132.080078"/>
   </g>
  </g>
  <g id="legend_1">
   <g id="patch_10">
    <path d="M 216.272 241.92 
L 315.536063 241.92 
Q 317.536063 241.92 317.536063 239.92 
L 317.536063 211.56375 
Q 317.536063 209.56375 315.536063 209.56375 
L 216.272 209.56375 
Q 214.272 209.56375 214.272 211.56375 
L 214.272 239.92 
Q 214.272 241.92 216.272 241.92 
z
" style="fill: #ffffff; opacity: 0.8; stroke: #cccccc; stroke-linejoin: miter"/>
   </g>
   <g id="patch_11">
    <path d="M 218.272 221.162187 
L 238.272 221.162187 
L 238.272 214.162187 
L 218.272 214.162187 
z
" style="fill: #ff0000; stroke: #ff0000; stroke-linejoin: miter"/>
   </g>
   <g id="text_26">
    <!-- w/ metalens -->
    <g transform="translate(246.272 221.162187)scale(0.1 -0.1)">
     <defs>
      <path id="DejaVuSans-77" d="M 269 3500 
L 844 3500 
L 1563 769 
L 2278 3500 
L 2956 3500 
L 3675 769 
L 4391 3500 
L 4966 3500 
L 4050 0 
L 3372 0 
L 2619 2869 
L 1863 0 
L 1184 0 
L 269 3500 
z
" transform="scale(0.015625)"/>
      <path id="DejaVuSans-2f" d="M 1625 4666 
L 2156 4666 
L 531 -594 
L 0 -594 
L 1625 4666 
z
" transform="scale(0.015625)"/>
      <path id="DejaVuSans-73" d="M 2834 3397 
L 2834 2853 
Q 2591 2978 2328 3040 
Q 2066 3103 1784 3103 
Q 1356 3103 1142 2972 
Q 928 2841 928 2578 
Q 928 2378 1081 2264 
Q 1234 2150 1697 2047 
L 1894 2003 
Q 2506 1872 2764 1633 
Q 3022 1394 3022 966 
Q 3022 478 2636 193 
Q 2250 -91 1575 -91 
Q 1294 -91 989 -36 
Q 684 19 347 128 
L 347 722 
Q 666 556 975 473 
Q 1284 391 1588 391 
Q 1994 391 2212 530 
Q 2431 669 2431 922 
Q 2431 1156 2273 1281 
Q 2116 1406 1581 1522 
L 1381 1569 
Q 847 1681 609 1914 
Q 372 2147 372 2553 
Q 372 3047 722 3315 
Q 1072 3584 1716 3584 
Q 2034 3584 2315 3537 
Q 2597 3491 2834 3397 
z
" transform="scale(0.015625)"/>
     </defs>
     <use xlink:href="#DejaVuSans-77"/>
     <use xlink:href="#DejaVuSans-2f" x="81.787109"/>
     <use xlink:href="#DejaVuSans-20" x="115.478516"/>
     <use xlink:href="#DejaVuSans-6d" x="147.265625"/>
     <use xlink:href="#DejaVuSans-65" x="244.677734"/>
     <use xlink:href="#DejaVuSans-74" x="306.201172"/>
     <use xlink:href="#DejaVuSans-61" x="345.410156"/>
     <use xlink:href="#DejaVuSans-6c" x="406.689453"/>
     <use xlink:href="#DejaVuSans-65" x="434.472656"/>
     <use xlink:href="#DejaVuSans-6e" x="495.996094"/>
     <use xlink:href="#DejaVuSans-73" x="559.375"/>
    </g>
   </g>
   <g id="patch_12">
    <path d="M 218.272 235.840312 
L 238.272 235.840312 
L 238.272 228.840312 
L 218.272 228.840312 
z
" style="fill: #0000ff; stroke: #0000ff; stroke-linejoin: miter"/>
   </g>
   <g id="text_27">
    <!-- w/o metalens -->
    <g transform="translate(246.272 235.840312)scale(0.1 -0.1)">
     <defs>
      <path id="DejaVuSans-6f" d="M 1959 3097 
Q 1497 3097 1228 2736 
Q 959 2375 959 1747 
Q 959 1119 1226 758 
Q 1494 397 1959 397 
Q 2419 397 2687 759 
Q 2956 1122 2956 1747 
Q 2956 2369 2687 2733 
Q 2419 3097 1959 3097 
z
M 1959 3584 
Q 2709 3584 3137 3096 
Q 3566 2609 3566 1747 
Q 3566 888 3137 398 
Q 2709 -91 1959 -91 
Q 1206 -91 779 398 
Q 353 888 353 1747 
Q 353 2609 779 3096 
Q 1206 3584 1959 3584 
z
" transform="scale(0.015625)"/>
     </defs>
     <use xlink:href="#DejaVuSans-77"/>
     <use xlink:href="#DejaVuSans-2f" x="81.787109"/>
     <use xlink:href="#DejaVuSans-6f" x="115.478516"/>
     <use xlink:href="#DejaVuSans-20" x="176.660156"/>
     <use xlink:href="#DejaVuSans-6d" x="208.447266"/>
     <use xlink:href="#DejaVuSans-65" x="305.859375"/>
     <use xlink:href="#DejaVuSans-74" x="367.382812"/>
     <use xlink:href="#DejaVuSans-61" x="406.591797"/>
     <use xlink:href="#DejaVuSans-6c" x="467.871094"/>
     <use xlink:href="#DejaVuSans-65" x="495.654297"/>
     <use xlink:href="#DejaVuSans-6e" x="557.177734"/>
     <use xlink:href="#DejaVuSans-73" x="620.556641"/>
    </g>
   </g>
  </g>
 </g>
 <defs>
  <clipPath id="p5f5e0655b4">
   <path d="M 222.522472 124.181085 
C 202.331363 112.523743 179.422483 106.385327 156.107799 106.385327 
C 132.793115 106.385327 109.884235 112.523743 89.693126 124.181085 
L 156.107799 239.214673 
C 156.107799 239.214673 156.107799 239.214673 156.107799 239.214673 
C 156.107799 239.214673 156.107799 239.214673 156.107799 239.214673 
L 222.522472 124.181085 
z
"/>
  </clipPath>
  <clipPath id="p67ef878934">
   <path d="M 432.425 124.181085 
C 412.233891 112.523743 389.325011 106.385327 366.010327 106.385327 
C 342.695643 106.385327 319.786763 112.523743 299.595654 124.181085 
L 366.010327 239.214673 
C 366.010327 239.214673 366.010327 239.214673 366.010327 239.214673 
C 366.010327 239.214673 366.010327 239.214673 366.010327 239.214673 
L 432.425 124.181085 
z
"/>
  </clipPath>
 </defs>
</svg>
