<?xml version="1.0" encoding="utf-8" standalone="no"?>
<!DOCTYPE svg PUBLIC "-//W3C//DTD SVG 1.1//EN"
  "http://www.w3.org/Graphics/SVG/1.1/DTD/svg11.dtd">
<svg xmlns:xlink="http://www.w3.org/1999/xlink" width="460.8pt" height="345.6pt" viewBox="0 0 460.8 345.6" xmlns="http://www.w3.org/2000/svg" version="1.1">
 <metadata>
  <rdf:RDF xmlns:dc="http://purl.org/dc/elements/1.1/" xmlns:cc="http://creativecommons.org/ns#" xmlns:rdf="http://www.w3.org/1999/02/22-rdf-syntax-ns#">
   <cc:Work>
    <dc:type rdf:resource="http://purl.org/dc/dcmitype/StillImage"/>
    <dc:date>2023-08-30T15:20:30.070579</dc:date>
    <dc:format>image/svg+xml</dc:format>
    <dc:creator>
     <cc:Agent>
      <dc:title>Matplotlib v3.5.3, https://matplotlib.org/</dc:title>
     </cc:Agent>
    </dc:creator>
   </cc:Work>
  </rdf:RDF>
 </metadata>
 <defs>
  <style type="text/css">*{stroke-linejoin: round; stroke-linecap: butt}</style>
 </defs>
 <g id="figure_1">
  <g id="patch_1">
   <path d="M 0 345.6 
L 460.8 345.6 
L 460.8 0 
L 0 0 
z
" style="fill: #ffffff"/>
  </g>
  <g id="axes_1">
   <g id="patch_2">
    <path d="M 226.125914 125.500036 
C 206.482557 114.158939 184.195157 108.187048 161.512962 108.187048 
C 138.830766 108.187048 116.543367 114.158939 96.90001 125.500036 
L 161.512962 237.412952 
C 161.512962 237.412952 161.512962 237.412952 161.512962 237.412952 
C 161.512962 237.412952 161.512962 237.412952 161.512962 237.412952 
L 226.125914 125.500036 
z
" style="fill: #ffffff"/>
   </g>
   <g id="matplotlib.axis_1">
    <g id="xtick_1">
     <g id="line2d_1">
      <path d="M 161.512962 237.412952 
L 226.125914 125.500036 
" clip-path="url(#p3803851608)" style="fill: none; stroke: #b0b0b0; stroke-width: 0.8; stroke-linecap: square"/>
     </g>
     <g id="text_1">
      <!-- -30° -->
      <g transform="translate(222.459508 116.135056)scale(0.1 -0.1)">
       <defs>
        <path id="DejaVuSans-2d" d="M 313 2009 
L 1997 2009 
L 1997 1497 
L 313 1497 
L 313 2009 
z
" transform="scale(0.015625)"/>
        <path id="DejaVuSans-33" d="M 2597 2516 
Q 3050 2419 3304 2112 
Q 3559 1806 3559 1356 
Q 3559 666 3084 287 
Q 2609 -91 1734 -91 
Q 1441 -91 1130 -33 
Q 819 25 488 141 
L 488 750 
Q 750 597 1062 519 
Q 1375 441 1716 441 
Q 2309 441 2620 675 
Q 2931 909 2931 1356 
Q 2931 1769 2642 2001 
Q 2353 2234 1838 2234 
L 1294 2234 
L 1294 2753 
L 1863 2753 
Q 2328 2753 2575 2939 
Q 2822 3125 2822 3475 
Q 2822 3834 2567 4026 
Q 2313 4219 1838 4219 
Q 1578 4219 1281 4162 
Q 984 4106 628 3988 
L 628 4550 
Q 988 4650 1302 4700 
Q 1616 4750 1894 4750 
Q 2613 4750 3031 4423 
Q 3450 4097 3450 3541 
Q 3450 3153 3228 2886 
Q 3006 2619 2597 2516 
z
" transform="scale(0.015625)"/>
        <path id="DejaVuSans-30" d="M 2034 4250 
Q 1547 4250 1301 3770 
Q 1056 3291 1056 2328 
Q 1056 1369 1301 889 
Q 1547 409 2034 409 
Q 2525 409 2770 889 
Q 3016 1369 3016 2328 
Q 3016 3291 2770 3770 
Q 2525 4250 2034 4250 
z
M 2034 4750 
Q 2819 4750 3233 4129 
Q 3647 3509 3647 2328 
Q 3647 1150 3233 529 
Q 2819 -91 2034 -91 
Q 1250 -91 836 529 
Q 422 1150 422 2328 
Q 422 3509 836 4129 
Q 1250 4750 2034 4750 
z
" transform="scale(0.015625)"/>
        <path id="DejaVuSans-b0" d="M 1600 4347 
Q 1350 4347 1178 4173 
Q 1006 4000 1006 3750 
Q 1006 3503 1178 3333 
Q 1350 3163 1600 3163 
Q 1850 3163 2022 3333 
Q 2194 3503 2194 3750 
Q 2194 3997 2020 4172 
Q 1847 4347 1600 4347 
z
M 1600 4750 
Q 1800 4750 1984 4673 
Q 2169 4597 2303 4453 
Q 2447 4313 2519 4134 
Q 2591 3956 2591 3750 
Q 2591 3338 2302 3052 
Q 2013 2766 1594 2766 
Q 1172 2766 890 3047 
Q 609 3328 609 3750 
Q 609 4169 896 4459 
Q 1184 4750 1600 4750 
z
" transform="scale(0.015625)"/>
       </defs>
       <use xlink:href="#DejaVuSans-2d"/>
       <use xlink:href="#DejaVuSans-33" x="36.083984"/>
       <use xlink:href="#DejaVuSans-30" x="99.707031"/>
       <use xlink:href="#DejaVuSans-b0" x="163.330078"/>
      </g>
     </g>
    </g>
    <g id="xtick_2">
     <g id="line2d_2">
      <path d="M 161.512962 237.412952 
L 194.959087 112.590314 
" clip-path="url(#p3803851608)" style="fill: none; stroke: #b0b0b0; stroke-width: 0.8; stroke-linecap: square"/>
     </g>
     <g id="text_2">
      <!-- -15° -->
      <g transform="translate(187.916147 101.826727)scale(0.1 -0.1)">
       <defs>
        <path id="DejaVuSans-31" d="M 794 531 
L 1825 531 
L 1825 4091 
L 703 3866 
L 703 4441 
L 1819 4666 
L 2450 4666 
L 2450 531 
L 3481 531 
L 3481 0 
L 794 0 
L 794 531 
z
" transform="scale(0.015625)"/>
        <path id="DejaVuSans-35" d="M 691 4666 
L 3169 4666 
L 3169 4134 
L 1269 4134 
L 1269 2991 
Q 1406 3038 1543 3061 
Q 1681 3084 1819 3084 
Q 2600 3084 3056 2656 
Q 3513 2228 3513 1497 
Q 3513 744 3044 326 
Q 2575 -91 1722 -91 
Q 1428 -91 1123 -41 
Q 819 9 494 109 
L 494 744 
Q 775 591 1075 516 
Q 1375 441 1709 441 
Q 2250 441 2565 725 
Q 2881 1009 2881 1497 
Q 2881 1984 2565 2268 
Q 2250 2553 1709 2553 
Q 1456 2553 1204 2497 
Q 953 2441 691 2322 
L 691 4666 
z
" transform="scale(0.015625)"/>
       </defs>
       <use xlink:href="#DejaVuSans-2d"/>
       <use xlink:href="#DejaVuSans-31" x="36.083984"/>
       <use xlink:href="#DejaVuSans-35" x="99.707031"/>
       <use xlink:href="#DejaVuSans-b0" x="163.330078"/>
      </g>
     </g>
    </g>
    <g id="xtick_3">
     <g id="line2d_3">
      <path d="M 161.512962 237.412952 
L 161.512962 108.187048 
" clip-path="url(#p3803851608)" style="fill: none; stroke: #b0b0b0; stroke-width: 0.8; stroke-linecap: square"/>
     </g>
     <g id="text_3">
      <!-- 0° -->
      <g transform="translate(155.831712 96.946423)scale(0.1 -0.1)">
       <use xlink:href="#DejaVuSans-30"/>
       <use xlink:href="#DejaVuSans-b0" x="63.623047"/>
      </g>
     </g>
    </g>
    <g id="xtick_4">
     <g id="line2d_4">
      <path d="M 161.512962 237.412952 
L 128.066837 112.590314 
" clip-path="url(#p3803851608)" style="fill: none; stroke: #b0b0b0; stroke-width: 0.8; stroke-linecap: square"/>
     </g>
     <g id="text_4">
      <!-- 15° -->
      <g transform="translate(115.58087 101.826727)scale(0.1 -0.1)">
       <use xlink:href="#DejaVuSans-31"/>
       <use xlink:href="#DejaVuSans-35" x="63.623047"/>
       <use xlink:href="#DejaVuSans-b0" x="127.246094"/>
      </g>
     </g>
    </g>
    <g id="xtick_5">
     <g id="line2d_5">
      <path d="M 161.512962 237.412952 
L 96.90001 125.500036 
" clip-path="url(#p3803851608)" style="fill: none; stroke: #b0b0b0; stroke-width: 0.8; stroke-linecap: square"/>
     </g>
     <g id="text_5">
      <!-- 30° -->
      <g transform="translate(81.03751 116.135056)scale(0.1 -0.1)">
       <use xlink:href="#DejaVuSans-33"/>
       <use xlink:href="#DejaVuSans-30" x="63.623047"/>
       <use xlink:href="#DejaVuSans-b0" x="127.246094"/>
      </g>
     </g>
    </g>
   </g>
   <g id="matplotlib.axis_2">
    <g id="ytick_1">
     <g id="line2d_6">
      <path d="M 163.241227 234.41951 
C 162.715807 234.116158 162.119664 233.956422 161.512962 233.956422 
C 160.906259 233.956422 160.310117 234.116158 159.784697 234.41951 
" clip-path="url(#p3803851608)" style="fill: none; stroke: #b0b0b0; stroke-width: 0.8; stroke-linecap: square"/>
     </g>
     <g id="text_6">
      <!-- −85 -->
      <g transform="translate(132.617832 245.517947)scale(0.1 -0.1)">
       <defs>
        <path id="DejaVuSans-2212" d="M 678 2272 
L 4684 2272 
L 4684 1741 
L 678 1741 
L 678 2272 
z
" transform="scale(0.015625)"/>
        <path id="DejaVuSans-38" d="M 2034 2216 
Q 1584 2216 1326 1975 
Q 1069 1734 1069 1313 
Q 1069 891 1326 650 
Q 1584 409 2034 409 
Q 2484 409 2743 651 
Q 3003 894 3003 1313 
Q 3003 1734 2745 1975 
Q 2488 2216 2034 2216 
z
M 1403 2484 
Q 997 2584 770 2862 
Q 544 3141 544 3541 
Q 544 4100 942 4425 
Q 1341 4750 2034 4750 
Q 2731 4750 3128 4425 
Q 3525 4100 3525 3541 
Q 3525 3141 3298 2862 
Q 3072 2584 2669 2484 
Q 3125 2378 3379 2068 
Q 3634 1759 3634 1313 
Q 3634 634 3220 271 
Q 2806 -91 2034 -91 
Q 1263 -91 848 271 
Q 434 634 434 1313 
Q 434 1759 690 2068 
Q 947 2378 1403 2484 
z
M 1172 3481 
Q 1172 3119 1398 2916 
Q 1625 2713 2034 2713 
Q 2441 2713 2670 2916 
Q 2900 3119 2900 3481 
Q 2900 3844 2670 4047 
Q 2441 4250 2034 4250 
Q 1625 4250 1398 4047 
Q 1172 3844 1172 3481 
z
" transform="scale(0.015625)"/>
       </defs>
       <use xlink:href="#DejaVuSans-2212"/>
       <use xlink:href="#DejaVuSans-38" x="83.789062"/>
       <use xlink:href="#DejaVuSans-35" x="147.412109"/>
      </g>
     </g>
    </g>
    <g id="ytick_2">
     <g id="line2d_7">
      <path d="M 174.231293 215.384156 
C 170.36472 213.151789 165.977696 211.97629 161.512962 211.97629 
C 157.048227 211.97629 152.661204 213.151789 148.794631 215.384156 
" clip-path="url(#p3803851608)" style="fill: none; stroke: #b0b0b0; stroke-width: 0.8; stroke-linecap: square"/>
     </g>
     <g id="text_7">
      <!-- −80 -->
      <g transform="translate(121.627765 226.482594)scale(0.1 -0.1)">
       <use xlink:href="#DejaVuSans-2212"/>
       <use xlink:href="#DejaVuSans-38" x="83.789062"/>
       <use xlink:href="#DejaVuSans-30" x="147.412109"/>
      </g>
     </g>
    </g>
    <g id="ytick_3">
     <g id="line2d_8">
      <path d="M 185.221359 196.348803 
C 178.013632 192.18742 169.835728 189.996157 161.512962 189.996157 
C 153.190195 189.996157 145.012291 192.18742 137.804564 196.348803 
" clip-path="url(#p3803851608)" style="fill: none; stroke: #b0b0b0; stroke-width: 0.8; stroke-linecap: square"/>
     </g>
     <g id="text_8">
      <!-- −75 -->
      <g transform="translate(110.637699 207.44724)scale(0.1 -0.1)">
       <defs>
        <path id="DejaVuSans-37" d="M 525 4666 
L 3525 4666 
L 3525 4397 
L 1831 0 
L 1172 0 
L 2766 4134 
L 525 4134 
L 525 4666 
z
" transform="scale(0.015625)"/>
       </defs>
       <use xlink:href="#DejaVuSans-2212"/>
       <use xlink:href="#DejaVuSans-37" x="83.789062"/>
       <use xlink:href="#DejaVuSans-35" x="147.412109"/>
      </g>
     </g>
    </g>
    <g id="ytick_4">
     <g id="line2d_9">
      <path d="M 196.211426 177.31345 
C 185.662545 171.22305 173.69376 168.016024 161.512962 168.016024 
C 149.332163 168.016024 137.363379 171.22305 126.814498 177.31345 
" clip-path="url(#p3803851608)" style="fill: none; stroke: #b0b0b0; stroke-width: 0.8; stroke-linecap: square"/>
     </g>
     <g id="text_9">
      <!-- −70 -->
      <g transform="translate(99.647632 188.411887)scale(0.1 -0.1)">
       <use xlink:href="#DejaVuSans-2212"/>
       <use xlink:href="#DejaVuSans-37" x="83.789062"/>
       <use xlink:href="#DejaVuSans-30" x="147.412109"/>
      </g>
     </g>
    </g>
    <g id="ytick_5">
     <g id="line2d_10">
      <path d="M 207.201492 158.278096 
C 193.311458 150.258681 177.551792 146.035891 161.512962 146.035891 
C 145.474132 146.035891 129.714466 150.258681 115.824431 158.278096 
" clip-path="url(#p3803851608)" style="fill: none; stroke: #b0b0b0; stroke-width: 0.8; stroke-linecap: square"/>
     </g>
     <g id="text_10">
      <!-- −65 -->
      <g transform="translate(88.657566 169.376534)scale(0.1 -0.1)">
       <defs>
        <path id="DejaVuSans-36" d="M 2113 2584 
Q 1688 2584 1439 2293 
Q 1191 2003 1191 1497 
Q 1191 994 1439 701 
Q 1688 409 2113 409 
Q 2538 409 2786 701 
Q 3034 994 3034 1497 
Q 3034 2003 2786 2293 
Q 2538 2584 2113 2584 
z
M 3366 4563 
L 3366 3988 
Q 3128 4100 2886 4159 
Q 2644 4219 2406 4219 
Q 1781 4219 1451 3797 
Q 1122 3375 1075 2522 
Q 1259 2794 1537 2939 
Q 1816 3084 2150 3084 
Q 2853 3084 3261 2657 
Q 3669 2231 3669 1497 
Q 3669 778 3244 343 
Q 2819 -91 2113 -91 
Q 1303 -91 875 529 
Q 447 1150 447 2328 
Q 447 3434 972 4092 
Q 1497 4750 2381 4750 
Q 2619 4750 2861 4703 
Q 3103 4656 3366 4563 
z
" transform="scale(0.015625)"/>
       </defs>
       <use xlink:href="#DejaVuSans-2212"/>
       <use xlink:href="#DejaVuSans-36" x="83.789062"/>
       <use xlink:href="#DejaVuSans-35" x="147.412109"/>
      </g>
     </g>
    </g>
    <g id="ytick_6">
     <g id="line2d_11">
      <path d="M 218.191559 139.242743 
C 200.96037 129.294312 181.409824 124.055759 161.512962 124.055759 
C 141.6161 124.055759 122.065553 129.294312 104.834365 139.242743 
" clip-path="url(#p3803851608)" style="fill: none; stroke: #b0b0b0; stroke-width: 0.8; stroke-linecap: square"/>
     </g>
     <g id="text_11">
      <!-- −60 -->
      <g transform="translate(77.6675 150.34118)scale(0.1 -0.1)">
       <use xlink:href="#DejaVuSans-2212"/>
       <use xlink:href="#DejaVuSans-36" x="83.789062"/>
       <use xlink:href="#DejaVuSans-30" x="147.412109"/>
      </g>
     </g>
    </g>
   </g>
   <g id="line2d_12">
    <path d="M 179.602578 206.080818 
L 173.995466 214.70736 
L 183.651036 195.066721 
L 182.678622 194.775005 
L 170.78084 217.717709 
L 178.542265 199.164512 
L 180.79569 191.541155 
L 180.958416 188.299342 
L 184.385752 175.909873 
L 183.873972 173.200878 
L 178.996832 183.603131 
L 176.408722 188.075815 
L 175.203873 188.377617 
L 175.329952 183.599328 
L 175.069959 179.612398 
L 173.574904 180.665977 
L 171.441983 185.363202 
L 167.841608 199.99575 
L 170.248465 178.256243 
L 169.286619 175.878117 
L 166.326735 191.612963 
L 166.16968 181.957573 
L 167.210937 146.846227 
L 166.292599 123.374264 
L 164.096251 114.088006 
L 161.512962 115.119955 
L 159.266155 130.151519 
L 158.444758 164.207834 
L 158.73043 193.185877 
L 155.420304 164.857428 
L 154.006737 165.99599 
L 155.191161 187.370743 
L 160.654884 231.602061 
L 152.955338 186.817243 
L 150.96194 182.102558 
L 147.530097 171.628745 
L 148.335414 181.230193 
L 146.704943 179.739526 
L 146.098315 182.203893 
L 146.632449 188.126316 
L 144.29983 184.436379 
L 142.963412 184.145902 
L 140.404959 180.655242 
L 149.168382 206.234103 
L 142.031773 191.069034 
L 144.642078 199.520327 
L 151.176322 215.446474 
L 137.049648 188.131927 
L 144.229881 204.353468 
L 146.353132 209.837324 
L 145.248795 209.24259 
" clip-path="url(#p3803851608)" style="fill: none; stroke: #ff0000; stroke-width: 1.5; stroke-linecap: square"/>
   </g>
   <g id="line2d_13">
    <path d="M 173.563756 216.540364 
L 174.198987 214.337158 
L 187.551854 187.605144 
L 180.655582 198.850393 
L 182.621261 192.555532 
L 179.745606 196.461764 
L 182.833792 186.692702 
L 183.964542 180.706733 
L 181.1487 184.614042 
L 177.060357 192.766914 
L 177.396989 188.526942 
L 178.934784 179.709091 
L 176.805489 182.641274 
L 174.004718 188.760776 
L 173.166384 187.728332 
L 172.937947 183.662621 
L 172.083094 182.002377 
L 171.807053 176.55063 
L 169.926858 180.434156 
L 169.247776 176.185593 
L 166.294523 191.919436 
L 166.133226 182.391692 
L 164.426442 191.104518 
L 163.801375 182.813068 
L 162.545433 188.123272 
L 161.512962 191.483333 
L 160.433234 185.867286 
L 158.836936 173.564914 
L 157.771589 177.945533 
L 157.07493 184.561846 
L 155.801169 183.068871 
L 154.558429 182.362155 
L 152.853301 178.769845 
L 151.927577 180.740757 
L 151.594402 185.418042 
L 148.391437 175.68103 
L 147.367214 177.10225 
L 150.49709 194.508964 
L 146.48607 183.592673 
L 146.231704 186.798986 
L 145.576498 188.36556 
L 143.411292 185.432038 
L 145.755096 195.041327 
L 146.204007 198.746946 
L 146.785129 202.376823 
L 149.296486 209.974298 
L 140.655662 193.088934 
L 144.080836 202.296163 
L 139.791385 195.863407 
L 135.35814 189.837507 
L 141.866932 203.385031 
" clip-path="url(#p3803851608)" style="fill: none; stroke: #0000ff; stroke-width: 1.5; stroke-linecap: square"/>
   </g>
   <g id="patch_3">
    <path d="M 226.125914 125.500036 
C 206.482557 114.158939 184.195157 108.187048 161.512962 108.187048 
C 138.830766 108.187048 116.543367 114.158939 96.90001 125.500036 
" style="fill: none; stroke: #000000; stroke-width: 0.8; stroke-linejoin: miter; stroke-linecap: square"/>
   </g>
   <g id="patch_4">
    <path d="M 161.512962 237.412952 
L 226.125914 125.500036 
" style="fill: none; stroke: #000000; stroke-width: 0.8; stroke-linejoin: miter; stroke-linecap: square"/>
   </g>
   <g id="patch_5">
    <path d="M 161.512962 237.412952 
L 96.90001 125.500036 
" style="fill: none; stroke: #000000; stroke-width: 0.8; stroke-linejoin: miter; stroke-linecap: square"/>
   </g>
   <g id="text_12">
    <!-- (a) -->
    <g transform="translate(58.132238 77.017714)scale(0.1 -0.1)">
     <defs>
      <path id="DejaVuSans-28" d="M 1984 4856 
Q 1566 4138 1362 3434 
Q 1159 2731 1159 2009 
Q 1159 1288 1364 580 
Q 1569 -128 1984 -844 
L 1484 -844 
Q 1016 -109 783 600 
Q 550 1309 550 2009 
Q 550 2706 781 3412 
Q 1013 4119 1484 4856 
L 1984 4856 
z
" transform="scale(0.015625)"/>
      <path id="DejaVuSans-61" d="M 2194 1759 
Q 1497 1759 1228 1600 
Q 959 1441 959 1056 
Q 959 750 1161 570 
Q 1363 391 1709 391 
Q 2188 391 2477 730 
Q 2766 1069 2766 1631 
L 2766 1759 
L 2194 1759 
z
M 3341 1997 
L 3341 0 
L 2766 0 
L 2766 531 
Q 2569 213 2275 61 
Q 1981 -91 1556 -91 
Q 1019 -91 701 211 
Q 384 513 384 1019 
Q 384 1609 779 1909 
Q 1175 2209 1959 2209 
L 2766 2209 
L 2766 2266 
Q 2766 2663 2505 2880 
Q 2244 3097 1772 3097 
Q 1472 3097 1187 3025 
Q 903 2953 641 2809 
L 641 3341 
Q 956 3463 1253 3523 
Q 1550 3584 1831 3584 
Q 2591 3584 2966 3190 
Q 3341 2797 3341 1997 
z
" transform="scale(0.015625)"/>
      <path id="DejaVuSans-29" d="M 513 4856 
L 1013 4856 
Q 1481 4119 1714 3412 
Q 1947 2706 1947 2009 
Q 1947 1309 1714 600 
Q 1481 -109 1013 -844 
L 513 -844 
Q 928 -128 1133 580 
Q 1338 1288 1338 2009 
Q 1338 2731 1133 3434 
Q 928 4138 513 4856 
z
" transform="scale(0.015625)"/>
     </defs>
     <use xlink:href="#DejaVuSans-28"/>
     <use xlink:href="#DejaVuSans-61" x="39.013672"/>
     <use xlink:href="#DejaVuSans-29" x="100.292969"/>
    </g>
   </g>
   <g id="text_13">
    <!-- Pan Angle -->
    <g transform="translate(131.704212 83.347985)scale(0.12 -0.12)">
     <defs>
      <path id="DejaVuSans-50" d="M 1259 4147 
L 1259 2394 
L 2053 2394 
Q 2494 2394 2734 2622 
Q 2975 2850 2975 3272 
Q 2975 3691 2734 3919 
Q 2494 4147 2053 4147 
L 1259 4147 
z
M 628 4666 
L 2053 4666 
Q 2838 4666 3239 4311 
Q 3641 3956 3641 3272 
Q 3641 2581 3239 2228 
Q 2838 1875 2053 1875 
L 1259 1875 
L 1259 0 
L 628 0 
L 628 4666 
z
" transform="scale(0.015625)"/>
      <path id="DejaVuSans-6e" d="M 3513 2113 
L 3513 0 
L 2938 0 
L 2938 2094 
Q 2938 2591 2744 2837 
Q 2550 3084 2163 3084 
Q 1697 3084 1428 2787 
Q 1159 2491 1159 1978 
L 1159 0 
L 581 0 
L 581 3500 
L 1159 3500 
L 1159 2956 
Q 1366 3272 1645 3428 
Q 1925 3584 2291 3584 
Q 2894 3584 3203 3211 
Q 3513 2838 3513 2113 
z
" transform="scale(0.015625)"/>
      <path id="DejaVuSans-20" transform="scale(0.015625)"/>
      <path id="DejaVuSans-41" d="M 2188 4044 
L 1331 1722 
L 3047 1722 
L 2188 4044 
z
M 1831 4666 
L 2547 4666 
L 4325 0 
L 3669 0 
L 3244 1197 
L 1141 1197 
L 716 0 
L 50 0 
L 1831 4666 
z
" transform="scale(0.015625)"/>
      <path id="DejaVuSans-67" d="M 2906 1791 
Q 2906 2416 2648 2759 
Q 2391 3103 1925 3103 
Q 1463 3103 1205 2759 
Q 947 2416 947 1791 
Q 947 1169 1205 825 
Q 1463 481 1925 481 
Q 2391 481 2648 825 
Q 2906 1169 2906 1791 
z
M 3481 434 
Q 3481 -459 3084 -895 
Q 2688 -1331 1869 -1331 
Q 1566 -1331 1297 -1286 
Q 1028 -1241 775 -1147 
L 775 -588 
Q 1028 -725 1275 -790 
Q 1522 -856 1778 -856 
Q 2344 -856 2625 -561 
Q 2906 -266 2906 331 
L 2906 616 
Q 2728 306 2450 153 
Q 2172 0 1784 0 
Q 1141 0 747 490 
Q 353 981 353 1791 
Q 353 2603 747 3093 
Q 1141 3584 1784 3584 
Q 2172 3584 2450 3431 
Q 2728 3278 2906 2969 
L 2906 3500 
L 3481 3500 
L 3481 434 
z
" transform="scale(0.015625)"/>
      <path id="DejaVuSans-6c" d="M 603 4863 
L 1178 4863 
L 1178 0 
L 603 0 
L 603 4863 
z
" transform="scale(0.015625)"/>
      <path id="DejaVuSans-65" d="M 3597 1894 
L 3597 1613 
L 953 1613 
Q 991 1019 1311 708 
Q 1631 397 2203 397 
Q 2534 397 2845 478 
Q 3156 559 3463 722 
L 3463 178 
Q 3153 47 2828 -22 
Q 2503 -91 2169 -91 
Q 1331 -91 842 396 
Q 353 884 353 1716 
Q 353 2575 817 3079 
Q 1281 3584 2069 3584 
Q 2775 3584 3186 3129 
Q 3597 2675 3597 1894 
z
M 3022 2063 
Q 3016 2534 2758 2815 
Q 2500 3097 2075 3097 
Q 1594 3097 1305 2825 
Q 1016 2553 972 2059 
L 3022 2063 
z
" transform="scale(0.015625)"/>
     </defs>
     <use xlink:href="#DejaVuSans-50"/>
     <use xlink:href="#DejaVuSans-61" x="55.802734"/>
     <use xlink:href="#DejaVuSans-6e" x="117.082031"/>
     <use xlink:href="#DejaVuSans-20" x="180.460938"/>
     <use xlink:href="#DejaVuSans-41" x="212.248047"/>
     <use xlink:href="#DejaVuSans-6e" x="280.65625"/>
     <use xlink:href="#DejaVuSans-67" x="344.035156"/>
     <use xlink:href="#DejaVuSans-6c" x="407.511719"/>
     <use xlink:href="#DejaVuSans-65" x="435.294922"/>
    </g>
   </g>
  </g>
  <g id="axes_2">
   <g id="patch_6">
    <path d="M 432.425 125.500036 
C 412.781643 114.158939 390.494243 108.187048 367.812048 108.187048 
C 345.129853 108.187048 322.842453 114.158939 303.199096 125.500036 
L 367.812048 237.412952 
C 367.812048 237.412952 367.812048 237.412952 367.812048 237.412952 
C 367.812048 237.412952 367.812048 237.412952 367.812048 237.412952 
L 432.425 125.500036 
z
" style="fill: #ffffff"/>
   </g>
   <g id="matplotlib.axis_3">
    <g id="xtick_6">
     <g id="line2d_14">
      <path d="M 367.812048 237.412952 
L 432.425 125.500036 
" clip-path="url(#pa432155b06)" style="fill: none; stroke: #b0b0b0; stroke-width: 0.8; stroke-linecap: square"/>
     </g>
     <g id="text_14">
      <!-- -30° -->
      <g transform="translate(428.758594 116.135056)scale(0.1 -0.1)">
       <use xlink:href="#DejaVuSans-2d"/>
       <use xlink:href="#DejaVuSans-33" x="36.083984"/>
       <use xlink:href="#DejaVuSans-30" x="99.707031"/>
       <use xlink:href="#DejaVuSans-b0" x="163.330078"/>
      </g>
     </g>
    </g>
    <g id="xtick_7">
     <g id="line2d_15">
      <path d="M 367.812048 237.412952 
L 401.258173 112.590314 
" clip-path="url(#pa432155b06)" style="fill: none; stroke: #b0b0b0; stroke-width: 0.8; stroke-linecap: square"/>
     </g>
     <g id="text_15">
      <!-- -15° -->
      <g transform="translate(394.215233 101.826727)scale(0.1 -0.1)">
       <use xlink:href="#DejaVuSans-2d"/>
       <use xlink:href="#DejaVuSans-31" x="36.083984"/>
       <use xlink:href="#DejaVuSans-35" x="99.707031"/>
       <use xlink:href="#DejaVuSans-b0" x="163.330078"/>
      </g>
     </g>
    </g>
    <g id="xtick_8">
     <g id="line2d_16">
      <path d="M 367.812048 237.412952 
L 367.812048 108.187048 
" clip-path="url(#pa432155b06)" style="fill: none; stroke: #b0b0b0; stroke-width: 0.8; stroke-linecap: square"/>
     </g>
     <g id="text_16">
      <!-- 0° -->
      <g transform="translate(362.130798 96.946423)scale(0.1 -0.1)">
       <use xlink:href="#DejaVuSans-30"/>
       <use xlink:href="#DejaVuSans-b0" x="63.623047"/>
      </g>
     </g>
    </g>
    <g id="xtick_9">
     <g id="line2d_17">
      <path d="M 367.812048 237.412952 
L 334.365923 112.590314 
" clip-path="url(#pa432155b06)" style="fill: none; stroke: #b0b0b0; stroke-width: 0.8; stroke-linecap: square"/>
     </g>
     <g id="text_17">
      <!-- 15° -->
      <g transform="translate(321.879956 101.826727)scale(0.1 -0.1)">
       <use xlink:href="#DejaVuSans-31"/>
       <use xlink:href="#DejaVuSans-35" x="63.623047"/>
       <use xlink:href="#DejaVuSans-b0" x="127.246094"/>
      </g>
     </g>
    </g>
    <g id="xtick_10">
     <g id="line2d_18">
      <path d="M 367.812048 237.412952 
L 303.199096 125.500036 
" clip-path="url(#pa432155b06)" style="fill: none; stroke: #b0b0b0; stroke-width: 0.8; stroke-linecap: square"/>
     </g>
     <g id="text_18">
      <!-- 30° -->
      <g transform="translate(287.336596 116.135056)scale(0.1 -0.1)">
       <use xlink:href="#DejaVuSans-33"/>
       <use xlink:href="#DejaVuSans-30" x="63.623047"/>
       <use xlink:href="#DejaVuSans-b0" x="127.246094"/>
      </g>
     </g>
    </g>
   </g>
   <g id="matplotlib.axis_4">
    <g id="ytick_7">
     <g id="line2d_19">
      <path d="M 377.424023 220.764523 
C 374.501831 219.077395 371.186305 218.189002 367.812048 218.189002 
C 364.437791 218.189002 361.122265 219.077395 358.200073 220.764523 
" clip-path="url(#pa432155b06)" style="fill: none; stroke: #b0b0b0; stroke-width: 0.8; stroke-linecap: square"/>
     </g>
     <g id="text_19">
      <!-- −80 -->
      <g transform="translate(383.486201 231.86296)scale(0.1 -0.1)">
       <use xlink:href="#DejaVuSans-2212"/>
       <use xlink:href="#DejaVuSans-38" x="83.789062"/>
       <use xlink:href="#DejaVuSans-30" x="147.412109"/>
      </g>
     </g>
    </g>
    <g id="ytick_8">
     <g id="line2d_20">
      <path d="M 388.946589 200.806853 
C 382.521355 197.097242 375.231269 195.143869 367.812048 195.143869 
C 360.392826 195.143869 353.102741 197.097242 346.677506 200.806853 
" clip-path="url(#pa432155b06)" style="fill: none; stroke: #b0b0b0; stroke-width: 0.8; stroke-linecap: square"/>
     </g>
     <g id="text_20">
      <!-- −75 -->
      <g transform="translate(395.008767 211.90529)scale(0.1 -0.1)">
       <use xlink:href="#DejaVuSans-2212"/>
       <use xlink:href="#DejaVuSans-37" x="83.789062"/>
       <use xlink:href="#DejaVuSans-35" x="147.412109"/>
      </g>
     </g>
    </g>
    <g id="ytick_9">
     <g id="line2d_21">
      <path d="M 400.469156 180.849182 
C 390.540879 175.117089 379.276234 172.098737 367.812048 172.098737 
C 356.347862 172.098737 345.083216 175.117089 335.15494 180.849182 
" clip-path="url(#pa432155b06)" style="fill: none; stroke: #b0b0b0; stroke-width: 0.8; stroke-linecap: square"/>
     </g>
     <g id="text_21">
      <!-- −70 -->
      <g transform="translate(406.531333 191.94762)scale(0.1 -0.1)">
       <use xlink:href="#DejaVuSans-2212"/>
       <use xlink:href="#DejaVuSans-37" x="83.789062"/>
       <use xlink:href="#DejaVuSans-30" x="147.412109"/>
      </g>
     </g>
    </g>
    <g id="ytick_10">
     <g id="line2d_22">
      <path d="M 411.991722 160.891512 
C 398.560404 153.136937 383.321198 149.053604 367.812048 149.053604 
C 352.302897 149.053604 337.063692 153.136937 323.632374 160.891512 
" clip-path="url(#pa432155b06)" style="fill: none; stroke: #b0b0b0; stroke-width: 0.8; stroke-linecap: square"/>
     </g>
     <g id="text_22">
      <!-- −65 -->
      <g transform="translate(418.0539 171.989949)scale(0.1 -0.1)">
       <use xlink:href="#DejaVuSans-2212"/>
       <use xlink:href="#DejaVuSans-36" x="83.789062"/>
       <use xlink:href="#DejaVuSans-35" x="147.412109"/>
      </g>
     </g>
    </g>
    <g id="ytick_11">
     <g id="line2d_23">
      <path d="M 423.514288 140.933842 
C 406.579928 131.156784 387.366163 126.008471 367.812048 126.008471 
C 348.257933 126.008471 329.044168 131.156784 312.109807 140.933842 
" clip-path="url(#pa432155b06)" style="fill: none; stroke: #b0b0b0; stroke-width: 0.8; stroke-linecap: square"/>
     </g>
     <g id="text_23">
      <!-- −60 -->
      <g transform="translate(429.576466 152.032279)scale(0.1 -0.1)">
       <use xlink:href="#DejaVuSans-2212"/>
       <use xlink:href="#DejaVuSans-36" x="83.789062"/>
       <use xlink:href="#DejaVuSans-30" x="147.412109"/>
      </g>
     </g>
    </g>
   </g>
   <g id="line2d_24">
    <path d="M 379.014642 173.879885 
L 377.993732 177.215222 
L 378.123689 173.746955 
L 379.342831 162.928625 
L 374.972488 188.922545 
L 376.5992 174.889116 
L 376.160662 174.842999 
L 376.531909 168.388142 
L 376.239839 166.735375 
L 374.394863 178.725831 
L 372.883704 189.159363 
L 372.436698 190.247119 
L 368.892056 225.545657 
L 370.257154 208.294965 
L 372.041541 182.445783 
L 371.925033 178.594526 
L 372.894528 156.629251 
L 372.757444 148.958064 
L 372.601399 139.487549 
L 372.150424 133.902429 
L 371.675752 126.770954 
L 371.028814 122.250942 
L 370.252597 120.902339 
L 369.434559 121.216732 
L 368.633211 119.791917 
L 367.812048 116.639703 
L 366.950895 114.063959 
L 366.123261 116.470358 
L 365.360109 120.358594 
L 364.540498 120.289644 
L 363.821657 123.143096 
L 363.21238 127.668202 
L 362.71978 133.293968 
L 362.449905 141.504003 
L 362.339829 150.434523 
L 361.966448 153.816986 
L 362.311645 165.928844 
L 363.429589 185.223641 
L 364.445062 200.416009 
L 363.590609 194.359391 
L 367.198058 231.571225 
L 362.869627 193.35028 
L 362.582872 193.559769 
L 361.344788 186.21932 
L 359.579314 175.711479 
L 358.954592 174.388882 
L 358.096971 171.622578 
L 357.972556 173.853699 
L 356.880455 169.919261 
L 356.859878 172.659834 
L 356.450105 172.976169 
" clip-path="url(#pa432155b06)" style="fill: none; stroke: #ff0000; stroke-width: 1.5; stroke-linecap: square"/>
   </g>
   <g id="line2d_25">
    <path d="M 375.4799 193.926401 
L 375.841151 189.942044 
L 376.949371 180.997416 
L 374.041347 197.174125 
L 373.789028 196.936923 
L 374.300619 191.244369 
L 374.507256 187.234704 
L 374.981805 180.65848 
L 373.120026 192.898907 
L 374.266114 179.873655 
L 372.097304 196.641463 
L 373.495528 179.448335 
L 371.895312 192.545437 
L 372.51261 181.435448 
L 371.218466 193.142595 
L 371.730005 181.383551 
L 370.102134 201.013072 
L 370.984174 180.675325 
L 370.017106 192.327258 
L 369.841802 188.98448 
L 369.464542 190.091723 
L 368.927255 197.487922 
L 369.014984 179.985395 
L 368.591991 181.557295 
L 368.198608 182.043139 
L 367.812048 179.512356 
L 367.380498 175.598955 
L 367.213057 194.516154 
L 366.750153 186.718628 
L 366.340713 184.738335 
L 366.228158 192.056275 
L 365.634142 185.449695 
L 365.977204 199.896833 
L 365.428442 194.779045 
L 365.058135 193.640761 
L 363.747257 179.283736 
L 364.203653 190.517678 
L 363.893477 190.747935 
L 363.787099 193.186209 
L 363.041944 188.763674 
L 361.961796 181.751519 
L 362.414998 189.29717 
L 361.236345 182.267455 
L 362.224166 193.180315 
L 361.505077 190.144406 
L 360.435899 184.928924 
L 359.557494 181.513224 
L 361.276517 195.195988 
L 359.14877 183.924262 
L 361.677108 201.141011 
L 359.726093 191.555225 
" clip-path="url(#pa432155b06)" style="fill: none; stroke: #0000ff; stroke-width: 1.5; stroke-linecap: square"/>
   </g>
   <g id="patch_7">
    <path d="M 432.425 125.500036 
C 412.781643 114.158939 390.494243 108.187048 367.812048 108.187048 
C 345.129853 108.187048 322.842453 114.158939 303.199096 125.500036 
" style="fill: none; stroke: #000000; stroke-width: 0.8; stroke-linejoin: miter; stroke-linecap: square"/>
   </g>
   <g id="patch_8">
    <path d="M 367.812048 237.412952 
L 432.425 125.500036 
" style="fill: none; stroke: #000000; stroke-width: 0.8; stroke-linejoin: miter; stroke-linecap: square"/>
   </g>
   <g id="patch_9">
    <path d="M 367.812048 237.412952 
L 303.199096 125.500036 
" style="fill: none; stroke: #000000; stroke-width: 0.8; stroke-linejoin: miter; stroke-linecap: square"/>
   </g>
   <g id="text_24">
    <!-- (b) -->
    <g transform="translate(264.431324 77.017714)scale(0.1 -0.1)">
     <defs>
      <path id="DejaVuSans-62" d="M 3116 1747 
Q 3116 2381 2855 2742 
Q 2594 3103 2138 3103 
Q 1681 3103 1420 2742 
Q 1159 2381 1159 1747 
Q 1159 1113 1420 752 
Q 1681 391 2138 391 
Q 2594 391 2855 752 
Q 3116 1113 3116 1747 
z
M 1159 2969 
Q 1341 3281 1617 3432 
Q 1894 3584 2278 3584 
Q 2916 3584 3314 3078 
Q 3713 2572 3713 1747 
Q 3713 922 3314 415 
Q 2916 -91 2278 -91 
Q 1894 -91 1617 61 
Q 1341 213 1159 525 
L 1159 0 
L 581 0 
L 581 4863 
L 1159 4863 
L 1159 2969 
z
" transform="scale(0.015625)"/>
     </defs>
     <use xlink:href="#DejaVuSans-28"/>
     <use xlink:href="#DejaVuSans-62" x="39.013672"/>
     <use xlink:href="#DejaVuSans-29" x="102.490234"/>
    </g>
   </g>
   <g id="text_25">
    <!-- Tilt Angle -->
    <g transform="translate(339.66736 83.347985)scale(0.12 -0.12)">
     <defs>
      <path id="DejaVuSans-54" d="M -19 4666 
L 3928 4666 
L 3928 4134 
L 2272 4134 
L 2272 0 
L 1638 0 
L 1638 4134 
L -19 4134 
L -19 4666 
z
" transform="scale(0.015625)"/>
      <path id="DejaVuSans-69" d="M 603 3500 
L 1178 3500 
L 1178 0 
L 603 0 
L 603 3500 
z
M 603 4863 
L 1178 4863 
L 1178 4134 
L 603 4134 
L 603 4863 
z
" transform="scale(0.015625)"/>
      <path id="DejaVuSans-74" d="M 1172 4494 
L 1172 3500 
L 2356 3500 
L 2356 3053 
L 1172 3053 
L 1172 1153 
Q 1172 725 1289 603 
Q 1406 481 1766 481 
L 2356 481 
L 2356 0 
L 1766 0 
Q 1100 0 847 248 
Q 594 497 594 1153 
L 594 3053 
L 172 3053 
L 172 3500 
L 594 3500 
L 594 4494 
L 1172 4494 
z
" transform="scale(0.015625)"/>
     </defs>
     <use xlink:href="#DejaVuSans-54"/>
     <use xlink:href="#DejaVuSans-69" x="57.958984"/>
     <use xlink:href="#DejaVuSans-6c" x="85.742188"/>
     <use xlink:href="#DejaVuSans-74" x="113.525391"/>
     <use xlink:href="#DejaVuSans-20" x="152.734375"/>
     <use xlink:href="#DejaVuSans-41" x="184.521484"/>
     <use xlink:href="#DejaVuSans-6e" x="252.929688"/>
     <use xlink:href="#DejaVuSans-67" x="316.308594"/>
     <use xlink:href="#DejaVuSans-6c" x="379.785156"/>
     <use xlink:href="#DejaVuSans-65" x="407.568359"/>
    </g>
   </g>
  </g>
  <g id="text_26">
   <!-- dBm -->
   <g transform="translate(82.944 183.168)rotate(-300)scale(0.1 -0.1)">
    <defs>
     <path id="DejaVuSans-64" d="M 2906 2969 
L 2906 4863 
L 3481 4863 
L 3481 0 
L 2906 0 
L 2906 525 
Q 2725 213 2448 61 
Q 2172 -91 1784 -91 
Q 1150 -91 751 415 
Q 353 922 353 1747 
Q 353 2572 751 3078 
Q 1150 3584 1784 3584 
Q 2172 3584 2448 3432 
Q 2725 3281 2906 2969 
z
M 947 1747 
Q 947 1113 1208 752 
Q 1469 391 1925 391 
Q 2381 391 2643 752 
Q 2906 1113 2906 1747 
Q 2906 2381 2643 2742 
Q 2381 3103 1925 3103 
Q 1469 3103 1208 2742 
Q 947 2381 947 1747 
z
" transform="scale(0.015625)"/>
     <path id="DejaVuSans-42" d="M 1259 2228 
L 1259 519 
L 2272 519 
Q 2781 519 3026 730 
Q 3272 941 3272 1375 
Q 3272 1813 3026 2020 
Q 2781 2228 2272 2228 
L 1259 2228 
z
M 1259 4147 
L 1259 2741 
L 2194 2741 
Q 2656 2741 2882 2914 
Q 3109 3088 3109 3444 
Q 3109 3797 2882 3972 
Q 2656 4147 2194 4147 
L 1259 4147 
z
M 628 4666 
L 2241 4666 
Q 2963 4666 3353 4366 
Q 3744 4066 3744 3513 
Q 3744 3084 3544 2831 
Q 3344 2578 2956 2516 
Q 3422 2416 3680 2098 
Q 3938 1781 3938 1306 
Q 3938 681 3513 340 
Q 3088 0 2303 0 
L 628 0 
L 628 4666 
z
" transform="scale(0.015625)"/>
     <path id="DejaVuSans-6d" d="M 3328 2828 
Q 3544 3216 3844 3400 
Q 4144 3584 4550 3584 
Q 5097 3584 5394 3201 
Q 5691 2819 5691 2113 
L 5691 0 
L 5113 0 
L 5113 2094 
Q 5113 2597 4934 2840 
Q 4756 3084 4391 3084 
Q 3944 3084 3684 2787 
Q 3425 2491 3425 1978 
L 3425 0 
L 2847 0 
L 2847 2094 
Q 2847 2600 2669 2842 
Q 2491 3084 2119 3084 
Q 1678 3084 1418 2786 
Q 1159 2488 1159 1978 
L 1159 0 
L 581 0 
L 581 3500 
L 1159 3500 
L 1159 2956 
Q 1356 3278 1631 3431 
Q 1906 3584 2284 3584 
Q 2666 3584 2933 3390 
Q 3200 3197 3328 2828 
z
" transform="scale(0.015625)"/>
    </defs>
    <use xlink:href="#DejaVuSans-64"/>
    <use xlink:href="#DejaVuSans-42" x="63.476562"/>
    <use xlink:href="#DejaVuSans-6d" x="132.080078"/>
   </g>
  </g>
  <g id="text_27">
   <!-- dBm -->
   <g transform="translate(437.76 196.992)rotate(-60)scale(0.1 -0.1)">
    <use xlink:href="#DejaVuSans-64"/>
    <use xlink:href="#DejaVuSans-42" x="63.476562"/>
    <use xlink:href="#DejaVuSans-6d" x="132.080078"/>
   </g>
  </g>
  <g id="legend_1">
   <g id="patch_10">
    <path d="M 216.272 241.92 
L 315.536063 241.92 
Q 317.536063 241.92 317.536063 239.92 
L 317.536063 211.56375 
Q 317.536063 209.56375 315.536063 209.56375 
L 216.272 209.56375 
Q 214.272 209.56375 214.272 211.56375 
L 214.272 239.92 
Q 214.272 241.92 216.272 241.92 
z
" style="fill: #ffffff; opacity: 0.8; stroke: #cccccc; stroke-linejoin: miter"/>
   </g>
   <g id="patch_11">
    <path d="M 218.272 221.162187 
L 238.272 221.162187 
L 238.272 214.162187 
L 218.272 214.162187 
z
" style="fill: #ff0000; stroke: #ff0000; stroke-linejoin: miter"/>
   </g>
   <g id="text_28">
    <!-- w/ metalens -->
    <g transform="translate(246.272 221.162187)scale(0.1 -0.1)">
     <defs>
      <path id="DejaVuSans-77" d="M 269 3500 
L 844 3500 
L 1563 769 
L 2278 3500 
L 2956 3500 
L 3675 769 
L 4391 3500 
L 4966 3500 
L 4050 0 
L 3372 0 
L 2619 2869 
L 1863 0 
L 1184 0 
L 269 3500 
z
" transform="scale(0.015625)"/>
      <path id="DejaVuSans-2f" d="M 1625 4666 
L 2156 4666 
L 531 -594 
L 0 -594 
L 1625 4666 
z
" transform="scale(0.015625)"/>
      <path id="DejaVuSans-73" d="M 2834 3397 
L 2834 2853 
Q 2591 2978 2328 3040 
Q 2066 3103 1784 3103 
Q 1356 3103 1142 2972 
Q 928 2841 928 2578 
Q 928 2378 1081 2264 
Q 1234 2150 1697 2047 
L 1894 2003 
Q 2506 1872 2764 1633 
Q 3022 1394 3022 966 
Q 3022 478 2636 193 
Q 2250 -91 1575 -91 
Q 1294 -91 989 -36 
Q 684 19 347 128 
L 347 722 
Q 666 556 975 473 
Q 1284 391 1588 391 
Q 1994 391 2212 530 
Q 2431 669 2431 922 
Q 2431 1156 2273 1281 
Q 2116 1406 1581 1522 
L 1381 1569 
Q 847 1681 609 1914 
Q 372 2147 372 2553 
Q 372 3047 722 3315 
Q 1072 3584 1716 3584 
Q 2034 3584 2315 3537 
Q 2597 3491 2834 3397 
z
" transform="scale(0.015625)"/>
     </defs>
     <use xlink:href="#DejaVuSans-77"/>
     <use xlink:href="#DejaVuSans-2f" x="81.787109"/>
     <use xlink:href="#DejaVuSans-20" x="115.478516"/>
     <use xlink:href="#DejaVuSans-6d" x="147.265625"/>
     <use xlink:href="#DejaVuSans-65" x="244.677734"/>
     <use xlink:href="#DejaVuSans-74" x="306.201172"/>
     <use xlink:href="#DejaVuSans-61" x="345.410156"/>
     <use xlink:href="#DejaVuSans-6c" x="406.689453"/>
     <use xlink:href="#DejaVuSans-65" x="434.472656"/>
     <use xlink:href="#DejaVuSans-6e" x="495.996094"/>
     <use xlink:href="#DejaVuSans-73" x="559.375"/>
    </g>
   </g>
   <g id="patch_12">
    <path d="M 218.272 235.840312 
L 238.272 235.840312 
L 238.272 228.840312 
L 218.272 228.840312 
z
" style="fill: #0000ff; stroke: #0000ff; stroke-linejoin: miter"/>
   </g>
   <g id="text_29">
    <!-- w/o metalens -->
    <g transform="translate(246.272 235.840312)scale(0.1 -0.1)">
     <defs>
      <path id="DejaVuSans-6f" d="M 1959 3097 
Q 1497 3097 1228 2736 
Q 959 2375 959 1747 
Q 959 1119 1226 758 
Q 1494 397 1959 397 
Q 2419 397 2687 759 
Q 2956 1122 2956 1747 
Q 2956 2369 2687 2733 
Q 2419 3097 1959 3097 
z
M 1959 3584 
Q 2709 3584 3137 3096 
Q 3566 2609 3566 1747 
Q 3566 888 3137 398 
Q 2709 -91 1959 -91 
Q 1206 -91 779 398 
Q 353 888 353 1747 
Q 353 2609 779 3096 
Q 1206 3584 1959 3584 
z
" transform="scale(0.015625)"/>
     </defs>
     <use xlink:href="#DejaVuSans-77"/>
     <use xlink:href="#DejaVuSans-2f" x="81.787109"/>
     <use xlink:href="#DejaVuSans-6f" x="115.478516"/>
     <use xlink:href="#DejaVuSans-20" x="176.660156"/>
     <use xlink:href="#DejaVuSans-6d" x="208.447266"/>
     <use xlink:href="#DejaVuSans-65" x="305.859375"/>
     <use xlink:href="#DejaVuSans-74" x="367.382812"/>
     <use xlink:href="#DejaVuSans-61" x="406.591797"/>
     <use xlink:href="#DejaVuSans-6c" x="467.871094"/>
     <use xlink:href="#DejaVuSans-65" x="495.654297"/>
     <use xlink:href="#DejaVuSans-6e" x="557.177734"/>
     <use xlink:href="#DejaVuSans-73" x="620.556641"/>
    </g>
   </g>
  </g>
 </g>
 <defs>
  <clipPath id="p3803851608">
   <path d="M 226.125914 125.500036 
C 206.482557 114.158939 184.195157 108.187048 161.512962 108.187048 
C 138.830766 108.187048 116.543367 114.158939 96.90001 125.500036 
L 161.512962 237.412952 
C 161.512962 237.412952 161.512962 237.412952 161.512962 237.412952 
C 161.512962 237.412952 161.512962 237.412952 161.512962 237.412952 
L 226.125914 125.500036 
z
"/>
  </clipPath>
  <clipPath id="pa432155b06">
   <path d="M 432.425 125.500036 
C 412.781643 114.158939 390.494243 108.187048 367.812048 108.187048 
C 345.129853 108.187048 322.842453 114.158939 303.199096 125.500036 
L 367.812048 237.412952 
C 367.812048 237.412952 367.812048 237.412952 367.812048 237.412952 
C 367.812048 237.412952 367.812048 237.412952 367.812048 237.412952 
L 432.425 125.500036 
z
"/>
  </clipPath>
 </defs>
</svg>
