<?xml version="1.0" encoding="utf-8" standalone="no"?>
<!DOCTYPE svg PUBLIC "-//W3C//DTD SVG 1.1//EN"
  "http://www.w3.org/Graphics/SVG/1.1/DTD/svg11.dtd">
<svg xmlns:xlink="http://www.w3.org/1999/xlink" width="460.8pt" height="345.6pt" viewBox="0 0 460.8 345.6" xmlns="http://www.w3.org/2000/svg" version="1.1">
 <metadata>
  <rdf:RDF xmlns:dc="http://purl.org/dc/elements/1.1/" xmlns:cc="http://creativecommons.org/ns#" xmlns:rdf="http://www.w3.org/1999/02/22-rdf-syntax-ns#">
   <cc:Work>
    <dc:type rdf:resource="http://purl.org/dc/dcmitype/StillImage"/>
    <dc:date>2023-09-12T00:17:00.739781</dc:date>
    <dc:format>image/svg+xml</dc:format>
    <dc:creator>
     <cc:Agent>
      <dc:title>Matplotlib v3.5.3, https://matplotlib.org/</dc:title>
     </cc:Agent>
    </dc:creator>
   </cc:Work>
  </rdf:RDF>
 </metadata>
 <defs>
  <style type="text/css">*{stroke-linejoin: round; stroke-linecap: butt}</style>
 </defs>
 <g id="figure_1">
  <g id="patch_1">
   <path d="M 0 345.6 
L 460.8 345.6 
L 460.8 0 
L 0 0 
z
" style="fill: #ffffff"/>
  </g>
  <g id="axes_1">
   <g id="patch_2">
    <path d="M 57.6 307.584 
L 414.72 307.584 
L 414.72 41.472 
L 57.6 41.472 
z
" style="fill: #ffffff"/>
   </g>
   <g id="matplotlib.axis_1">
    <g id="xtick_1">
     <g id="line2d_1">
      <defs>
       <path id="m9e75891e11" d="M 0 0 
L 0 3.5 
" style="stroke: #000000; stroke-width: 0.8"/>
      </defs>
      <g>
       <use xlink:href="#m9e75891e11" x="94.123636" y="307.584" style="stroke: #000000; stroke-width: 0.8"/>
      </g>
     </g>
     <g id="text_1">
      <!-- 10 -->
      <g transform="translate(87.761136 322.182437)scale(0.1 -0.1)">
       <defs>
        <path id="DejaVuSans-31" d="M 794 531 
L 1825 531 
L 1825 4091 
L 703 3866 
L 703 4441 
L 1819 4666 
L 2450 4666 
L 2450 531 
L 3481 531 
L 3481 0 
L 794 0 
L 794 531 
z
" transform="scale(0.015625)"/>
        <path id="DejaVuSans-30" d="M 2034 4250 
Q 1547 4250 1301 3770 
Q 1056 3291 1056 2328 
Q 1056 1369 1301 889 
Q 1547 409 2034 409 
Q 2525 409 2770 889 
Q 3016 1369 3016 2328 
Q 3016 3291 2770 3770 
Q 2525 4250 2034 4250 
z
M 2034 4750 
Q 2819 4750 3233 4129 
Q 3647 3509 3647 2328 
Q 3647 1150 3233 529 
Q 2819 -91 2034 -91 
Q 1250 -91 836 529 
Q 422 1150 422 2328 
Q 422 3509 836 4129 
Q 1250 4750 2034 4750 
z
" transform="scale(0.015625)"/>
       </defs>
       <use xlink:href="#DejaVuSans-31"/>
       <use xlink:href="#DejaVuSans-30" x="63.623047"/>
      </g>
     </g>
    </g>
    <g id="xtick_2">
     <g id="line2d_2">
      <g>
       <use xlink:href="#m9e75891e11" x="134.705455" y="307.584" style="stroke: #000000; stroke-width: 0.8"/>
      </g>
     </g>
     <g id="text_2">
      <!-- 20 -->
      <g transform="translate(128.342955 322.182437)scale(0.1 -0.1)">
       <defs>
        <path id="DejaVuSans-32" d="M 1228 531 
L 3431 531 
L 3431 0 
L 469 0 
L 469 531 
Q 828 903 1448 1529 
Q 2069 2156 2228 2338 
Q 2531 2678 2651 2914 
Q 2772 3150 2772 3378 
Q 2772 3750 2511 3984 
Q 2250 4219 1831 4219 
Q 1534 4219 1204 4116 
Q 875 4013 500 3803 
L 500 4441 
Q 881 4594 1212 4672 
Q 1544 4750 1819 4750 
Q 2544 4750 2975 4387 
Q 3406 4025 3406 3419 
Q 3406 3131 3298 2873 
Q 3191 2616 2906 2266 
Q 2828 2175 2409 1742 
Q 1991 1309 1228 531 
z
" transform="scale(0.015625)"/>
       </defs>
       <use xlink:href="#DejaVuSans-32"/>
       <use xlink:href="#DejaVuSans-30" x="63.623047"/>
      </g>
     </g>
    </g>
    <g id="xtick_3">
     <g id="line2d_3">
      <g>
       <use xlink:href="#m9e75891e11" x="175.287273" y="307.584" style="stroke: #000000; stroke-width: 0.8"/>
      </g>
     </g>
     <g id="text_3">
      <!-- 30 -->
      <g transform="translate(168.924773 322.182437)scale(0.1 -0.1)">
       <defs>
        <path id="DejaVuSans-33" d="M 2597 2516 
Q 3050 2419 3304 2112 
Q 3559 1806 3559 1356 
Q 3559 666 3084 287 
Q 2609 -91 1734 -91 
Q 1441 -91 1130 -33 
Q 819 25 488 141 
L 488 750 
Q 750 597 1062 519 
Q 1375 441 1716 441 
Q 2309 441 2620 675 
Q 2931 909 2931 1356 
Q 2931 1769 2642 2001 
Q 2353 2234 1838 2234 
L 1294 2234 
L 1294 2753 
L 1863 2753 
Q 2328 2753 2575 2939 
Q 2822 3125 2822 3475 
Q 2822 3834 2567 4026 
Q 2313 4219 1838 4219 
Q 1578 4219 1281 4162 
Q 984 4106 628 3988 
L 628 4550 
Q 988 4650 1302 4700 
Q 1616 4750 1894 4750 
Q 2613 4750 3031 4423 
Q 3450 4097 3450 3541 
Q 3450 3153 3228 2886 
Q 3006 2619 2597 2516 
z
" transform="scale(0.015625)"/>
       </defs>
       <use xlink:href="#DejaVuSans-33"/>
       <use xlink:href="#DejaVuSans-30" x="63.623047"/>
      </g>
     </g>
    </g>
    <g id="xtick_4">
     <g id="line2d_4">
      <g>
       <use xlink:href="#m9e75891e11" x="215.869091" y="307.584" style="stroke: #000000; stroke-width: 0.8"/>
      </g>
     </g>
     <g id="text_4">
      <!-- 40 -->
      <g transform="translate(209.506591 322.182437)scale(0.1 -0.1)">
       <defs>
        <path id="DejaVuSans-34" d="M 2419 4116 
L 825 1625 
L 2419 1625 
L 2419 4116 
z
M 2253 4666 
L 3047 4666 
L 3047 1625 
L 3713 1625 
L 3713 1100 
L 3047 1100 
L 3047 0 
L 2419 0 
L 2419 1100 
L 313 1100 
L 313 1709 
L 2253 4666 
z
" transform="scale(0.015625)"/>
       </defs>
       <use xlink:href="#DejaVuSans-34"/>
       <use xlink:href="#DejaVuSans-30" x="63.623047"/>
      </g>
     </g>
    </g>
    <g id="xtick_5">
     <g id="line2d_5">
      <g>
       <use xlink:href="#m9e75891e11" x="256.450909" y="307.584" style="stroke: #000000; stroke-width: 0.8"/>
      </g>
     </g>
     <g id="text_5">
      <!-- 50 -->
      <g transform="translate(250.088409 322.182437)scale(0.1 -0.1)">
       <defs>
        <path id="DejaVuSans-35" d="M 691 4666 
L 3169 4666 
L 3169 4134 
L 1269 4134 
L 1269 2991 
Q 1406 3038 1543 3061 
Q 1681 3084 1819 3084 
Q 2600 3084 3056 2656 
Q 3513 2228 3513 1497 
Q 3513 744 3044 326 
Q 2575 -91 1722 -91 
Q 1428 -91 1123 -41 
Q 819 9 494 109 
L 494 744 
Q 775 591 1075 516 
Q 1375 441 1709 441 
Q 2250 441 2565 725 
Q 2881 1009 2881 1497 
Q 2881 1984 2565 2268 
Q 2250 2553 1709 2553 
Q 1456 2553 1204 2497 
Q 953 2441 691 2322 
L 691 4666 
z
" transform="scale(0.015625)"/>
       </defs>
       <use xlink:href="#DejaVuSans-35"/>
       <use xlink:href="#DejaVuSans-30" x="63.623047"/>
      </g>
     </g>
    </g>
    <g id="xtick_6">
     <g id="line2d_6">
      <g>
       <use xlink:href="#m9e75891e11" x="297.032727" y="307.584" style="stroke: #000000; stroke-width: 0.8"/>
      </g>
     </g>
     <g id="text_6">
      <!-- 60 -->
      <g transform="translate(290.670227 322.182437)scale(0.1 -0.1)">
       <defs>
        <path id="DejaVuSans-36" d="M 2113 2584 
Q 1688 2584 1439 2293 
Q 1191 2003 1191 1497 
Q 1191 994 1439 701 
Q 1688 409 2113 409 
Q 2538 409 2786 701 
Q 3034 994 3034 1497 
Q 3034 2003 2786 2293 
Q 2538 2584 2113 2584 
z
M 3366 4563 
L 3366 3988 
Q 3128 4100 2886 4159 
Q 2644 4219 2406 4219 
Q 1781 4219 1451 3797 
Q 1122 3375 1075 2522 
Q 1259 2794 1537 2939 
Q 1816 3084 2150 3084 
Q 2853 3084 3261 2657 
Q 3669 2231 3669 1497 
Q 3669 778 3244 343 
Q 2819 -91 2113 -91 
Q 1303 -91 875 529 
Q 447 1150 447 2328 
Q 447 3434 972 4092 
Q 1497 4750 2381 4750 
Q 2619 4750 2861 4703 
Q 3103 4656 3366 4563 
z
" transform="scale(0.015625)"/>
       </defs>
       <use xlink:href="#DejaVuSans-36"/>
       <use xlink:href="#DejaVuSans-30" x="63.623047"/>
      </g>
     </g>
    </g>
    <g id="xtick_7">
     <g id="line2d_7">
      <g>
       <use xlink:href="#m9e75891e11" x="337.614545" y="307.584" style="stroke: #000000; stroke-width: 0.8"/>
      </g>
     </g>
     <g id="text_7">
      <!-- 70 -->
      <g transform="translate(331.252045 322.182437)scale(0.1 -0.1)">
       <defs>
        <path id="DejaVuSans-37" d="M 525 4666 
L 3525 4666 
L 3525 4397 
L 1831 0 
L 1172 0 
L 2766 4134 
L 525 4134 
L 525 4666 
z
" transform="scale(0.015625)"/>
       </defs>
       <use xlink:href="#DejaVuSans-37"/>
       <use xlink:href="#DejaVuSans-30" x="63.623047"/>
      </g>
     </g>
    </g>
    <g id="xtick_8">
     <g id="line2d_8">
      <g>
       <use xlink:href="#m9e75891e11" x="378.196364" y="307.584" style="stroke: #000000; stroke-width: 0.8"/>
      </g>
     </g>
     <g id="text_8">
      <!-- 80 -->
      <g transform="translate(371.833864 322.182437)scale(0.1 -0.1)">
       <defs>
        <path id="DejaVuSans-38" d="M 2034 2216 
Q 1584 2216 1326 1975 
Q 1069 1734 1069 1313 
Q 1069 891 1326 650 
Q 1584 409 2034 409 
Q 2484 409 2743 651 
Q 3003 894 3003 1313 
Q 3003 1734 2745 1975 
Q 2488 2216 2034 2216 
z
M 1403 2484 
Q 997 2584 770 2862 
Q 544 3141 544 3541 
Q 544 4100 942 4425 
Q 1341 4750 2034 4750 
Q 2731 4750 3128 4425 
Q 3525 4100 3525 3541 
Q 3525 3141 3298 2862 
Q 3072 2584 2669 2484 
Q 3125 2378 3379 2068 
Q 3634 1759 3634 1313 
Q 3634 634 3220 271 
Q 2806 -91 2034 -91 
Q 1263 -91 848 271 
Q 434 634 434 1313 
Q 434 1759 690 2068 
Q 947 2378 1403 2484 
z
M 1172 3481 
Q 1172 3119 1398 2916 
Q 1625 2713 2034 2713 
Q 2441 2713 2670 2916 
Q 2900 3119 2900 3481 
Q 2900 3844 2670 4047 
Q 2441 4250 2034 4250 
Q 1625 4250 1398 4047 
Q 1172 3844 1172 3481 
z
" transform="scale(0.015625)"/>
       </defs>
       <use xlink:href="#DejaVuSans-38"/>
       <use xlink:href="#DejaVuSans-30" x="63.623047"/>
      </g>
     </g>
    </g>
    <g id="text_9">
     <!-- Distance (cm) -->
     <g transform="translate(201.187344 335.860562)scale(0.1 -0.1)">
      <defs>
       <path id="DejaVuSans-44" d="M 1259 4147 
L 1259 519 
L 2022 519 
Q 2988 519 3436 956 
Q 3884 1394 3884 2338 
Q 3884 3275 3436 3711 
Q 2988 4147 2022 4147 
L 1259 4147 
z
M 628 4666 
L 1925 4666 
Q 3281 4666 3915 4102 
Q 4550 3538 4550 2338 
Q 4550 1131 3912 565 
Q 3275 0 1925 0 
L 628 0 
L 628 4666 
z
" transform="scale(0.015625)"/>
       <path id="DejaVuSans-69" d="M 603 3500 
L 1178 3500 
L 1178 0 
L 603 0 
L 603 3500 
z
M 603 4863 
L 1178 4863 
L 1178 4134 
L 603 4134 
L 603 4863 
z
" transform="scale(0.015625)"/>
       <path id="DejaVuSans-73" d="M 2834 3397 
L 2834 2853 
Q 2591 2978 2328 3040 
Q 2066 3103 1784 3103 
Q 1356 3103 1142 2972 
Q 928 2841 928 2578 
Q 928 2378 1081 2264 
Q 1234 2150 1697 2047 
L 1894 2003 
Q 2506 1872 2764 1633 
Q 3022 1394 3022 966 
Q 3022 478 2636 193 
Q 2250 -91 1575 -91 
Q 1294 -91 989 -36 
Q 684 19 347 128 
L 347 722 
Q 666 556 975 473 
Q 1284 391 1588 391 
Q 1994 391 2212 530 
Q 2431 669 2431 922 
Q 2431 1156 2273 1281 
Q 2116 1406 1581 1522 
L 1381 1569 
Q 847 1681 609 1914 
Q 372 2147 372 2553 
Q 372 3047 722 3315 
Q 1072 3584 1716 3584 
Q 2034 3584 2315 3537 
Q 2597 3491 2834 3397 
z
" transform="scale(0.015625)"/>
       <path id="DejaVuSans-74" d="M 1172 4494 
L 1172 3500 
L 2356 3500 
L 2356 3053 
L 1172 3053 
L 1172 1153 
Q 1172 725 1289 603 
Q 1406 481 1766 481 
L 2356 481 
L 2356 0 
L 1766 0 
Q 1100 0 847 248 
Q 594 497 594 1153 
L 594 3053 
L 172 3053 
L 172 3500 
L 594 3500 
L 594 4494 
L 1172 4494 
z
" transform="scale(0.015625)"/>
       <path id="DejaVuSans-61" d="M 2194 1759 
Q 1497 1759 1228 1600 
Q 959 1441 959 1056 
Q 959 750 1161 570 
Q 1363 391 1709 391 
Q 2188 391 2477 730 
Q 2766 1069 2766 1631 
L 2766 1759 
L 2194 1759 
z
M 3341 1997 
L 3341 0 
L 2766 0 
L 2766 531 
Q 2569 213 2275 61 
Q 1981 -91 1556 -91 
Q 1019 -91 701 211 
Q 384 513 384 1019 
Q 384 1609 779 1909 
Q 1175 2209 1959 2209 
L 2766 2209 
L 2766 2266 
Q 2766 2663 2505 2880 
Q 2244 3097 1772 3097 
Q 1472 3097 1187 3025 
Q 903 2953 641 2809 
L 641 3341 
Q 956 3463 1253 3523 
Q 1550 3584 1831 3584 
Q 2591 3584 2966 3190 
Q 3341 2797 3341 1997 
z
" transform="scale(0.015625)"/>
       <path id="DejaVuSans-6e" d="M 3513 2113 
L 3513 0 
L 2938 0 
L 2938 2094 
Q 2938 2591 2744 2837 
Q 2550 3084 2163 3084 
Q 1697 3084 1428 2787 
Q 1159 2491 1159 1978 
L 1159 0 
L 581 0 
L 581 3500 
L 1159 3500 
L 1159 2956 
Q 1366 3272 1645 3428 
Q 1925 3584 2291 3584 
Q 2894 3584 3203 3211 
Q 3513 2838 3513 2113 
z
" transform="scale(0.015625)"/>
       <path id="DejaVuSans-63" d="M 3122 3366 
L 3122 2828 
Q 2878 2963 2633 3030 
Q 2388 3097 2138 3097 
Q 1578 3097 1268 2742 
Q 959 2388 959 1747 
Q 959 1106 1268 751 
Q 1578 397 2138 397 
Q 2388 397 2633 464 
Q 2878 531 3122 666 
L 3122 134 
Q 2881 22 2623 -34 
Q 2366 -91 2075 -91 
Q 1284 -91 818 406 
Q 353 903 353 1747 
Q 353 2603 823 3093 
Q 1294 3584 2113 3584 
Q 2378 3584 2631 3529 
Q 2884 3475 3122 3366 
z
" transform="scale(0.015625)"/>
       <path id="DejaVuSans-65" d="M 3597 1894 
L 3597 1613 
L 953 1613 
Q 991 1019 1311 708 
Q 1631 397 2203 397 
Q 2534 397 2845 478 
Q 3156 559 3463 722 
L 3463 178 
Q 3153 47 2828 -22 
Q 2503 -91 2169 -91 
Q 1331 -91 842 396 
Q 353 884 353 1716 
Q 353 2575 817 3079 
Q 1281 3584 2069 3584 
Q 2775 3584 3186 3129 
Q 3597 2675 3597 1894 
z
M 3022 2063 
Q 3016 2534 2758 2815 
Q 2500 3097 2075 3097 
Q 1594 3097 1305 2825 
Q 1016 2553 972 2059 
L 3022 2063 
z
" transform="scale(0.015625)"/>
       <path id="DejaVuSans-20" transform="scale(0.015625)"/>
       <path id="DejaVuSans-28" d="M 1984 4856 
Q 1566 4138 1362 3434 
Q 1159 2731 1159 2009 
Q 1159 1288 1364 580 
Q 1569 -128 1984 -844 
L 1484 -844 
Q 1016 -109 783 600 
Q 550 1309 550 2009 
Q 550 2706 781 3412 
Q 1013 4119 1484 4856 
L 1984 4856 
z
" transform="scale(0.015625)"/>
       <path id="DejaVuSans-6d" d="M 3328 2828 
Q 3544 3216 3844 3400 
Q 4144 3584 4550 3584 
Q 5097 3584 5394 3201 
Q 5691 2819 5691 2113 
L 5691 0 
L 5113 0 
L 5113 2094 
Q 5113 2597 4934 2840 
Q 4756 3084 4391 3084 
Q 3944 3084 3684 2787 
Q 3425 2491 3425 1978 
L 3425 0 
L 2847 0 
L 2847 2094 
Q 2847 2600 2669 2842 
Q 2491 3084 2119 3084 
Q 1678 3084 1418 2786 
Q 1159 2488 1159 1978 
L 1159 0 
L 581 0 
L 581 3500 
L 1159 3500 
L 1159 2956 
Q 1356 3278 1631 3431 
Q 1906 3584 2284 3584 
Q 2666 3584 2933 3390 
Q 3200 3197 3328 2828 
z
" transform="scale(0.015625)"/>
       <path id="DejaVuSans-29" d="M 513 4856 
L 1013 4856 
Q 1481 4119 1714 3412 
Q 1947 2706 1947 2009 
Q 1947 1309 1714 600 
Q 1481 -109 1013 -844 
L 513 -844 
Q 928 -128 1133 580 
Q 1338 1288 1338 2009 
Q 1338 2731 1133 3434 
Q 928 4138 513 4856 
z
" transform="scale(0.015625)"/>
      </defs>
      <use xlink:href="#DejaVuSans-44"/>
      <use xlink:href="#DejaVuSans-69" x="77.001953"/>
      <use xlink:href="#DejaVuSans-73" x="104.785156"/>
      <use xlink:href="#DejaVuSans-74" x="156.884766"/>
      <use xlink:href="#DejaVuSans-61" x="196.09375"/>
      <use xlink:href="#DejaVuSans-6e" x="257.373047"/>
      <use xlink:href="#DejaVuSans-63" x="320.751953"/>
      <use xlink:href="#DejaVuSans-65" x="375.732422"/>
      <use xlink:href="#DejaVuSans-20" x="437.255859"/>
      <use xlink:href="#DejaVuSans-28" x="469.042969"/>
      <use xlink:href="#DejaVuSans-63" x="508.056641"/>
      <use xlink:href="#DejaVuSans-6d" x="563.037109"/>
      <use xlink:href="#DejaVuSans-29" x="660.449219"/>
     </g>
    </g>
   </g>
   <g id="matplotlib.axis_2">
    <g id="ytick_1">
     <g id="line2d_9">
      <defs>
       <path id="m1581e73f9f" d="M 0 0 
L -3.5 0 
" style="stroke: #000000; stroke-width: 0.8"/>
      </defs>
      <g>
       <use xlink:href="#m1581e73f9f" x="57.6" y="307.584" style="stroke: #000000; stroke-width: 0.8"/>
      </g>
     </g>
     <g id="text_10">
      <!-- −20 -->
      <g transform="translate(29.495313 311.383219)scale(0.1 -0.1)">
       <defs>
        <path id="DejaVuSans-2212" d="M 678 2272 
L 4684 2272 
L 4684 1741 
L 678 1741 
L 678 2272 
z
" transform="scale(0.015625)"/>
       </defs>
       <use xlink:href="#DejaVuSans-2212"/>
       <use xlink:href="#DejaVuSans-32" x="83.789062"/>
       <use xlink:href="#DejaVuSans-30" x="147.412109"/>
      </g>
     </g>
    </g>
    <g id="ytick_2">
     <g id="line2d_10">
      <g>
       <use xlink:href="#m1581e73f9f" x="57.6" y="274.32" style="stroke: #000000; stroke-width: 0.8"/>
      </g>
     </g>
     <g id="text_11">
      <!-- −15 -->
      <g transform="translate(29.495313 278.119219)scale(0.1 -0.1)">
       <use xlink:href="#DejaVuSans-2212"/>
       <use xlink:href="#DejaVuSans-31" x="83.789062"/>
       <use xlink:href="#DejaVuSans-35" x="147.412109"/>
      </g>
     </g>
    </g>
    <g id="ytick_3">
     <g id="line2d_11">
      <g>
       <use xlink:href="#m1581e73f9f" x="57.6" y="241.056" style="stroke: #000000; stroke-width: 0.8"/>
      </g>
     </g>
     <g id="text_12">
      <!-- −10 -->
      <g transform="translate(29.495313 244.855219)scale(0.1 -0.1)">
       <use xlink:href="#DejaVuSans-2212"/>
       <use xlink:href="#DejaVuSans-31" x="83.789062"/>
       <use xlink:href="#DejaVuSans-30" x="147.412109"/>
      </g>
     </g>
    </g>
    <g id="ytick_4">
     <g id="line2d_12">
      <g>
       <use xlink:href="#m1581e73f9f" x="57.6" y="207.792" style="stroke: #000000; stroke-width: 0.8"/>
      </g>
     </g>
     <g id="text_13">
      <!-- −5 -->
      <g transform="translate(35.857813 211.591219)scale(0.1 -0.1)">
       <use xlink:href="#DejaVuSans-2212"/>
       <use xlink:href="#DejaVuSans-35" x="83.789062"/>
      </g>
     </g>
    </g>
    <g id="ytick_5">
     <g id="line2d_13">
      <g>
       <use xlink:href="#m1581e73f9f" x="57.6" y="174.528" style="stroke: #000000; stroke-width: 0.8"/>
      </g>
     </g>
     <g id="text_14">
      <!-- 0 -->
      <g transform="translate(44.2375 178.327219)scale(0.1 -0.1)">
       <use xlink:href="#DejaVuSans-30"/>
      </g>
     </g>
    </g>
    <g id="ytick_6">
     <g id="line2d_14">
      <g>
       <use xlink:href="#m1581e73f9f" x="57.6" y="141.264" style="stroke: #000000; stroke-width: 0.8"/>
      </g>
     </g>
     <g id="text_15">
      <!-- 5 -->
      <g transform="translate(44.2375 145.063219)scale(0.1 -0.1)">
       <use xlink:href="#DejaVuSans-35"/>
      </g>
     </g>
    </g>
    <g id="ytick_7">
     <g id="line2d_15">
      <g>
       <use xlink:href="#m1581e73f9f" x="57.6" y="108" style="stroke: #000000; stroke-width: 0.8"/>
      </g>
     </g>
     <g id="text_16">
      <!-- 10 -->
      <g transform="translate(37.875 111.799219)scale(0.1 -0.1)">
       <use xlink:href="#DejaVuSans-31"/>
       <use xlink:href="#DejaVuSans-30" x="63.623047"/>
      </g>
     </g>
    </g>
    <g id="ytick_8">
     <g id="line2d_16">
      <g>
       <use xlink:href="#m1581e73f9f" x="57.6" y="74.736" style="stroke: #000000; stroke-width: 0.8"/>
      </g>
     </g>
     <g id="text_17">
      <!-- 15 -->
      <g transform="translate(37.875 78.535219)scale(0.1 -0.1)">
       <use xlink:href="#DejaVuSans-31"/>
       <use xlink:href="#DejaVuSans-35" x="63.623047"/>
      </g>
     </g>
    </g>
    <g id="ytick_9">
     <g id="line2d_17">
      <g>
       <use xlink:href="#m1581e73f9f" x="57.6" y="41.472" style="stroke: #000000; stroke-width: 0.8"/>
      </g>
     </g>
     <g id="text_18">
      <!-- 20 -->
      <g transform="translate(37.875 45.271219)scale(0.1 -0.1)">
       <use xlink:href="#DejaVuSans-32"/>
       <use xlink:href="#DejaVuSans-30" x="63.623047"/>
      </g>
     </g>
    </g>
    <g id="text_19">
     <!-- Gain Enhancement (dB) -->
     <g transform="translate(23.415625 234.339719)rotate(-90)scale(0.1 -0.1)">
      <defs>
       <path id="DejaVuSans-47" d="M 3809 666 
L 3809 1919 
L 2778 1919 
L 2778 2438 
L 4434 2438 
L 4434 434 
Q 4069 175 3628 42 
Q 3188 -91 2688 -91 
Q 1594 -91 976 548 
Q 359 1188 359 2328 
Q 359 3472 976 4111 
Q 1594 4750 2688 4750 
Q 3144 4750 3555 4637 
Q 3966 4525 4313 4306 
L 4313 3634 
Q 3963 3931 3569 4081 
Q 3175 4231 2741 4231 
Q 1884 4231 1454 3753 
Q 1025 3275 1025 2328 
Q 1025 1384 1454 906 
Q 1884 428 2741 428 
Q 3075 428 3337 486 
Q 3600 544 3809 666 
z
" transform="scale(0.015625)"/>
       <path id="DejaVuSans-45" d="M 628 4666 
L 3578 4666 
L 3578 4134 
L 1259 4134 
L 1259 2753 
L 3481 2753 
L 3481 2222 
L 1259 2222 
L 1259 531 
L 3634 531 
L 3634 0 
L 628 0 
L 628 4666 
z
" transform="scale(0.015625)"/>
       <path id="DejaVuSans-68" d="M 3513 2113 
L 3513 0 
L 2938 0 
L 2938 2094 
Q 2938 2591 2744 2837 
Q 2550 3084 2163 3084 
Q 1697 3084 1428 2787 
Q 1159 2491 1159 1978 
L 1159 0 
L 581 0 
L 581 4863 
L 1159 4863 
L 1159 2956 
Q 1366 3272 1645 3428 
Q 1925 3584 2291 3584 
Q 2894 3584 3203 3211 
Q 3513 2838 3513 2113 
z
" transform="scale(0.015625)"/>
       <path id="DejaVuSans-64" d="M 2906 2969 
L 2906 4863 
L 3481 4863 
L 3481 0 
L 2906 0 
L 2906 525 
Q 2725 213 2448 61 
Q 2172 -91 1784 -91 
Q 1150 -91 751 415 
Q 353 922 353 1747 
Q 353 2572 751 3078 
Q 1150 3584 1784 3584 
Q 2172 3584 2448 3432 
Q 2725 3281 2906 2969 
z
M 947 1747 
Q 947 1113 1208 752 
Q 1469 391 1925 391 
Q 2381 391 2643 752 
Q 2906 1113 2906 1747 
Q 2906 2381 2643 2742 
Q 2381 3103 1925 3103 
Q 1469 3103 1208 2742 
Q 947 2381 947 1747 
z
" transform="scale(0.015625)"/>
       <path id="DejaVuSans-42" d="M 1259 2228 
L 1259 519 
L 2272 519 
Q 2781 519 3026 730 
Q 3272 941 3272 1375 
Q 3272 1813 3026 2020 
Q 2781 2228 2272 2228 
L 1259 2228 
z
M 1259 4147 
L 1259 2741 
L 2194 2741 
Q 2656 2741 2882 2914 
Q 3109 3088 3109 3444 
Q 3109 3797 2882 3972 
Q 2656 4147 2194 4147 
L 1259 4147 
z
M 628 4666 
L 2241 4666 
Q 2963 4666 3353 4366 
Q 3744 4066 3744 3513 
Q 3744 3084 3544 2831 
Q 3344 2578 2956 2516 
Q 3422 2416 3680 2098 
Q 3938 1781 3938 1306 
Q 3938 681 3513 340 
Q 3088 0 2303 0 
L 628 0 
L 628 4666 
z
" transform="scale(0.015625)"/>
      </defs>
      <use xlink:href="#DejaVuSans-47"/>
      <use xlink:href="#DejaVuSans-61" x="77.490234"/>
      <use xlink:href="#DejaVuSans-69" x="138.769531"/>
      <use xlink:href="#DejaVuSans-6e" x="166.552734"/>
      <use xlink:href="#DejaVuSans-20" x="229.931641"/>
      <use xlink:href="#DejaVuSans-45" x="261.71875"/>
      <use xlink:href="#DejaVuSans-6e" x="324.902344"/>
      <use xlink:href="#DejaVuSans-68" x="388.28125"/>
      <use xlink:href="#DejaVuSans-61" x="451.660156"/>
      <use xlink:href="#DejaVuSans-6e" x="512.939453"/>
      <use xlink:href="#DejaVuSans-63" x="576.318359"/>
      <use xlink:href="#DejaVuSans-65" x="631.298828"/>
      <use xlink:href="#DejaVuSans-6d" x="692.822266"/>
      <use xlink:href="#DejaVuSans-65" x="790.234375"/>
      <use xlink:href="#DejaVuSans-6e" x="851.757812"/>
      <use xlink:href="#DejaVuSans-74" x="915.136719"/>
      <use xlink:href="#DejaVuSans-20" x="954.345703"/>
      <use xlink:href="#DejaVuSans-28" x="986.132812"/>
      <use xlink:href="#DejaVuSans-64" x="1025.146484"/>
      <use xlink:href="#DejaVuSans-42" x="1088.623047"/>
      <use xlink:href="#DejaVuSans-29" x="1157.226562"/>
     </g>
    </g>
   </g>
   <g id="line2d_18">
    <path d="M 73.832727 149.612508 
L 77.890909 150.1281 
L 81.949091 145.083328 
L 86.007273 147.182488 
L 90.065455 146.05451 
L 94.123636 137.18132 
L 98.181818 143.192014 
L 102.24 135.894526 
L 106.298182 140.398488 
L 110.356364 131.154808 
L 114.414545 142.180088 
L 118.472727 132.356312 
L 122.530909 142.783095 
L 126.589091 132.311791 
L 130.647273 140.555213 
L 134.705455 127.561133 
L 138.763636 135.223819 
L 142.821818 122.48956 
L 146.88 126.757182 
L 150.938182 109.458168 
L 154.996364 115.598286 
L 159.054545 117.487442 
L 163.112727 109.225245 
L 167.170909 110.841748 
L 171.229091 103.740744 
L 175.287273 106.589646 
L 179.345455 100.81481 
L 183.403636 102.398828 
L 187.461818 100.360576 
L 191.52 104.190773 
L 195.578182 103.547893 
L 199.636364 104.68791 
L 203.694545 101.408978 
L 207.752727 103.538586 
L 211.810909 99.860006 
L 215.869091 103.15911 
L 219.927273 102.95117 
L 223.985455 108.060966 
L 228.043636 107.68803 
L 232.101818 106.189374 
L 236.16 108.398777 
L 240.218182 113.886994 
L 244.276364 104.349422 
L 248.334545 120.210674 
L 252.392727 116.735201 
L 256.450909 122.677199 
L 260.509091 126.151726 
L 264.567273 118.994229 
L 268.625455 119.572622 
L 272.683636 121.540379 
L 276.741818 123.078019 
L 280.8 124.203866 
L 284.858182 126.402582 
L 288.916364 130.051517 
L 292.974545 130.522198 
L 297.032727 132.815204 
L 301.090909 136.290486 
L 305.149091 136.557258 
L 309.207273 141.481474 
L 313.265455 141.037108 
L 317.323636 146.995106 
L 321.381818 146.787651 
L 325.44 152.014696 
L 329.498182 151.490632 
L 333.556364 157.035496 
L 337.614545 155.528487 
L 341.672727 159.769132 
L 345.730909 162.015029 
L 349.789091 167.123068 
L 353.847273 170.327929 
L 357.905455 174.950917 
L 361.963636 174.032082 
L 366.021818 182.087185 
L 370.08 182.801763 
L 374.138182 189.867501 
L 378.196364 185.229001 
L 382.254545 188.976502 
L 386.312727 193.374826 
L 390.370909 188.264697 
L 394.429091 196.091084 
L 398.487273 198.422956 
" clip-path="url(#pfbcdf10c34)" style="fill: none; stroke: #8000ff; stroke-width: 1.5; stroke-linecap: square"/>
    <defs>
     <path id="m4535713387" d="M 0 0.75 
C 0.198902 0.75 0.389685 0.670975 0.53033 0.53033 
C 0.670975 0.389685 0.75 0.198902 0.75 0 
C 0.75 -0.198902 0.670975 -0.389685 0.53033 -0.53033 
C 0.389685 -0.670975 0.198902 -0.75 0 -0.75 
C -0.198902 -0.75 -0.389685 -0.670975 -0.53033 -0.53033 
C -0.670975 -0.389685 -0.75 -0.198902 -0.75 0 
C -0.75 0.198902 -0.670975 0.389685 -0.53033 0.53033 
C -0.389685 0.670975 -0.198902 0.75 0 0.75 
z
" style="stroke: #8000ff"/>
    </defs>
    <g clip-path="url(#pfbcdf10c34)">
     <use xlink:href="#m4535713387" x="73.832727" y="149.612508" style="fill: #8000ff; stroke: #8000ff"/>
     <use xlink:href="#m4535713387" x="77.890909" y="150.1281" style="fill: #8000ff; stroke: #8000ff"/>
     <use xlink:href="#m4535713387" x="81.949091" y="145.083328" style="fill: #8000ff; stroke: #8000ff"/>
     <use xlink:href="#m4535713387" x="86.007273" y="147.182488" style="fill: #8000ff; stroke: #8000ff"/>
     <use xlink:href="#m4535713387" x="90.065455" y="146.05451" style="fill: #8000ff; stroke: #8000ff"/>
     <use xlink:href="#m4535713387" x="94.123636" y="137.18132" style="fill: #8000ff; stroke: #8000ff"/>
     <use xlink:href="#m4535713387" x="98.181818" y="143.192014" style="fill: #8000ff; stroke: #8000ff"/>
     <use xlink:href="#m4535713387" x="102.24" y="135.894526" style="fill: #8000ff; stroke: #8000ff"/>
     <use xlink:href="#m4535713387" x="106.298182" y="140.398488" style="fill: #8000ff; stroke: #8000ff"/>
     <use xlink:href="#m4535713387" x="110.356364" y="131.154808" style="fill: #8000ff; stroke: #8000ff"/>
     <use xlink:href="#m4535713387" x="114.414545" y="142.180088" style="fill: #8000ff; stroke: #8000ff"/>
     <use xlink:href="#m4535713387" x="118.472727" y="132.356312" style="fill: #8000ff; stroke: #8000ff"/>
     <use xlink:href="#m4535713387" x="122.530909" y="142.783095" style="fill: #8000ff; stroke: #8000ff"/>
     <use xlink:href="#m4535713387" x="126.589091" y="132.311791" style="fill: #8000ff; stroke: #8000ff"/>
     <use xlink:href="#m4535713387" x="130.647273" y="140.555213" style="fill: #8000ff; stroke: #8000ff"/>
     <use xlink:href="#m4535713387" x="134.705455" y="127.561133" style="fill: #8000ff; stroke: #8000ff"/>
     <use xlink:href="#m4535713387" x="138.763636" y="135.223819" style="fill: #8000ff; stroke: #8000ff"/>
     <use xlink:href="#m4535713387" x="142.821818" y="122.48956" style="fill: #8000ff; stroke: #8000ff"/>
     <use xlink:href="#m4535713387" x="146.88" y="126.757182" style="fill: #8000ff; stroke: #8000ff"/>
     <use xlink:href="#m4535713387" x="150.938182" y="109.458168" style="fill: #8000ff; stroke: #8000ff"/>
     <use xlink:href="#m4535713387" x="154.996364" y="115.598286" style="fill: #8000ff; stroke: #8000ff"/>
     <use xlink:href="#m4535713387" x="159.054545" y="117.487442" style="fill: #8000ff; stroke: #8000ff"/>
     <use xlink:href="#m4535713387" x="163.112727" y="109.225245" style="fill: #8000ff; stroke: #8000ff"/>
     <use xlink:href="#m4535713387" x="167.170909" y="110.841748" style="fill: #8000ff; stroke: #8000ff"/>
     <use xlink:href="#m4535713387" x="171.229091" y="103.740744" style="fill: #8000ff; stroke: #8000ff"/>
     <use xlink:href="#m4535713387" x="175.287273" y="106.589646" style="fill: #8000ff; stroke: #8000ff"/>
     <use xlink:href="#m4535713387" x="179.345455" y="100.81481" style="fill: #8000ff; stroke: #8000ff"/>
     <use xlink:href="#m4535713387" x="183.403636" y="102.398828" style="fill: #8000ff; stroke: #8000ff"/>
     <use xlink:href="#m4535713387" x="187.461818" y="100.360576" style="fill: #8000ff; stroke: #8000ff"/>
     <use xlink:href="#m4535713387" x="191.52" y="104.190773" style="fill: #8000ff; stroke: #8000ff"/>
     <use xlink:href="#m4535713387" x="195.578182" y="103.547893" style="fill: #8000ff; stroke: #8000ff"/>
     <use xlink:href="#m4535713387" x="199.636364" y="104.68791" style="fill: #8000ff; stroke: #8000ff"/>
     <use xlink:href="#m4535713387" x="203.694545" y="101.408978" style="fill: #8000ff; stroke: #8000ff"/>
     <use xlink:href="#m4535713387" x="207.752727" y="103.538586" style="fill: #8000ff; stroke: #8000ff"/>
     <use xlink:href="#m4535713387" x="211.810909" y="99.860006" style="fill: #8000ff; stroke: #8000ff"/>
     <use xlink:href="#m4535713387" x="215.869091" y="103.15911" style="fill: #8000ff; stroke: #8000ff"/>
     <use xlink:href="#m4535713387" x="219.927273" y="102.95117" style="fill: #8000ff; stroke: #8000ff"/>
     <use xlink:href="#m4535713387" x="223.985455" y="108.060966" style="fill: #8000ff; stroke: #8000ff"/>
     <use xlink:href="#m4535713387" x="228.043636" y="107.68803" style="fill: #8000ff; stroke: #8000ff"/>
     <use xlink:href="#m4535713387" x="232.101818" y="106.189374" style="fill: #8000ff; stroke: #8000ff"/>
     <use xlink:href="#m4535713387" x="236.16" y="108.398777" style="fill: #8000ff; stroke: #8000ff"/>
     <use xlink:href="#m4535713387" x="240.218182" y="113.886994" style="fill: #8000ff; stroke: #8000ff"/>
     <use xlink:href="#m4535713387" x="244.276364" y="104.349422" style="fill: #8000ff; stroke: #8000ff"/>
     <use xlink:href="#m4535713387" x="248.334545" y="120.210674" style="fill: #8000ff; stroke: #8000ff"/>
     <use xlink:href="#m4535713387" x="252.392727" y="116.735201" style="fill: #8000ff; stroke: #8000ff"/>
     <use xlink:href="#m4535713387" x="256.450909" y="122.677199" style="fill: #8000ff; stroke: #8000ff"/>
     <use xlink:href="#m4535713387" x="260.509091" y="126.151726" style="fill: #8000ff; stroke: #8000ff"/>
     <use xlink:href="#m4535713387" x="264.567273" y="118.994229" style="fill: #8000ff; stroke: #8000ff"/>
     <use xlink:href="#m4535713387" x="268.625455" y="119.572622" style="fill: #8000ff; stroke: #8000ff"/>
     <use xlink:href="#m4535713387" x="272.683636" y="121.540379" style="fill: #8000ff; stroke: #8000ff"/>
     <use xlink:href="#m4535713387" x="276.741818" y="123.078019" style="fill: #8000ff; stroke: #8000ff"/>
     <use xlink:href="#m4535713387" x="280.8" y="124.203866" style="fill: #8000ff; stroke: #8000ff"/>
     <use xlink:href="#m4535713387" x="284.858182" y="126.402582" style="fill: #8000ff; stroke: #8000ff"/>
     <use xlink:href="#m4535713387" x="288.916364" y="130.051517" style="fill: #8000ff; stroke: #8000ff"/>
     <use xlink:href="#m4535713387" x="292.974545" y="130.522198" style="fill: #8000ff; stroke: #8000ff"/>
     <use xlink:href="#m4535713387" x="297.032727" y="132.815204" style="fill: #8000ff; stroke: #8000ff"/>
     <use xlink:href="#m4535713387" x="301.090909" y="136.290486" style="fill: #8000ff; stroke: #8000ff"/>
     <use xlink:href="#m4535713387" x="305.149091" y="136.557258" style="fill: #8000ff; stroke: #8000ff"/>
     <use xlink:href="#m4535713387" x="309.207273" y="141.481474" style="fill: #8000ff; stroke: #8000ff"/>
     <use xlink:href="#m4535713387" x="313.265455" y="141.037108" style="fill: #8000ff; stroke: #8000ff"/>
     <use xlink:href="#m4535713387" x="317.323636" y="146.995106" style="fill: #8000ff; stroke: #8000ff"/>
     <use xlink:href="#m4535713387" x="321.381818" y="146.787651" style="fill: #8000ff; stroke: #8000ff"/>
     <use xlink:href="#m4535713387" x="325.44" y="152.014696" style="fill: #8000ff; stroke: #8000ff"/>
     <use xlink:href="#m4535713387" x="329.498182" y="151.490632" style="fill: #8000ff; stroke: #8000ff"/>
     <use xlink:href="#m4535713387" x="333.556364" y="157.035496" style="fill: #8000ff; stroke: #8000ff"/>
     <use xlink:href="#m4535713387" x="337.614545" y="155.528487" style="fill: #8000ff; stroke: #8000ff"/>
     <use xlink:href="#m4535713387" x="341.672727" y="159.769132" style="fill: #8000ff; stroke: #8000ff"/>
     <use xlink:href="#m4535713387" x="345.730909" y="162.015029" style="fill: #8000ff; stroke: #8000ff"/>
     <use xlink:href="#m4535713387" x="349.789091" y="167.123068" style="fill: #8000ff; stroke: #8000ff"/>
     <use xlink:href="#m4535713387" x="353.847273" y="170.327929" style="fill: #8000ff; stroke: #8000ff"/>
     <use xlink:href="#m4535713387" x="357.905455" y="174.950917" style="fill: #8000ff; stroke: #8000ff"/>
     <use xlink:href="#m4535713387" x="361.963636" y="174.032082" style="fill: #8000ff; stroke: #8000ff"/>
     <use xlink:href="#m4535713387" x="366.021818" y="182.087185" style="fill: #8000ff; stroke: #8000ff"/>
     <use xlink:href="#m4535713387" x="370.08" y="182.801763" style="fill: #8000ff; stroke: #8000ff"/>
     <use xlink:href="#m4535713387" x="374.138182" y="189.867501" style="fill: #8000ff; stroke: #8000ff"/>
     <use xlink:href="#m4535713387" x="378.196364" y="185.229001" style="fill: #8000ff; stroke: #8000ff"/>
     <use xlink:href="#m4535713387" x="382.254545" y="188.976502" style="fill: #8000ff; stroke: #8000ff"/>
     <use xlink:href="#m4535713387" x="386.312727" y="193.374826" style="fill: #8000ff; stroke: #8000ff"/>
     <use xlink:href="#m4535713387" x="390.370909" y="188.264697" style="fill: #8000ff; stroke: #8000ff"/>
     <use xlink:href="#m4535713387" x="394.429091" y="196.091084" style="fill: #8000ff; stroke: #8000ff"/>
     <use xlink:href="#m4535713387" x="398.487273" y="198.422956" style="fill: #8000ff; stroke: #8000ff"/>
    </g>
   </g>
   <g id="line2d_19">
    <path d="M 73.832727 151.736006 
L 77.890909 147.255492 
L 81.949091 147.390645 
L 86.007273 150.115514 
L 90.065455 158.99332 
L 94.123636 155.092178 
L 98.181818 158.00467 
L 102.24 148.021729 
L 106.298182 152.400918 
L 110.356364 143.077158 
L 114.414545 147.405397 
L 118.472727 141.220038 
L 122.530909 144.632785 
L 126.589091 140.15109 
L 130.647273 145.820029 
L 134.705455 138.587024 
L 138.763636 149.896607 
L 142.821818 139.719799 
L 146.88 153.525758 
L 150.938182 141.66141 
L 154.996364 153.319435 
L 159.054545 139.381749 
L 163.112727 143.153341 
L 167.170909 134.010169 
L 171.229091 134.354402 
L 175.287273 127.496643 
L 179.345455 131.166384 
L 183.403636 125.573339 
L 187.461818 124.306502 
L 191.52 122.53909 
L 195.578182 121.108042 
L 199.636364 119.502527 
L 203.694545 118.108205 
L 207.752727 114.930402 
L 211.810909 114.474447 
L 215.869091 114.713943 
L 219.927273 110.612473 
L 223.985455 113.478084 
L 228.043636 108.887014 
L 232.101818 107.741233 
L 236.16 112.605161 
L 240.218182 106.245796 
L 244.276364 111.954084 
L 248.334545 110.812189 
L 252.392727 116.084822 
L 256.450909 111.378705 
L 260.509091 115.719392 
L 264.567273 111.875735 
L 268.625455 116.933298 
L 272.683636 113.265064 
L 276.741818 119.264471 
L 280.8 112.157607 
L 284.858182 121.172972 
L 288.916364 115.918079 
L 292.974545 123.791784 
L 297.032727 114.293632 
L 301.090909 124.598574 
L 305.149091 114.453947 
L 309.207273 127.94068 
L 313.265455 118.168022 
L 317.323636 127.598471 
L 321.381818 115.622757 
L 325.44 123.867139 
L 329.498182 116.314909 
L 333.556364 122.184566 
L 337.614545 121.294725 
L 341.672727 124.938032 
L 345.730909 117.668714 
L 349.789091 124.87792 
L 353.847273 116.167193 
L 357.905455 124.118667 
L 361.963636 119.728154 
L 366.021818 129.37871 
L 370.08 120.847913 
L 374.138182 122.456327 
L 378.196364 120.71033 
L 382.254545 129.266325 
L 386.312727 119.249225 
L 390.370909 124.880715 
L 394.429091 120.698142 
L 398.487273 127.733433 
" clip-path="url(#pfbcdf10c34)" style="fill: none; stroke: #80ffb4; stroke-width: 1.5; stroke-linecap: square"/>
    <defs>
     <path id="mcda7744f3a" d="M 0 0.75 
C 0.198902 0.75 0.389685 0.670975 0.53033 0.53033 
C 0.670975 0.389685 0.75 0.198902 0.75 0 
C 0.75 -0.198902 0.670975 -0.389685 0.53033 -0.53033 
C 0.389685 -0.670975 0.198902 -0.75 0 -0.75 
C -0.198902 -0.75 -0.389685 -0.670975 -0.53033 -0.53033 
C -0.670975 -0.389685 -0.75 -0.198902 -0.75 0 
C -0.75 0.198902 -0.670975 0.389685 -0.53033 0.53033 
C -0.389685 0.670975 -0.198902 0.75 0 0.75 
z
" style="stroke: #80ffb4"/>
    </defs>
    <g clip-path="url(#pfbcdf10c34)">
     <use xlink:href="#mcda7744f3a" x="73.832727" y="151.736006" style="fill: #80ffb4; stroke: #80ffb4"/>
     <use xlink:href="#mcda7744f3a" x="77.890909" y="147.255492" style="fill: #80ffb4; stroke: #80ffb4"/>
     <use xlink:href="#mcda7744f3a" x="81.949091" y="147.390645" style="fill: #80ffb4; stroke: #80ffb4"/>
     <use xlink:href="#mcda7744f3a" x="86.007273" y="150.115514" style="fill: #80ffb4; stroke: #80ffb4"/>
     <use xlink:href="#mcda7744f3a" x="90.065455" y="158.99332" style="fill: #80ffb4; stroke: #80ffb4"/>
     <use xlink:href="#mcda7744f3a" x="94.123636" y="155.092178" style="fill: #80ffb4; stroke: #80ffb4"/>
     <use xlink:href="#mcda7744f3a" x="98.181818" y="158.00467" style="fill: #80ffb4; stroke: #80ffb4"/>
     <use xlink:href="#mcda7744f3a" x="102.24" y="148.021729" style="fill: #80ffb4; stroke: #80ffb4"/>
     <use xlink:href="#mcda7744f3a" x="106.298182" y="152.400918" style="fill: #80ffb4; stroke: #80ffb4"/>
     <use xlink:href="#mcda7744f3a" x="110.356364" y="143.077158" style="fill: #80ffb4; stroke: #80ffb4"/>
     <use xlink:href="#mcda7744f3a" x="114.414545" y="147.405397" style="fill: #80ffb4; stroke: #80ffb4"/>
     <use xlink:href="#mcda7744f3a" x="118.472727" y="141.220038" style="fill: #80ffb4; stroke: #80ffb4"/>
     <use xlink:href="#mcda7744f3a" x="122.530909" y="144.632785" style="fill: #80ffb4; stroke: #80ffb4"/>
     <use xlink:href="#mcda7744f3a" x="126.589091" y="140.15109" style="fill: #80ffb4; stroke: #80ffb4"/>
     <use xlink:href="#mcda7744f3a" x="130.647273" y="145.820029" style="fill: #80ffb4; stroke: #80ffb4"/>
     <use xlink:href="#mcda7744f3a" x="134.705455" y="138.587024" style="fill: #80ffb4; stroke: #80ffb4"/>
     <use xlink:href="#mcda7744f3a" x="138.763636" y="149.896607" style="fill: #80ffb4; stroke: #80ffb4"/>
     <use xlink:href="#mcda7744f3a" x="142.821818" y="139.719799" style="fill: #80ffb4; stroke: #80ffb4"/>
     <use xlink:href="#mcda7744f3a" x="146.88" y="153.525758" style="fill: #80ffb4; stroke: #80ffb4"/>
     <use xlink:href="#mcda7744f3a" x="150.938182" y="141.66141" style="fill: #80ffb4; stroke: #80ffb4"/>
     <use xlink:href="#mcda7744f3a" x="154.996364" y="153.319435" style="fill: #80ffb4; stroke: #80ffb4"/>
     <use xlink:href="#mcda7744f3a" x="159.054545" y="139.381749" style="fill: #80ffb4; stroke: #80ffb4"/>
     <use xlink:href="#mcda7744f3a" x="163.112727" y="143.153341" style="fill: #80ffb4; stroke: #80ffb4"/>
     <use xlink:href="#mcda7744f3a" x="167.170909" y="134.010169" style="fill: #80ffb4; stroke: #80ffb4"/>
     <use xlink:href="#mcda7744f3a" x="171.229091" y="134.354402" style="fill: #80ffb4; stroke: #80ffb4"/>
     <use xlink:href="#mcda7744f3a" x="175.287273" y="127.496643" style="fill: #80ffb4; stroke: #80ffb4"/>
     <use xlink:href="#mcda7744f3a" x="179.345455" y="131.166384" style="fill: #80ffb4; stroke: #80ffb4"/>
     <use xlink:href="#mcda7744f3a" x="183.403636" y="125.573339" style="fill: #80ffb4; stroke: #80ffb4"/>
     <use xlink:href="#mcda7744f3a" x="187.461818" y="124.306502" style="fill: #80ffb4; stroke: #80ffb4"/>
     <use xlink:href="#mcda7744f3a" x="191.52" y="122.53909" style="fill: #80ffb4; stroke: #80ffb4"/>
     <use xlink:href="#mcda7744f3a" x="195.578182" y="121.108042" style="fill: #80ffb4; stroke: #80ffb4"/>
     <use xlink:href="#mcda7744f3a" x="199.636364" y="119.502527" style="fill: #80ffb4; stroke: #80ffb4"/>
     <use xlink:href="#mcda7744f3a" x="203.694545" y="118.108205" style="fill: #80ffb4; stroke: #80ffb4"/>
     <use xlink:href="#mcda7744f3a" x="207.752727" y="114.930402" style="fill: #80ffb4; stroke: #80ffb4"/>
     <use xlink:href="#mcda7744f3a" x="211.810909" y="114.474447" style="fill: #80ffb4; stroke: #80ffb4"/>
     <use xlink:href="#mcda7744f3a" x="215.869091" y="114.713943" style="fill: #80ffb4; stroke: #80ffb4"/>
     <use xlink:href="#mcda7744f3a" x="219.927273" y="110.612473" style="fill: #80ffb4; stroke: #80ffb4"/>
     <use xlink:href="#mcda7744f3a" x="223.985455" y="113.478084" style="fill: #80ffb4; stroke: #80ffb4"/>
     <use xlink:href="#mcda7744f3a" x="228.043636" y="108.887014" style="fill: #80ffb4; stroke: #80ffb4"/>
     <use xlink:href="#mcda7744f3a" x="232.101818" y="107.741233" style="fill: #80ffb4; stroke: #80ffb4"/>
     <use xlink:href="#mcda7744f3a" x="236.16" y="112.605161" style="fill: #80ffb4; stroke: #80ffb4"/>
     <use xlink:href="#mcda7744f3a" x="240.218182" y="106.245796" style="fill: #80ffb4; stroke: #80ffb4"/>
     <use xlink:href="#mcda7744f3a" x="244.276364" y="111.954084" style="fill: #80ffb4; stroke: #80ffb4"/>
     <use xlink:href="#mcda7744f3a" x="248.334545" y="110.812189" style="fill: #80ffb4; stroke: #80ffb4"/>
     <use xlink:href="#mcda7744f3a" x="252.392727" y="116.084822" style="fill: #80ffb4; stroke: #80ffb4"/>
     <use xlink:href="#mcda7744f3a" x="256.450909" y="111.378705" style="fill: #80ffb4; stroke: #80ffb4"/>
     <use xlink:href="#mcda7744f3a" x="260.509091" y="115.719392" style="fill: #80ffb4; stroke: #80ffb4"/>
     <use xlink:href="#mcda7744f3a" x="264.567273" y="111.875735" style="fill: #80ffb4; stroke: #80ffb4"/>
     <use xlink:href="#mcda7744f3a" x="268.625455" y="116.933298" style="fill: #80ffb4; stroke: #80ffb4"/>
     <use xlink:href="#mcda7744f3a" x="272.683636" y="113.265064" style="fill: #80ffb4; stroke: #80ffb4"/>
     <use xlink:href="#mcda7744f3a" x="276.741818" y="119.264471" style="fill: #80ffb4; stroke: #80ffb4"/>
     <use xlink:href="#mcda7744f3a" x="280.8" y="112.157607" style="fill: #80ffb4; stroke: #80ffb4"/>
     <use xlink:href="#mcda7744f3a" x="284.858182" y="121.172972" style="fill: #80ffb4; stroke: #80ffb4"/>
     <use xlink:href="#mcda7744f3a" x="288.916364" y="115.918079" style="fill: #80ffb4; stroke: #80ffb4"/>
     <use xlink:href="#mcda7744f3a" x="292.974545" y="123.791784" style="fill: #80ffb4; stroke: #80ffb4"/>
     <use xlink:href="#mcda7744f3a" x="297.032727" y="114.293632" style="fill: #80ffb4; stroke: #80ffb4"/>
     <use xlink:href="#mcda7744f3a" x="301.090909" y="124.598574" style="fill: #80ffb4; stroke: #80ffb4"/>
     <use xlink:href="#mcda7744f3a" x="305.149091" y="114.453947" style="fill: #80ffb4; stroke: #80ffb4"/>
     <use xlink:href="#mcda7744f3a" x="309.207273" y="127.94068" style="fill: #80ffb4; stroke: #80ffb4"/>
     <use xlink:href="#mcda7744f3a" x="313.265455" y="118.168022" style="fill: #80ffb4; stroke: #80ffb4"/>
     <use xlink:href="#mcda7744f3a" x="317.323636" y="127.598471" style="fill: #80ffb4; stroke: #80ffb4"/>
     <use xlink:href="#mcda7744f3a" x="321.381818" y="115.622757" style="fill: #80ffb4; stroke: #80ffb4"/>
     <use xlink:href="#mcda7744f3a" x="325.44" y="123.867139" style="fill: #80ffb4; stroke: #80ffb4"/>
     <use xlink:href="#mcda7744f3a" x="329.498182" y="116.314909" style="fill: #80ffb4; stroke: #80ffb4"/>
     <use xlink:href="#mcda7744f3a" x="333.556364" y="122.184566" style="fill: #80ffb4; stroke: #80ffb4"/>
     <use xlink:href="#mcda7744f3a" x="337.614545" y="121.294725" style="fill: #80ffb4; stroke: #80ffb4"/>
     <use xlink:href="#mcda7744f3a" x="341.672727" y="124.938032" style="fill: #80ffb4; stroke: #80ffb4"/>
     <use xlink:href="#mcda7744f3a" x="345.730909" y="117.668714" style="fill: #80ffb4; stroke: #80ffb4"/>
     <use xlink:href="#mcda7744f3a" x="349.789091" y="124.87792" style="fill: #80ffb4; stroke: #80ffb4"/>
     <use xlink:href="#mcda7744f3a" x="353.847273" y="116.167193" style="fill: #80ffb4; stroke: #80ffb4"/>
     <use xlink:href="#mcda7744f3a" x="357.905455" y="124.118667" style="fill: #80ffb4; stroke: #80ffb4"/>
     <use xlink:href="#mcda7744f3a" x="361.963636" y="119.728154" style="fill: #80ffb4; stroke: #80ffb4"/>
     <use xlink:href="#mcda7744f3a" x="366.021818" y="129.37871" style="fill: #80ffb4; stroke: #80ffb4"/>
     <use xlink:href="#mcda7744f3a" x="370.08" y="120.847913" style="fill: #80ffb4; stroke: #80ffb4"/>
     <use xlink:href="#mcda7744f3a" x="374.138182" y="122.456327" style="fill: #80ffb4; stroke: #80ffb4"/>
     <use xlink:href="#mcda7744f3a" x="378.196364" y="120.71033" style="fill: #80ffb4; stroke: #80ffb4"/>
     <use xlink:href="#mcda7744f3a" x="382.254545" y="129.266325" style="fill: #80ffb4; stroke: #80ffb4"/>
     <use xlink:href="#mcda7744f3a" x="386.312727" y="119.249225" style="fill: #80ffb4; stroke: #80ffb4"/>
     <use xlink:href="#mcda7744f3a" x="390.370909" y="124.880715" style="fill: #80ffb4; stroke: #80ffb4"/>
     <use xlink:href="#mcda7744f3a" x="394.429091" y="120.698142" style="fill: #80ffb4; stroke: #80ffb4"/>
     <use xlink:href="#mcda7744f3a" x="398.487273" y="127.733433" style="fill: #80ffb4; stroke: #80ffb4"/>
    </g>
   </g>
   <g id="line2d_20">
    <path d="M 73.832727 137.710146 
L 77.890909 124.612706 
L 81.949091 132.922574 
L 86.007273 125.914054 
L 90.065455 130.011232 
L 94.123636 122.194035 
L 98.181818 121.561731 
L 102.24 111.119496 
L 106.298182 110.398743 
L 110.356364 101.132507 
L 114.414545 104.828165 
L 118.472727 99.111533 
L 122.530909 104.973422 
L 126.589091 102.103045 
L 130.647273 112.093735 
L 134.705455 104.456346 
L 138.763636 113.683979 
L 142.821818 107.709865 
L 146.88 117.481942 
L 150.938182 107.200852 
L 154.996364 112.334609 
L 159.054545 111.263969 
L 163.112727 111.591154 
L 167.170909 106.444243 
L 171.229091 103.819307 
L 175.287273 102.712727 
L 179.345455 104.126114 
L 183.403636 103.343379 
L 187.461818 105.292137 
L 191.52 106.317201 
L 195.578182 108.340014 
L 199.636364 109.285442 
L 203.694545 113.585263 
L 207.752727 114.633715 
L 211.810909 120.682078 
L 215.869091 121.337821 
L 219.927273 125.639469 
L 223.985455 130.879636 
L 228.043636 137.958112 
L 232.101818 140.701627 
L 236.16 147.951593 
L 240.218182 149.603188 
L 244.276364 151.898739 
L 248.334545 158.954231 
L 252.392727 159.030717 
L 256.450909 165.233955 
L 260.509091 165.540745 
L 264.567273 167.90182 
L 268.625455 169.137381 
L 272.683636 171.270708 
L 276.741818 174.823447 
L 280.8 173.066741 
L 284.858182 178.731499 
L 288.916364 179.364899 
L 292.974545 179.855397 
L 297.032727 181.594392 
L 301.090909 183.632668 
L 305.149091 196.478137 
L 309.207273 186.997187 
L 313.265455 196.8688 
L 317.323636 189.927335 
L 321.381818 202.485145 
L 325.44 205.427125 
L 329.498182 206.719134 
L 333.556364 206.564649 
L 337.614545 215.865893 
L 341.672727 219.248741 
L 345.730909 224.696437 
L 349.789091 241.091925 
L 353.847273 251.203908 
L 357.905455 250.986934 
L 361.963636 248.870565 
L 366.021818 270.930804 
L 370.08 273.166245 
L 374.138182 317.080426 
L 378.196364 299.573922 
L 382.254545 314.795515 
L 384.93859 346.6 
M 387.028753 346.6 
L 390.370909 270.597725 
L 394.429091 333.137924 
L 398.487273 331.151757 
" clip-path="url(#pfbcdf10c34)" style="fill: none; stroke: #ff0000; stroke-width: 1.5; stroke-linecap: square"/>
    <defs>
     <path id="m69c9e48c4c" d="M 0 0.75 
C 0.198902 0.75 0.389685 0.670975 0.53033 0.53033 
C 0.670975 0.389685 0.75 0.198902 0.75 0 
C 0.75 -0.198902 0.670975 -0.389685 0.53033 -0.53033 
C 0.389685 -0.670975 0.198902 -0.75 0 -0.75 
C -0.198902 -0.75 -0.389685 -0.670975 -0.53033 -0.53033 
C -0.670975 -0.389685 -0.75 -0.198902 -0.75 0 
C -0.75 0.198902 -0.670975 0.389685 -0.53033 0.53033 
C -0.389685 0.670975 -0.198902 0.75 0 0.75 
z
" style="stroke: #ff0000"/>
    </defs>
    <g clip-path="url(#pfbcdf10c34)">
     <use xlink:href="#m69c9e48c4c" x="73.832727" y="137.710146" style="fill: #ff0000; stroke: #ff0000"/>
     <use xlink:href="#m69c9e48c4c" x="77.890909" y="124.612706" style="fill: #ff0000; stroke: #ff0000"/>
     <use xlink:href="#m69c9e48c4c" x="81.949091" y="132.922574" style="fill: #ff0000; stroke: #ff0000"/>
     <use xlink:href="#m69c9e48c4c" x="86.007273" y="125.914054" style="fill: #ff0000; stroke: #ff0000"/>
     <use xlink:href="#m69c9e48c4c" x="90.065455" y="130.011232" style="fill: #ff0000; stroke: #ff0000"/>
     <use xlink:href="#m69c9e48c4c" x="94.123636" y="122.194035" style="fill: #ff0000; stroke: #ff0000"/>
     <use xlink:href="#m69c9e48c4c" x="98.181818" y="121.561731" style="fill: #ff0000; stroke: #ff0000"/>
     <use xlink:href="#m69c9e48c4c" x="102.24" y="111.119496" style="fill: #ff0000; stroke: #ff0000"/>
     <use xlink:href="#m69c9e48c4c" x="106.298182" y="110.398743" style="fill: #ff0000; stroke: #ff0000"/>
     <use xlink:href="#m69c9e48c4c" x="110.356364" y="101.132507" style="fill: #ff0000; stroke: #ff0000"/>
     <use xlink:href="#m69c9e48c4c" x="114.414545" y="104.828165" style="fill: #ff0000; stroke: #ff0000"/>
     <use xlink:href="#m69c9e48c4c" x="118.472727" y="99.111533" style="fill: #ff0000; stroke: #ff0000"/>
     <use xlink:href="#m69c9e48c4c" x="122.530909" y="104.973422" style="fill: #ff0000; stroke: #ff0000"/>
     <use xlink:href="#m69c9e48c4c" x="126.589091" y="102.103045" style="fill: #ff0000; stroke: #ff0000"/>
     <use xlink:href="#m69c9e48c4c" x="130.647273" y="112.093735" style="fill: #ff0000; stroke: #ff0000"/>
     <use xlink:href="#m69c9e48c4c" x="134.705455" y="104.456346" style="fill: #ff0000; stroke: #ff0000"/>
     <use xlink:href="#m69c9e48c4c" x="138.763636" y="113.683979" style="fill: #ff0000; stroke: #ff0000"/>
     <use xlink:href="#m69c9e48c4c" x="142.821818" y="107.709865" style="fill: #ff0000; stroke: #ff0000"/>
     <use xlink:href="#m69c9e48c4c" x="146.88" y="117.481942" style="fill: #ff0000; stroke: #ff0000"/>
     <use xlink:href="#m69c9e48c4c" x="150.938182" y="107.200852" style="fill: #ff0000; stroke: #ff0000"/>
     <use xlink:href="#m69c9e48c4c" x="154.996364" y="112.334609" style="fill: #ff0000; stroke: #ff0000"/>
     <use xlink:href="#m69c9e48c4c" x="159.054545" y="111.263969" style="fill: #ff0000; stroke: #ff0000"/>
     <use xlink:href="#m69c9e48c4c" x="163.112727" y="111.591154" style="fill: #ff0000; stroke: #ff0000"/>
     <use xlink:href="#m69c9e48c4c" x="167.170909" y="106.444243" style="fill: #ff0000; stroke: #ff0000"/>
     <use xlink:href="#m69c9e48c4c" x="171.229091" y="103.819307" style="fill: #ff0000; stroke: #ff0000"/>
     <use xlink:href="#m69c9e48c4c" x="175.287273" y="102.712727" style="fill: #ff0000; stroke: #ff0000"/>
     <use xlink:href="#m69c9e48c4c" x="179.345455" y="104.126114" style="fill: #ff0000; stroke: #ff0000"/>
     <use xlink:href="#m69c9e48c4c" x="183.403636" y="103.343379" style="fill: #ff0000; stroke: #ff0000"/>
     <use xlink:href="#m69c9e48c4c" x="187.461818" y="105.292137" style="fill: #ff0000; stroke: #ff0000"/>
     <use xlink:href="#m69c9e48c4c" x="191.52" y="106.317201" style="fill: #ff0000; stroke: #ff0000"/>
     <use xlink:href="#m69c9e48c4c" x="195.578182" y="108.340014" style="fill: #ff0000; stroke: #ff0000"/>
     <use xlink:href="#m69c9e48c4c" x="199.636364" y="109.285442" style="fill: #ff0000; stroke: #ff0000"/>
     <use xlink:href="#m69c9e48c4c" x="203.694545" y="113.585263" style="fill: #ff0000; stroke: #ff0000"/>
     <use xlink:href="#m69c9e48c4c" x="207.752727" y="114.633715" style="fill: #ff0000; stroke: #ff0000"/>
     <use xlink:href="#m69c9e48c4c" x="211.810909" y="120.682078" style="fill: #ff0000; stroke: #ff0000"/>
     <use xlink:href="#m69c9e48c4c" x="215.869091" y="121.337821" style="fill: #ff0000; stroke: #ff0000"/>
     <use xlink:href="#m69c9e48c4c" x="219.927273" y="125.639469" style="fill: #ff0000; stroke: #ff0000"/>
     <use xlink:href="#m69c9e48c4c" x="223.985455" y="130.879636" style="fill: #ff0000; stroke: #ff0000"/>
     <use xlink:href="#m69c9e48c4c" x="228.043636" y="137.958112" style="fill: #ff0000; stroke: #ff0000"/>
     <use xlink:href="#m69c9e48c4c" x="232.101818" y="140.701627" style="fill: #ff0000; stroke: #ff0000"/>
     <use xlink:href="#m69c9e48c4c" x="236.16" y="147.951593" style="fill: #ff0000; stroke: #ff0000"/>
     <use xlink:href="#m69c9e48c4c" x="240.218182" y="149.603188" style="fill: #ff0000; stroke: #ff0000"/>
     <use xlink:href="#m69c9e48c4c" x="244.276364" y="151.898739" style="fill: #ff0000; stroke: #ff0000"/>
     <use xlink:href="#m69c9e48c4c" x="248.334545" y="158.954231" style="fill: #ff0000; stroke: #ff0000"/>
     <use xlink:href="#m69c9e48c4c" x="252.392727" y="159.030717" style="fill: #ff0000; stroke: #ff0000"/>
     <use xlink:href="#m69c9e48c4c" x="256.450909" y="165.233955" style="fill: #ff0000; stroke: #ff0000"/>
     <use xlink:href="#m69c9e48c4c" x="260.509091" y="165.540745" style="fill: #ff0000; stroke: #ff0000"/>
     <use xlink:href="#m69c9e48c4c" x="264.567273" y="167.90182" style="fill: #ff0000; stroke: #ff0000"/>
     <use xlink:href="#m69c9e48c4c" x="268.625455" y="169.137381" style="fill: #ff0000; stroke: #ff0000"/>
     <use xlink:href="#m69c9e48c4c" x="272.683636" y="171.270708" style="fill: #ff0000; stroke: #ff0000"/>
     <use xlink:href="#m69c9e48c4c" x="276.741818" y="174.823447" style="fill: #ff0000; stroke: #ff0000"/>
     <use xlink:href="#m69c9e48c4c" x="280.8" y="173.066741" style="fill: #ff0000; stroke: #ff0000"/>
     <use xlink:href="#m69c9e48c4c" x="284.858182" y="178.731499" style="fill: #ff0000; stroke: #ff0000"/>
     <use xlink:href="#m69c9e48c4c" x="288.916364" y="179.364899" style="fill: #ff0000; stroke: #ff0000"/>
     <use xlink:href="#m69c9e48c4c" x="292.974545" y="179.855397" style="fill: #ff0000; stroke: #ff0000"/>
     <use xlink:href="#m69c9e48c4c" x="297.032727" y="181.594392" style="fill: #ff0000; stroke: #ff0000"/>
     <use xlink:href="#m69c9e48c4c" x="301.090909" y="183.632668" style="fill: #ff0000; stroke: #ff0000"/>
     <use xlink:href="#m69c9e48c4c" x="305.149091" y="196.478137" style="fill: #ff0000; stroke: #ff0000"/>
     <use xlink:href="#m69c9e48c4c" x="309.207273" y="186.997187" style="fill: #ff0000; stroke: #ff0000"/>
     <use xlink:href="#m69c9e48c4c" x="313.265455" y="196.8688" style="fill: #ff0000; stroke: #ff0000"/>
     <use xlink:href="#m69c9e48c4c" x="317.323636" y="189.927335" style="fill: #ff0000; stroke: #ff0000"/>
     <use xlink:href="#m69c9e48c4c" x="321.381818" y="202.485145" style="fill: #ff0000; stroke: #ff0000"/>
     <use xlink:href="#m69c9e48c4c" x="325.44" y="205.427125" style="fill: #ff0000; stroke: #ff0000"/>
     <use xlink:href="#m69c9e48c4c" x="329.498182" y="206.719134" style="fill: #ff0000; stroke: #ff0000"/>
     <use xlink:href="#m69c9e48c4c" x="333.556364" y="206.564649" style="fill: #ff0000; stroke: #ff0000"/>
     <use xlink:href="#m69c9e48c4c" x="337.614545" y="215.865893" style="fill: #ff0000; stroke: #ff0000"/>
     <use xlink:href="#m69c9e48c4c" x="341.672727" y="219.248741" style="fill: #ff0000; stroke: #ff0000"/>
     <use xlink:href="#m69c9e48c4c" x="345.730909" y="224.696437" style="fill: #ff0000; stroke: #ff0000"/>
     <use xlink:href="#m69c9e48c4c" x="349.789091" y="241.091925" style="fill: #ff0000; stroke: #ff0000"/>
     <use xlink:href="#m69c9e48c4c" x="353.847273" y="251.203908" style="fill: #ff0000; stroke: #ff0000"/>
     <use xlink:href="#m69c9e48c4c" x="357.905455" y="250.986934" style="fill: #ff0000; stroke: #ff0000"/>
     <use xlink:href="#m69c9e48c4c" x="361.963636" y="248.870565" style="fill: #ff0000; stroke: #ff0000"/>
     <use xlink:href="#m69c9e48c4c" x="366.021818" y="270.930804" style="fill: #ff0000; stroke: #ff0000"/>
     <use xlink:href="#m69c9e48c4c" x="370.08" y="273.166245" style="fill: #ff0000; stroke: #ff0000"/>
     <use xlink:href="#m69c9e48c4c" x="374.138182" y="317.080426" style="fill: #ff0000; stroke: #ff0000"/>
     <use xlink:href="#m69c9e48c4c" x="378.196364" y="299.573922" style="fill: #ff0000; stroke: #ff0000"/>
     <use xlink:href="#m69c9e48c4c" x="382.254545" y="314.795515" style="fill: #ff0000; stroke: #ff0000"/>
     <use xlink:href="#m69c9e48c4c" x="386.312727" y="362.882785" style="fill: #ff0000; stroke: #ff0000"/>
     <use xlink:href="#m69c9e48c4c" x="390.370909" y="270.597725" style="fill: #ff0000; stroke: #ff0000"/>
     <use xlink:href="#m69c9e48c4c" x="394.429091" y="333.137924" style="fill: #ff0000; stroke: #ff0000"/>
     <use xlink:href="#m69c9e48c4c" x="398.487273" y="331.151757" style="fill: #ff0000; stroke: #ff0000"/>
    </g>
   </g>
   <g id="patch_3">
    <path d="M 57.6 307.584 
L 57.6 41.472 
" style="fill: none; stroke: #000000; stroke-width: 0.8; stroke-linejoin: miter; stroke-linecap: square"/>
   </g>
   <g id="patch_4">
    <path d="M 414.72 307.584 
L 414.72 41.472 
" style="fill: none; stroke: #000000; stroke-width: 0.8; stroke-linejoin: miter; stroke-linecap: square"/>
   </g>
   <g id="patch_5">
    <path d="M 57.6 307.584 
L 414.72 307.584 
" style="fill: none; stroke: #000000; stroke-width: 0.8; stroke-linejoin: miter; stroke-linecap: square"/>
   </g>
   <g id="patch_6">
    <path d="M 57.6 41.472 
L 414.72 41.472 
" style="fill: none; stroke: #000000; stroke-width: 0.8; stroke-linejoin: miter; stroke-linecap: square"/>
   </g>
   <g id="legend_1">
    <g id="patch_7">
     <path d="M 323.493438 93.506375 
L 407.72 93.506375 
Q 409.72 93.506375 409.72 91.506375 
L 409.72 48.472 
Q 409.72 46.472 407.72 46.472 
L 323.493438 46.472 
Q 321.493438 46.472 321.493438 48.472 
L 321.493438 91.506375 
Q 321.493438 93.506375 323.493438 93.506375 
z
" style="fill: #ffffff; opacity: 0.8; stroke: #cccccc; stroke-linejoin: miter"/>
    </g>
    <g id="patch_8">
     <path d="M 325.493438 58.070438 
L 345.493438 58.070438 
L 345.493438 51.070438 
L 325.493438 51.070438 
z
" style="fill: #8000ff; stroke: #8000ff; stroke-linejoin: miter"/>
    </g>
    <g id="text_20">
     <!-- d = 10 cm -->
     <g transform="translate(353.493438 58.070438)scale(0.1 -0.1)">
      <defs>
       <path id="DejaVuSans-3d" d="M 678 2906 
L 4684 2906 
L 4684 2381 
L 678 2381 
L 678 2906 
z
M 678 1631 
L 4684 1631 
L 4684 1100 
L 678 1100 
L 678 1631 
z
" transform="scale(0.015625)"/>
      </defs>
      <use xlink:href="#DejaVuSans-64"/>
      <use xlink:href="#DejaVuSans-20" x="63.476562"/>
      <use xlink:href="#DejaVuSans-3d" x="95.263672"/>
      <use xlink:href="#DejaVuSans-20" x="179.052734"/>
      <use xlink:href="#DejaVuSans-31" x="210.839844"/>
      <use xlink:href="#DejaVuSans-30" x="274.462891"/>
      <use xlink:href="#DejaVuSans-20" x="338.085938"/>
      <use xlink:href="#DejaVuSans-63" x="369.873047"/>
      <use xlink:href="#DejaVuSans-6d" x="424.853516"/>
     </g>
    </g>
    <g id="patch_9">
     <path d="M 325.493438 72.748563 
L 345.493438 72.748563 
L 345.493438 65.748563 
L 325.493438 65.748563 
z
" style="fill: #80ffb4; stroke: #80ffb4; stroke-linejoin: miter"/>
    </g>
    <g id="text_21">
     <!-- d = 6 cm -->
     <g transform="translate(353.493438 72.748563)scale(0.1 -0.1)">
      <use xlink:href="#DejaVuSans-64"/>
      <use xlink:href="#DejaVuSans-20" x="63.476562"/>
      <use xlink:href="#DejaVuSans-3d" x="95.263672"/>
      <use xlink:href="#DejaVuSans-20" x="179.052734"/>
      <use xlink:href="#DejaVuSans-36" x="210.839844"/>
      <use xlink:href="#DejaVuSans-20" x="274.462891"/>
      <use xlink:href="#DejaVuSans-63" x="306.25"/>
      <use xlink:href="#DejaVuSans-6d" x="361.230469"/>
     </g>
    </g>
    <g id="patch_10">
     <path d="M 325.493438 87.426688 
L 345.493438 87.426688 
L 345.493438 80.426688 
L 325.493438 80.426688 
z
" style="fill: #ff0000; stroke: #ff0000; stroke-linejoin: miter"/>
    </g>
    <g id="text_22">
     <!-- d = 14 cm -->
     <g transform="translate(353.493438 87.426688)scale(0.1 -0.1)">
      <use xlink:href="#DejaVuSans-64"/>
      <use xlink:href="#DejaVuSans-20" x="63.476562"/>
      <use xlink:href="#DejaVuSans-3d" x="95.263672"/>
      <use xlink:href="#DejaVuSans-20" x="179.052734"/>
      <use xlink:href="#DejaVuSans-31" x="210.839844"/>
      <use xlink:href="#DejaVuSans-34" x="274.462891"/>
      <use xlink:href="#DejaVuSans-20" x="338.085938"/>
      <use xlink:href="#DejaVuSans-63" x="369.873047"/>
      <use xlink:href="#DejaVuSans-6d" x="424.853516"/>
     </g>
    </g>
   </g>
  </g>
 </g>
 <defs>
  <clipPath id="pfbcdf10c34">
   <rect x="57.6" y="41.472" width="357.12" height="266.112"/>
  </clipPath>
 </defs>
</svg>
